<?xml version="1.0" encoding="UTF-8" standalone="no"?>
<!-- Created with Inkscape (http://www.inkscape.org/) -->

<svg
   version="1.1"
   id="svg1"
   width="400"
   height="400"
   viewBox="0 0 400 400"
   sodipodi:docname="aim_upscayl_4x_upscayl-standard-4x.png"
   inkscape:export-filename="aim_upscayl_4x_upscayl-standard-4x.svg"
   inkscape:export-xdpi="96"
   inkscape:export-ydpi="96"
   xmlns:inkscape="http://www.inkscape.org/namespaces/inkscape"
   xmlns:sodipodi="http://sodipodi.sourceforge.net/DTD/sodipodi-0.dtd"
   xmlns="http://www.w3.org/2000/svg"
   xmlns:svg="http://www.w3.org/2000/svg">
  <defs
     id="defs1" />
  <sodipodi:namedview
     id="namedview1"
     pagecolor="#ffffff"
     bordercolor="#000000"
     borderopacity="0.25"
     inkscape:showpageshadow="2"
     inkscape:pageopacity="0.0"
     inkscape:pagecheckerboard="0"
     inkscape:deskcolor="#d1d1d1">
    <inkscape:page
       x="0"
       y="0"
       width="400"
       height="400"
       id="page2"
       margin="0"
       bleed="0" />
  </sodipodi:namedview>
  <g
     inkscape:groupmode="layer"
     inkscape:label="Image"
     id="g1">
    <path
       style="fill:#000000"
       d="M 83.75,320.01952 C 68.166667,304.396 52.583333,288.77247 37,273.14895 c 0,-44.84434 0,-89.68867 0,-134.53301 30.891639,-31.39709 62.950841,-61.8405 92.58203,-94.332122 17.61392,-2.679301 35.7993,0.140775 53.64696,-0.500108 28.42304,0.238543 56.84729,0.176974 85.27101,0.229952 14.95449,18.983125 33.54071,34.924435 50.19505,52.42882 13.76832,13.705778 27.53663,27.411568 41.30495,41.117348 0,45.40578 0,90.81155 0,136.21733 C 328.97086,304.85144 297.94172,335.92572 266.91258,367 221.44172,366.96337 175.97086,366.92673 130.5,366.89009 114.91667,351.26657 99.333333,335.64304 83.75,320.01952 Z M 182,334.5 c 1.34869,-4.39947 -2.98836,-14.48468 2.74448,-14.5 9.5564,1.02515 18.7893,0.46638 14.06145,-12.08786 1.01612,-8.49657 -2.16893,-21.60965 -2.06935,-5.16838 0.65337,9.53069 -0.12528,21.37156 -12.92644,14.72423 C 182.21163,309.14275 183.32357,300.47302 183,292 c 10.57919,0.40529 21.43149,-0.97626 31.80055,0.95639 1.03892,8.24553 0.52862,16.68977 0.83012,25.02227 -8.5316,0.82055 -16.67145,1.64238 -3.44521,2.02134 7.21464,-1.67393 2.45558,8.62582 3.81454,12.80757 -3.46737,13.62247 3.97207,17.96638 16.16769,15.24263 8.09439,2.43482 5.19192,-6.18971 5.93648,-11.14649 0.0798,-12.9471 -0.50886,-27.40272 12.43788,-34.62775 18.79537,-19.94336 39.13166,-38.40118 57.68812,-58.54788 C 320.01802,237.3512 334.07818,240.87934 347,240 c 0,-7.8525 0,-15.705 0,-23.5575 -5.11855,-0.58837 -12.72855,1.25832 -16.28488,-0.85691 1.13251,-7.40669 -1.57571,-24.10441 -1.71512,-7.22978 3.12327,6.2205 -4.31682,11.06221 -6.56351,5.81759 1.49034,-7.56635 -1.42918,-21.88752 -1.43649,-5.81759 3.10885,6.19953 -4.28225,11.0697 -6.54557,5.81705 -0.39718,-4.58115 1.88669,-12.37417 -0.0885,-15.06482 -10.43887,0.50885 2.38054,7.6668 -1.65625,16.29466 -8.30652,4.42467 -5.91378,-6.664 -6.0029,-12.41617 -0.20094,-4.26712 -1.74962,-22.60432 -1.57372,-9.34494 1.9027,10.55685 -21.07176,8.79399 -22.83758,2.74982 -3.53447,-9.16819 3.74426,-12.93326 7.81525,-11.89843 -8.4393,-2.59188 -29.11192,1.18775 -30.71355,-2.08964 29.02232,-0.85108 58.06982,0.0427 87.10286,0.0967 0.18808,-7.4541 0.37615,-14.9082 0.56421,-22.3623 -13.01239,-0.43431 -27.53373,1.77998 -39.53073,-2.53959 -8.577,-8.99282 -16.39485,-17.83608 -24.00915,-25.23622 -0.82543,-6.36907 -2.26653,-35.57712 -2.79081,-15.37178 -0.92734,3.48883 3.10368,17.95911 -2.65847,10.5728 -4.26613,-9.10696 -12.80247,-13.35974 -21.79428,-22.6954 C 242.53758,95.835419 236.06408,82.667025 238.29069,66.146487 238.95318,57.352033 239.74664,48.882602 228.85173,52 224.9388,53.300671 215.48181,48.99319 215.96845,54.744299 215.87826,72.836567 214.92981,90.904796 215,109 c -8,0 -16,0 -24,0 -1.11367,-11.520912 0.46125,-3.3969 -2.57403,0 -8.28577,2.51367 -4.7069,-6.84112 -5.4298,-11.892746 C 182.90163,82.068167 183.31264,66.976961 181.71079,52 174.14053,52 166.57026,52 159,52 c 0,11.749405 0,23.498809 0,35.248214 -5.29024,5.20562 -10.58049,10.411239 -15.87073,15.616856 C 140.29126,88.771562 144.38804,74.037853 142.12175,60 c -2.93584,15.098863 0.92219,31.114115 -2.69998,46.15128 -7.1333,3.932 -13.98902,15.59034 -20.22741,19.03568 -0.0841,-6.70517 -2.65789,-24.72012 -2.84426,-8.37468 -0.0886,5.94342 2.11323,12.74137 -4.11359,16.3051 -8.49427,8.86722 -17.047793,17.67812 -25.73651,26.35522 -12.166667,0.22875 -24.333333,0.45749 -36.5,0.68624 0,7.61372 0,15.22744 0,22.84116 11.5,-1.4e-4 23,-2.9e-4 34.5,-4.5e-4 C 84.222852,193.99778 84.074173,204.99864 84,216 c -11.333333,0 -22.666667,0 -34,0 0,8 0,16 0,24 13.173896,1.03265 28.138395,-3.2827 39.48185,5.05506 9.569427,12.31686 21.88979,21.81691 32.21598,32.87156 11.95024,12.62664 24.50004,24.66254 36.371,36.38828 3.80167,9.59686 -2.87622,28.69859 4.67368,33.7117 12.57406,0.033 23.44422,5.65715 19.25749,-13.5266 z m 6.81538,-45.29795 c -7.79602,2.17503 -5.5808,-5.45735 -6.00914,-10.5 -5.27308,-16.97128 14.26484,-10.63983 24.74488,-11.70205 7.71177,-2.04571 9.19654,2.25547 8.14026,9.1466 -1.23422,4.21804 3.24509,14.04169 -2.48029,13.8534 -5.52408,-1.12358 -18.04825,2.48404 -15.19579,-6.88592 -5.09106,-10.75737 21.35315,-9.33161 3.20773,-10.29884 -7.77755,-2.52147 -19.05435,4.25729 -4.98049,1.33677 0.83631,4.32031 4.0388,19.36442 -7.42716,15.05004 z M 191,283.5 c -2.48821,-13.4552 -1.33936,13.8842 0,0 z m 14.71758,-4.23625 c -1.4815,3.2603 0.84086,8.86144 -5e-5,0 z M 214,274 c -5.43764,-3.1802 -4.43104,1.35102 0,0 z m -26.5,-9.93094 c -13.64657,-6.88507 20.45505,-5.05248 26.87318,-5.24574 6.64427,10.84076 -21.86178,1.93351 -26.87318,5.24574 z m -15.41784,-8.92533 c -12.18221,-5.88087 13.90274,-3.59629 18.87717,-4.27893 12.82554,0.79815 32.31505,-2.13137 41.16297,1.50571 -15.35201,7.13847 -33.17375,3.70193 -49.59278,4.28146 -3.50985,-0.19804 -7.09724,-0.30628 -10.44736,-1.50824 z m -12.83104,-8.65913 c 0.0553,-6.07194 -10.39498,-4.29733 -9.42881,-14.08507 -11.60597,-2.60172 -3.11129,-4.79702 3.51584,-6.17922 -8.84708,2.45438 -16.93756,-8.78536 -3.5487,-7.5672 9.54719,-1.10008 28.74637,0.30516 31.93482,-1.6709 -13.06172,-0.71647 -26.14933,-0.3895 -39.22427,-0.48221 0.14545,-7.82366 12.62244,-1.61721 9.38034,-13.32768 9.11876,-5.02783 4.61279,19.1844 7.17497,0.97242 9.21931,-9.31002 1.09864,11.8213 10.73119,7.15526 12.15772,0.18924 3.59147,-2.64981 -2.91205,-1.21913 -3.85729,-10.50154 19.71542,-8.22129 2.00295,-9.21672 -8.90559,0.0392 -17.81083,0.13511 -26.71623,0.20386 0.30789,-6.02267 0.61578,-12.04534 0.92367,-18.06801 -6.81801,-1.16408 -21.29233,2.56057 -5.08698,2.35043 6.14624,-1.99245 1.33041,8.96563 2.57731,12.76124 -2.12503,6.73598 -9.54992,1.2265 -6.49663,-5.35623 -0.7386,-14.86399 -1.19545,20.85873 -8.75307,3.89204 -5.97805,14.73048 -12.6547,-16.4268 0.17453,-11.14748 -1.21946,5.59975 0.77384,16.56649 1.57472,3.49342 4.38584,-10.12824 -28.141546,-3.16363 -10.52223,-6.84143 10.2206,-1.3834 29.41632,4.57091 28.47721,-10.09146 7.52739,4.60585 9.95356,-22.77529 11.76176,-9.98707 -0.0972,5.64262 -0.19431,11.28525 -0.29146,16.92787 8.46676,-0.39698 17.3468,1.01465 25.5,-1.12914 -4.56772,-2.42952 -20.55028,2.57394 -13.30754,-6.25715 5.4562,0.24792 24.42473,-1.93385 7.94142,-1.6268 -6.4273,-7.11563 3.49024,-7.81076 9.34404,-6.87804 19.3278,-0.32727 38.83207,0.89774 58.02208,-0.98974 -22.96077,-1.28507 -46.00418,-0.12626 -69,-0.10937 -2.74267,-13.84355 14.17736,-3.78808 22.16216,-7.13423 14.24878,2.68405 32.21921,-5.73427 43.90679,2.83338 6.08909,6.01752 8.67468,13.63977 13.0667,17.55411 -16.93516,3.27316 -34.95228,0.16082 -52.06684,2.60234 17.66858,1.83008 35.63,0.58219 53.43119,0.69981 -1.7236,8.24374 4.348,7.73631 10.66886,6.94905 4.4156,0.94512 13.41356,-2.70789 14.71445,1.36265 -1.47798,4.09279 2.62599,13.92682 -3.12779,13.6218 -9.38584,1.73294 -19.99407,-3.98838 -25.09769,-0.0392 -10.44557,-2.12489 -33.56208,6.66898 -35.99888,-5.19015 2.41058,-8.32829 -20.61048,-19.5591 -30.2167,-9.16324 -9.99151,9.72377 -7.18327,33.20545 9.31773,32.37445 6.18628,0.21692 12.69942,1.16836 16.29306,-5.01013 5.13404,-5.40214 14.27723,-0.79018 20.95011,-2.60752 7.11543,-2.33267 -26.23731,1.76195 -14.55907,-7.50159 11.97368,0.798 30.65573,-5.96743 32.37866,8.67337 3.7934,-0.59325 -4.93413,-11.45464 5.33924,-9.92862 -2.40973,8.76493 5.28868,22.30125 -6.76421,24.70257 12.33749,2.4323 -11.12708,9.00887 -16.5295,6.27108 -5.71137,0.35806 -28.10735,-0.6236 -22.81093,1.20735 10.31911,3.08427 35.61917,-4.95255 36.99926,3.41648 -5.40658,3.83213 -8.85298,13.26212 -16.77717,11.25781 -22.75907,-0.0189 -45.51813,-0.0378 -68.2772,-0.0566 -0.91704,-0.80714 -1.83407,-1.61427 -2.75111,-2.42141 z M 166.5,239.25162 c -2.37013,-7.60826 6.84957,-4.24823 11.32688,-5.37627 9.91041,-0.33317 6.25641,-0.59014 -1.46635,-0.82425 -10.70423,-2.19252 -15.77876,0.31006 -10.61053,10.95052 l 0.52969,-1.39464 z m 8.5,2.8074 c -2.41851,-5.19847 -2.28482,3.51394 0,0 z M 184,242 c -3.68219,-4.02435 -3.83641,3.91193 0,0 z m 7,0.55902 c -2.52248,-3.91597 -2.75406,2.10212 0,0 z M 208,242 c -7.06594,-3.1807 1.18721,3.79283 0,0 z m 9,0.61663 c -3.81688,-2.9675 -5.75197,1.45173 0,0 z m 5.41072,-0.47217 c -2.91685,-1.80835 -6.38004,2.27589 -0.90521,0.53213 z m 11.31845,0.25137 c -3.25764,-1.10202 -2.68927,1.85703 0,0 z M 159,234 c -4.68376,-4.39483 -1.93482,4.0592 0,0 z m 31.5,0 c -5.40777,-3.57287 -2.01703,2.35227 0,0 z m -29.23097,-7.65594 c -7.0791,-0.74967 -0.38867,1.60871 0,0 z M 167,226.55902 c -2.52248,-3.91597 -2.75406,2.10212 0,0 z m 56.75,-0.27527 c -12.06793,-0.50152 -2.47747,1.20474 0,0 z m 20.51903,-0.93969 c -7.0791,-0.74967 -0.38867,1.60871 0,0 z M 254,217.8903 c -8.00377,-5.32009 -8.77745,3.51084 0,0 z m -8.09252,-0.31615 c -10.40342,-0.78887 -28.12156,-1.35675 -34.36422,-0.004 11.42612,0.5613 22.94673,0.67616 34.36422,0.004 z m -2.63845,-7.23009 c -7.0791,-0.74967 -0.38867,1.60871 0,0 z M 149.68311,193.8125 c -1.79701,-0.71399 0.67278,4.26888 0,0 z M 258,194.55902 c -2.37476,-6.85097 -2.33642,5.03018 0,0 z m 8.45729,0.51008 c -0.25287,-5.34055 -3.43516,3.20201 0,0 z m 7.89205,-1.60113 c -5.0004,-5.36802 -0.63366,7.20105 0,0 z m -51.62017,0.92786 c -3.25764,-1.10202 -2.68927,1.85703 0,0 z M 150.5,185 c -5.1625,-3.83576 -2.12195,3.50712 0,0 z m 0.0374,-9.67678 c -2.36744,-9.79074 -2.69068,14.24346 0,0 z m 48.12922,2.01005 c -5.90108,-1.498 -21.58385,0.83347 -7.16662,0.66673 2.37672,-0.17707 4.88202,0.23296 7.16662,-0.66673 z M 191.2,169.8 c -6.26432,-2.37472 0.13125,4.50782 0,0 z m 7.8,0.2 c -2.69252,-4.02999 -2.35666,3.89339 0,0 z m 36.88615,0.55282 c -6.03053,-1.45817 -31.47328,-0.1111 -13.15004,0.43444 4.38169,-0.0377 8.79614,0.17078 13.15004,-0.43444 z m 10.60377,-0.56913 c -9.16303,-2.48847 -9.92375,3.76337 0,-1e-5 z m -115.34196,46.26799 c -11.76101,2.16876 -0.29318,-24.10403 1.50515,-8.87432 -3.40096,14.15602 6.70396,-1.94653 8.10197,7.96173 -2.29247,1.96269 -6.7198,0.75169 -9.60712,0.91259 z m 126.67536,-0.87102 c -3.47666,-6.77293 4.10833,-19.43895 6.40934,-7.81601 -12.21123,4.83919 6.7959,8.21288 2.29612,-2.83066 5.90508,-8.24082 6.19399,2.84178 5.47122,7.8589 2.17355,6.06106 -12.2495,2.48536 -14.17668,2.78777 z M 86.05864,199.81803 c -3.590226,-6.6063 3.392032,-25.54012 6.629701,-12.98964 2.594622,6.43687 -4.50553,15.87301 -1.332124,15.5156 1.051413,5.65039 4.009032,16.06559 -5.481563,13.79208 0.06133,-5.43935 0.122657,-10.87869 0.183986,-16.31804 z M 94.369714,213.75 c -2.917193,-9.46129 7.458146,-16.85153 6.243046,-3.58527 2.62931,6.35891 -4.323191,8.3522 -6.243046,3.58527 z m 7.980786,0.0735 c -2.879412,-9.75778 7.91333,-15.6679 6.1495,-2.49384 2.92659,5.14596 -6.62997,6.37825 -6.1495,2.49384 z M 107,211 c -2.43212,-3.9442 -4.03866,4.06572 0,0 z m 3.3505,2.82349 c -3.13088,-8.0729 8.23309,-16.42194 5.07772,-4.5074 -8.37847,1.48066 9.37739,6.65984 -5.07804,6.41935 l -0.24668,-0.65709 z M 119,209.56642 c -4.14026,-12.08763 13.4994,-3.87477 1.55324,0.7458 6.0645,0.28723 0.9617,9.48215 -1.55324,3.99097 0,-1.57893 0,-3.15785 0,-4.73677 z M 274,214 c 8.99897,-4.89382 -2.24955,-1.82523 1.17378,-10.90822 8.17252,-4.42309 3.70741,7.19012 4.82622,11.4654 1.1573,2.60749 -6.81475,1.80217 -6,-0.55718 z m 8.17142,0.31983 c 11.20656,-8.98577 6.10157,7.04806 0,0 z m 8.19829,-0.56983 c -2.7797,-9.35634 7.15327,-16.83638 6.08479,-3.58538 2.63115,6.29827 -4.1523,8.37469 -6.08479,3.58538 z m 8,0 c -2.7872,-12.31705 8.19851,-15.20767 6.23052,-1.7562 3.0477,5.54 -6.65886,5.3219 -6.23052,1.7562 z M 283,206.86133 c 6.75684,-14.58982 5.30859,12.24306 0,0 z M 135,206.5 c 2.04283,-10.9248 11.15862,5.88797 0.42024,2.88287 z m 8,0 c 7.90947,-14.31201 5.98247,12.51801 0,0 z M 94.159447,191.97359 c -1.408172,-7.63481 1.504529,-11.65292 9.719633,-9.60166 6.17915,2.86762 5.72454,13.64828 3.70609,18.12807 -9.747938,4.00321 -1.90774,-28.59999 -6.90138,-10.66695 0.0288,5.93494 1.51844,13.16216 -6.864896,11.30717 0.113518,-3.05554 0.227035,-6.11109 0.340553,-9.16663 z m 16.627443,7.09313 c -4.25241,-11.19391 7.31164,-20.33006 5.96298,-4.59379 1.51301,4.93387 -1.62641,7.70177 -5.96298,4.59379 z M 106.5,183 c 4.59825,-3.55618 0.0647,3.41579 0,0 z m 52.3557,-6.18358 c -1.21584,-5.34159 0.52434,-33.59867 6.38021,-18.51247 -1.63737,4.38772 3.13603,24.25044 -6.38021,18.51247 z M 166.35815,166.25 c -3.26298,-9.37676 7.7607,-18.51527 5.66573,-4.32244 -7.58833,-2.37368 9.0936,9.58044 -4.48435,8.07246 -3.40628,0.86327 -0.91781,-2.02776 -1.18138,-3.75002 z m 0.6896,-14.19933 c -3.83921,-7.4774 23.01691,-5.94053 31.59291,-6.06892 12.49823,-0.1218 27.15211,-3.28274 36.85934,6.94632 -22.80986,-0.21017 -45.69169,0.66922 -68.45225,-0.8774 z M 183.03538,144 c -1.67841,-7.52682 -0.6375,-14.91763 8.44856,-11.90474 7.67202,0.13492 15.34404,0.26983 23.01606,0.40474 7.29315,16.36333 -13.18661,10.84498 -23.57524,11.75055 -2.62771,-0.0551 -5.2758,0.0978 -7.88938,-0.25055 z M 183,125.94496 c -0.43095,-6.20568 11.46417,-3.61667 0.41667,-6.56996 -4.427,-11.47854 11.15832,-10.60093 6.52461,-0.14274 -0.19824,5.25943 1.80531,14.22291 -6.45627,9.92657 l -0.40876,-1.13162 z m 8.83553,0.12756 c 4.42442,-15.56526 6.62484,14.17236 0,0 z m 7.87332,3.303 c -4.57045,-19.09066 12.79418,3.02124 0,0 z m 7.54115,-0.0378 C 199.8645,116.33814 220.40534,125.389 214,128.5 c -0.30272,-2.85351 -3.24398,4.50659 -6.75,0.83772 z M 192,117.44312 c -1.07541,-22.998227 12.22026,12.24435 0,0 z m 22.1681,2.67521 c -10.49592,4.01762 -11.29178,-13.99504 0.16536,-7.99448 1.16796,2.5341 0.49857,5.43041 -0.16536,7.99448 z M 199,116.10699 c 6.57444,-17.266092 5.33187,14.69726 0,0 z m -80.69937,188.64225 c 0.55448,-7.53984 -1.15253,-27.3606 -1.55224,-9.20072 -0.50211,6.18 1.09081,34.49968 1.57442,14.73349 l 0.004,-2.67038 z m 16.19937,5.3342 c -1.46699,-27.83711 -2.42438,26.14867 0,0 z m 8.67903,-0.0811 c 0.16268,-11.76511 -3.33078,-8.27334 -2.22692,1.42104 -2.32571,13.97553 4.46748,6.516 2.22692,-1.42104 z M 150,313.83333 c -0.75702,-14.47246 -1.87424,15.87164 0,0 z m 101,4.72569 c -1.61514,-3.25789 -4.20897,2.14331 0,0 z m 7.92971,-0.30902 c 1.02652,-9.27557 -6.09336,2.53819 0,0 z m -68.16533,-8 c -2.66639,-5.01161 -0.58655,15.44324 0.1494,2.75 z m 15.42541,3.25 c -2.42401,-11.46959 -0.23438,11.10572 0,0 z M 250.5,315 c -0.26392,-3.66733 -3.00162,3.36878 0,0 z M 125.68933,304.25 c -1.21902,-1.16896 0.1643,8.96624 0,0 z m -16.02705,0.5 c -1.73475,-0.32333 1.04987,6.68188 0,0 z m 81.30731,-5 c -0.96199,-18.10987 -2.89405,16.71271 -0.0474,2.81504 z m 67.60094,-0.5128 c -3.08718,3.07757 1.38393,11.19185 0.30279,1.38586 z m -44.84136,5.15863 c -3.25764,-1.10202 -2.68927,1.85703 0,0 z M 207,297.94098 c -2.24269,-12.37488 -2.11504,14.21278 0,0 z M 94,291 c -2.394875,-3.99516 -1.594825,3.71895 0,0 z m 16.13403,-2.65362 c -3.95954,-3.10284 1.63845,7.93393 0,0 z m 15.52825,0.40362 c -1.73475,-0.32333 1.04987,6.68188 0,0 z m 150.60675,1.59406 c -7.0791,-0.74967 -0.38867,1.60871 0,0 z M 283,290 c -2.69252,-4.02999 -2.35666,3.89339 0,0 z m -0.29274,-12.23834 c -1.34613,1.81759 0.61835,7.1561 0,0 z m -173.01427,0.50737 c -1.49208,1.63679 0.67474,6.35397 0,0 z M 111,273.44098 c -2.78336,-5.04017 -1.89548,6.42729 0,0 z M 95,274 c -2.692517,-4.02999 -2.356656,3.89339 0,0 z m 8,0.059 c -2.41851,-5.19847 -2.28482,3.51394 0,0 z M 87,265 c -2.394875,-3.99516 -1.594825,3.71895 0,0 z m 8,0.55902 c -2.522481,-3.91597 -2.754065,2.10212 0,0 z M 103.5,265 c -4.193329,-3.52363 -1.44015,3.60698 0,0 z m 195.62812,-2.75 c -2.79329,-8.87624 -0.96422,11.66403 0,0 z M 307,260.44098 c -1.76398,-15.24275 -1.79658,16.19095 0,0 z M 70.5,259 c -0.263926,-3.66733 -3.001612,3.36878 0,0 z M 87,258.55902 c -2.374758,-6.85097 -2.336417,5.03018 0,0 z m -25,0 c -2.522481,-3.91597 -2.754065,2.10212 0,0 z M 95,258 c -2.692517,-4.02999 -2.356656,3.89339 0,0 z M 70,205.94098 c -0.814455,-15.89432 -4.512747,8.62685 -0.279829,4.66054 l 0.203849,-1.96459 z M 78.041209,212.25 C 80.673485,206.31548 76.659554,192.91763 76,206.5 c 0.149795,0.57251 -0.263014,8.95396 2.041209,5.75 z M 339,205.91667 c -0.5099,-17.77255 -4.37894,9.72032 -0.28529,5.0625 l 0.20955,-2.24479 z M 62,207 c 4.175362,-12.86132 -6.941699,-3.17964 -0.927275,4.8596 C 62.407461,210.59826 61.68723,208.54598 62,207 Z m 228.37266,-15.25 c -2.54351,-13.52653 -0.32033,13.33799 0,0 z m 7.9587,1 c -2.60162,-11.01811 -0.2503,10.21635 0,0 z M 315,194.05902 c -2.44535,-8.48587 -2.20482,6.62246 0,0 z M 307,184.75 c -6.6471,-2.06168 -19.06033,0.67702 -4.90443,0.73049 l 3.44624,-0.20077 z M 89,155 c -0.529594,-4.32819 -6.671723,3.11133 0,0 z m 226,0.55902 c -2.52248,-3.91597 -2.75406,2.10212 0,0 z M 85.929715,124.75 c 0.07567,-16.13513 -4.141584,11.34355 -0.231599,5.20507 l 0.185292,-2.29468 z m 8.677274,5.66821 C 94.32,122.10333 92.763205,109.52266 92.09968,125.75 c -1.254852,1.24236 1.217922,10.08493 2.507309,4.66821 z m 9.643011,-0.0926 c -3.63423,-5.47112 -2.96064,-24.56721 -4.25,-7.3846 -1.533318,6.10859 1.99015,13.21902 4.25,7.3846 z M 110.20482,121.5 c -4.03949,-6.80228 8.02219,-14.45951 -1.92229,-12.03413 -1.57283,5.47006 0.80647,33.51706 2.03473,14.87591 z m 180.42547,8.25 c -0.15681,-8.35221 -1.94921,-20.57005 -2.56,-4.5 -1.56276,1.44581 1.82075,11.57986 2.56,4.5 z m 8.3544,1 c -2.1094,-10.72469 -5.02366,6.44983 0,0 z M 307,129.44098 c -3.18747,-5.05557 -2.75619,6.98917 0,0 z m -9.30701,-9.17195 c -1.49208,1.63679 0.67474,6.35397 0,0 z M 274.9144,112 c -2.66119,-0.24535 -1.49858,8.1817 0,0 z m -148.59086,-2.59924 c -4.43245,-3.02657 0.11094,6.16587 0,0 z M 102.5,110 c -1.51654,-3.80867 -3.053579,3.16631 0,0 z M 275,109 c -2.69252,-4.02999 -2.35666,3.89339 0,0 z M 133.70726,99.761659 c -1.34613,1.817591 0.61835,7.156101 0,0 z M 200,103.04797 c -4.86872,-5.954668 -3.69985,4.54303 0,0 z m -82.31689,-1.23547 c -1.79701,-0.71399 0.67278,4.26888 0,0 z M 206,102 c -7.06594,-3.180704 1.18721,3.79283 0,0 z M 190.22352,90.75 c -1.34753,-16.370305 -1.69193,13.48143 0,0 z m 13.29581,3.50554 c -12.98901,-3.878846 -6.89134,2.561821 0,0 z m -5.83,-8.00554 c -1.21902,-1.168962 0.1643,8.966242 0,0 z m -47.99634,0.01903 c -1.49208,1.636797 0.67474,6.353967 0,0 z M 150.07996,60.5 c -2.52182,7.159698 -0.7162,28.181455 0.10466,8.57124 0.11268,-2.856055 0.28656,-5.72417 -0.10466,-8.57124 z m 39.64851,5.75 c -1.34109,2.470538 0.61901,15.386376 0,0 z M 200.25,61.267795 c -16.67931,-0.369163 -5.14259,1.050189 0,0 z m 9.01903,0.07627 c -7.07905,-0.74967 -0.38879,1.608855 0,0 z"
       id="path1" />
    <path
       style="fill:#000000;stroke-width:3.5"
       d="m 159.199,86.107635 -71.088862,72.090115 -34.042554,-27.0338 93.617026,-86.10763 8.51063,8.510639 z"
       id="path2" />
    <path
       style="fill:#000000;stroke-width:3.5"
       d="m 182.22778,52.565707 1.50188,91.614523 31.53943,1.00125 V 47.559449 Z"
       id="path3" />
    <path
       style="fill:#000000;stroke-width:3.5"
       d="m 264.83104,106.63329 40.55069,48.06008 14.51814,3.00375 -16.52065,-62.077596 -32.54067,-7.509386 z"
       id="path4" />
    <path
       style="fill:#000000;stroke-width:3.5"
       d="m 346.43304,183.22904 -98.12265,-1.00126 3.00375,35.04381 104.13017,-2.0025 z"
       id="path5" />
    <path
       style="fill:#000000;stroke-width:3.5"
       d="m 218.27284,160.70088 -2.50313,72.59073 24.53067,8.01002 c 0,0 19.02378,-13.01627 16.02002,-33.0413 -3.00375,-20.02504 -2.0025,-30.53818 -2.0025,-30.53818 0,0 -8.01002,-19.5244 -21.52691,-26.53316 -13.5169,-7.00876 -14.51815,9.51189 -14.51815,9.51189 z"
       id="path6" />
    <path
       style="fill:#000000;stroke-width:3.5"
       d="m 60.075094,182.72841 119.649566,-1.50188 v 35.54443 L 52.565707,215.26909 Z"
       id="path7" />
    <path
       style="fill:#000000;stroke-width:3.5"
       d="m 251.31414,180.22528 -106.63329,0.50063 c 0,0 9.51189,-28.53567 20.52566,-28.03505 11.01377,0.50063 24.03004,-11.01376 24.03004,-11.01376 l 25.03128,1.00125 9.01127,14.51815 z"
       id="path8" />
    <path
       style="fill:#000000;stroke-width:3.5"
       d="m 185.73217,137.17146 -2.00251,17.52191 -15.01877,-7.00876 -11.01377,12.01501 42.05257,8.01002 z"
       id="path9" />
    <path
       style="fill:#000000;stroke-width:3.61976"
       d="m 139.67459,202.75344 c 0,0 0,41.37601 29.54387,51.20281 29.54388,9.8268 29.54388,4.1376 29.54388,4.1376 0,0 23.84242,12.93 51.31304,-24.30841 27.47061,-37.2384 -35.24533,-15.516 -35.24533,-15.516 l -30.06218,7.75801 -1.55495,-12.41281 z"
       id="path10" />
    <path
       style="fill:#000000;stroke-width:3.5"
       d="m 181.72716,326.90864 2.0025,-75.5945 33.0413,-2.50313 -0.50062,78.59825 z"
       id="path11" />
    <path
       style="fill:#000000;stroke-width:3.5"
       d="m 314.89362,245.80726 -68.08511,62.0776 -4.00501,36.54568 91.1139,-79.5995 z"
       id="path12" />
    <path
       style="fill:#000000;stroke-width:3.5"
       d="m 156.19524,347.43429 -1.00125,-34.04255 -66.583227,-65.08135 -40.050062,-2.50313 34.042553,65.08135 z"
       id="path13" />
    <path
       style="fill:#000000;stroke-width:3.5"
       d="M 310.88861,156.69587 250.31289,97.622028 311.88986,134.16771 Z"
       id="path14" />
    <path
       style="fill:#000000;stroke-width:3.5"
       d="m 220.27534,199.74969 -15.5194,28.53567 34.54318,-7.50939 z"
       id="path15" />
    <path
       style="fill:#000000;stroke-width:3.5"
       d="m 277.84731,126.65832 12.01502,13.01627 2.0025,-23.02878 z"
       id="path16" />
    <path
       style="fill:#000000;stroke-width:3.5"
       d="m 302.37797,254.81852 -17.02127,14.01753 35.0438,19.02377 z"
       id="path17" />
  </g>
</svg>
