<?xml version="1.0" encoding="UTF-8" standalone="no"?>
<!-- Created with Inkscape (http://www.inkscape.org/) -->

<svg
   version="1.1"
   id="svg1"
   width="1444"
   height="1144"
   viewBox="0 0 1444 1144"
   sodipodi:docname="damage_upscayl_4x_upscayl-standard-4x.png"
   xmlns:inkscape="http://www.inkscape.org/namespaces/inkscape"
   xmlns:sodipodi="http://sodipodi.sourceforge.net/DTD/sodipodi-0.dtd"
   xmlns="http://www.w3.org/2000/svg"
   xmlns:svg="http://www.w3.org/2000/svg">
  <defs
     id="defs1" />
  <sodipodi:namedview
     id="namedview1"
     pagecolor="#ffffff"
     bordercolor="#000000"
     borderopacity="0.25"
     inkscape:showpageshadow="2"
     inkscape:pageopacity="0.0"
     inkscape:pagecheckerboard="0"
     inkscape:deskcolor="#d1d1d1">
    <inkscape:page
       x="0"
       y="0"
       width="1444"
       height="1144"
       id="page2"
       margin="0"
       bleed="0" />
  </sodipodi:namedview>
  <g
     inkscape:groupmode="layer"
     inkscape:label="Image"
     id="g1">
    <path
       style="fill:#000000"
       d="m 831,1140 c 0,-0.55 0.47656,-1 1.05902,-1 0.58246,0 0.7809,0.45 0.44098,1 -0.33992,0.55 -0.81648,1 -1.05902,1 -0.24254,0 -0.44098,-0.45 -0.44098,-1 z m 28.25,-0.7433 c 4.2625,-0.1875 11.2375,-0.1875 15.5,0 4.2625,0.1874 0.775,0.3408 -7.75,0.3408 -8.525,0 -12.0125,-0.1534 -7.75,-0.3408 z m 32.5625,-3.9398 c 0.72187,-0.2889 1.58438,-0.2534 1.91667,0.079 0.33229,0.3323 -0.25834,0.5687 -1.3125,0.5253 -1.16495,-0.048 -1.4019,-0.285 -0.60417,-0.6042 z m -296.98375,-2.8215 c -0.20365,-0.2036 -20.40344,-0.5533 -44.88842,-0.7771 -38.63498,-0.3531 -44.90945,-0.6209 -47.47923,-2.0265 -1.62861,-0.8909 -4.45609,-2.3306 -6.28329,-3.1994 -1.82721,-0.8687 -4.90538,-3.0225 -6.84038,-4.786 -4.85743,-4.427 -24.36893,-23.8195 -26.94654,-26.7822 C 458.81266,1090.8114 446.87454,1080 445.91131,1080 445.41009,1080 445,1079.5378 445,1078.9728 c 0,-0.565 -2.74892,-3.6025 -6.10871,-6.75 C 425.66939,1059.8362 421,1055.0897 421,1054.0362 c 0,-0.6044 -0.75119,-1.3872 -1.6693,-1.7395 -0.91812,-0.3524 -6.95719,-5.9632 -13.42017,-12.4687 -6.46297,-6.5054 -12.25828,-11.828 -12.87845,-11.828 -1.45222,0 -5.82349,-4.7089 -7.65843,-8.25 -0.78375,-1.5125 -1.86345,-2.75 -2.39933,-2.75 -0.53588,0 -0.97432,-0.6861 -0.97432,-1.5248 0,-0.8386 -1.0125,-1.9235 -2.25,-2.4109 -1.2375,-0.4874 -3.825,-2.7892 -5.75,-5.115 -1.925,-2.3258 -4.34955,-4.9534 -5.38789,-5.839 -1.03833,-0.8857 -4.07583,-3.78124 -6.75,-6.43462 -2.67416,-2.65337 -4.86211,-4.5454 -4.86211,-4.2045 0,0.34089 -2.475,-1.95603 -5.5,-5.10427 -3.025,-3.14825 -5.5,-6.02241 -5.5,-6.38704 C 346,978.99097 329.05246,962 328.06608,962 c -0.46709,0 -1.13624,-1.1434 -1.48699,-2.5409 -0.35075,-1.39749 -1.05195,-2.28489 -1.55823,-1.97199 -0.50628,0.3129 -1.39261,-0.31322 -1.96963,-1.39138 -0.57701,-1.07815 -1.94958,-2.24608 -3.05017,-2.59539 C 318.90048,953.15103 318,952.27527 318,951.55422 c 0,-0.72105 -2.3625,-3.13667 -5.25,-5.36805 -2.8875,-2.23138 -6.375,-5.50479 -7.75,-7.27425 -2.28077,-2.93508 -48.61496,-49.368 -71.50521,-71.65755 C 228.27266,862.16927 224,857.55677 224,857.00437 224,856.45196 223.46366,856 222.80813,856 c -0.65552,0 -2.87034,-1.8 -4.92181,-4 -2.05146,-2.2 -4.21512,-4 -4.80813,-4 -0.593,0 -1.07819,-0.37423 -1.07819,-0.83163 0,-0.70614 -6.9856,-8.22504 -21.31371,-22.94088 C 186.91539,820.35456 140.66891,774.15106 131.90416,765.5 112.20789,746.05923 99.078598,732.89743 79.303645,712.76927 67.09565,700.34322 55.73315,689.36473 54.053645,688.37262 52.37414,687.38051 51,686.23899 51,685.83591 c 0,-0.40307 -1.0125,-1.85138 -2.25,-3.21844 -1.2375,-1.36707 -3.7125,-4.1054 -5.5,-6.08518 C 41.4625,674.5525 40,672.49783 40,671.96634 40,671.43485 39.325,671 38.5,671 c -0.825,0 -1.5,-0.58515 -1.5,-1.30032 0,-1.58785 -11.170473,-13.2985 -12.32433,-12.92031 -0.453381,0.1486 -0.577149,-0.12976 -0.275039,-0.61859 0.641456,-1.0379 -2.888799,-8.72642 -4.449785,-9.69116 -1.064205,-0.65771 -6.312697,-11.08314 -6.529322,-12.96962 -0.06316,-0.55 -0.373985,-1.675 -0.690731,-2.5 -3.2430864,-8.44698 -4.8218343,-13.85928 -4.9244763,-16.88218 -0.067563,-1.9898 -0.935632,-5.53032 -1.929042,-7.86782 -0.9934099,-2.3375 -1.4846917,-4.25689 -1.0917373,-4.26531 0.3929544,-0.008 0.054555,-0.43268 -0.7519989,-0.9428 -0.9296369,-0.58796 -1.936324,-0.53753 -2.75,0.13776 C 0.24385171,602.04251 0,596.74948 0,573.31922 v -28.92567 l 4.9844509,-2.44677 c 2.741448,-1.34573 4.991448,-2.8025 5,-3.23727 0.015192,-0.77233 3.9446951,-6.71749 5.0956621,-7.70951 0.319062,-0.275 1.216412,-1.9625 1.994111,-3.75 C 17.851923,525.4625 18.828373,524 19.244111,524 19.65985,524 20,523.42529 20,522.72286 c 0,-0.70243 1.2375,-2.64099 2.75,-4.30792 1.5125,-1.66693 3.342001,-4.15526 4.065557,-5.52961 0.723556,-1.37436 2.861056,-4.18584 4.75,-6.24773 C 33.454501,504.5757 35,502.53349 35,502.09934 c 0,-0.43415 0.889388,-1.59425 1.976419,-2.578 1.08703,-0.98375 1.735472,-2.17849 1.440983,-2.65499 C 38.122912,496.38986 38.328199,496 38.873595,496 c 0.545396,0 1.25212,-0.82073 1.570498,-1.82385 0.318377,-1.00312 3.723701,-5.01262 7.567387,-8.91 C 51.855166,481.36877 55,477.6895 55,477.09 c 0,-0.5995 0.471429,-1.09 1.047619,-1.09 0.576191,0 3.297619,-2.25 6.047619,-5 2.75,-2.75 5.428572,-5 5.952381,-5 C 68.571429,466 69,465.55144 69,465.0032 c 0,-0.54824 2.1375,-3.14609 4.75,-5.77298 5.253116,-5.28207 11.525299,-12.80558 12.158032,-14.58362 0.224417,-0.63063 1.236917,-1.73462 2.25,-2.4533 C 89.171114,441.47461 90,440.23711 90,439.4433 90,438.64948 90.644676,438 91.432612,438 c 0.787937,0 1.718262,-0.9 2.067388,-2 0.349126,-1.1 1.231306,-2 1.960399,-2 0.729093,0 1.584645,-0.675 1.901227,-1.5 0.316583,-0.825 1.234403,-1.5 2.039602,-1.5 0.805202,0 1.749642,-0.9 2.098772,-2 0.34913,-1.1 1.26362,-2 2.0322,-2 0.76859,0 1.8791,-0.9 2.4678,-2 0.5887,-1.1 1.61703,-2.02081 2.28518,-2.04624 0.66815,-0.0254 2.11482,-1.19201 3.21482,-2.59239 1.1,-1.40038 2.56959,-3.06707 3.26575,-3.70376 0.69616,-0.63668 3.63333,-3.40761 6.52705,-6.15761 2.89372,-2.75 9.74913,-9.05 15.23425,-14 10.39493,-9.38081 10.97776,-9.96611 16.1219,-16.19005 C 164.00031,366.57584 166.30187,364 167.22224,364 c 0.42777,0 1.58453,-0.7875 2.57059,-1.75 0.98605,-0.9625 4.65322,-4.225 8.14927,-7.25 3.49604,-3.025 7.52677,-6.78979 8.95717,-8.36619 1.4304,-1.57641 4.51323,-4.87104 6.85073,-7.32142 2.3375,-2.45037 4.25,-4.82405 4.25,-5.27483 C 198,332.79809 213.62929,317 214.85552,317 c 0.58722,0 11.91154,-10.8 25.16514,-24 13.2536,-13.2 24.52088,-24 25.0384,-24 0.51752,0 0.94094,-0.675 0.94094,-1.5 0,-0.825 0.59237,-1.5 1.31637,-1.5 0.724,0 3.3115,-2.3199 5.75,-5.15534 7.30386,-8.49277 25.11904,-25.8481 25.98415,-25.31343 0.44302,0.27379 1.09321,-0.40872 1.44487,-1.51671 0.35166,-1.10799 1.03195,-2.01452 1.51175,-2.01452 0.86824,0 13.66605,-13.01409 22.07879,-22.45192 2.42774,-2.72355 6.85817,-7.22355 9.84541,-10 C 348.82952,185.70118 371,162.51712 371,160.78472 c 0,-0.43159 0.3375,-0.69191 0.75,-0.57848 1.39668,0.38408 7.49732,-5.43014 58.25,-55.51525 5.775,-5.699038 12.075,-12.138577 14,-14.310085 3.35069,-3.779766 6.91377,-6.937832 13.96875,-12.380905 1.78219,-1.375 3.8683,-3.094643 4.6358,-3.821429 0.7675,-0.726785 1.39545,-0.975055 1.39545,-0.55171 0,0.910849 13.76675,-13.127899 19.5,-19.885274 2.2,-2.592984 4.31472,-4.720607 4.69938,-4.728051 0.38465,-0.0074 2.76448,-1.9643 5.2885,-4.348568 2.52403,-2.384267 6.48431,-5.376052 8.80063,-6.648412 9.38087,-5.152928 13.28673,-7.008388 14.76149,-7.012371 0.8525,-0.0023 1.9775,-0.383613 2.5,-0.847358 0.5225,-0.463745 3.5375,-1.630628 6.7,-2.593072 3.1625,-0.962445 5.75,-2.089673 5.75,-2.504953 0,-1.040887 11.23191,-5.911336 15.5,-6.721204 3.91174,-0.742249 9.08047,-0.477078 14.79277,0.758914 4.65742,1.007745 7.04472,1.004555 12.18049,-0.01628 6.25798,-1.243888 11.83642,-0.806919 14.22437,1.11422 2.06221,1.659073 7.33339,2.024552 9.02203,0.625545 1.72519,-1.429285 26.49044,-1.983091 25.62468,-0.573025 -0.25225,0.410837 0.57958,0.362912 1.84851,-0.1065 1.26893,-0.469413 3.88215,-0.755891 5.80715,-0.636619 1.925,0.119273 3.98334,-0.159708 4.5741,-0.619958 0.59075,-0.460249 2.16575,-0.604375 3.5,-0.32028 2.33018,0.496156 41.10019,1.705427 51.4259,1.60402 2.75,-0.02701 9.05,0.01713 14,0.09809 8.69402,0.142187 12.60187,0.109024 26.5,-0.224889 8.2481,-0.198166 8.21727,-0.2014 7.60028,0.79691 -0.28477,0.460762 4.97617,0.854257 11.69098,0.874433 6.71481,0.02018 17.15874,0.334881 23.20874,0.699343 26.52021,1.597624 26.5,1.598267 26.5,-0.844137 0,-2.107805 0.25926,-2.169749 6.16616,-1.473269 3.39138,0.399876 6.87888,0.579873 7.75,0.399993 0.87111,-0.17988 3.38384,-0.726304 5.58384,-1.214274 2.2,-0.48797 5.35,-0.675065 7,-0.415765 3.95103,0.620911 13.32823,0.599202 21.90421,-0.05071 3.79732,-0.287771 8.12718,-0.0616 9.62191,0.502597 1.92552,0.726801 5.01408,0.649805 10.59579,-0.264149 8.49764,-1.39141 11.16864,-1.554378 18.87809,-1.151826 2.75,0.143593 6.0115,0.02587 7.24779,-0.26161 2.27107,-0.528103 8.32972,-3.63114 9.25221,-4.738672 2.31865,-2.783759 15.37823,-4.4660639 16.85909,-2.17175 0.91963,1.424814 6.925,4.368418 10.01164,4.907332 4.26894,0.745338 10.47983,2.382385 12.62927,3.328783 1.1,0.48433 4.2362,1.68938 6.96934,2.677888 2.73313,0.988509 6.54078,2.598459 8.46144,3.577666 C 960.85144,26.19883 963.02929,27 963.77046,27 c 0.74117,0 1.10904,0.385952 0.8175,0.857671 -0.29153,0.471718 1.4803,1.891638 3.93741,3.155377 4.42546,2.2761 11.65207,8.786495 16.47463,14.841868 9.43829,11.851048 25.7409,28.527467 28,28.641945 0.5554,0.02814 10.8072,7.946786 12.7077,9.815592 2.9499,2.900778 9.2923,10.475027 9.2923,11.097127 0,0.377255 1.0273,1.676931 2.2829,2.888169 1.2555,1.211238 3.0791,3.459841 4.0523,4.996881 0.9732,1.53705 2.7769,3.17768 4.0082,3.64583 1.2313,0.46815 2.8379,1.57307 3.5701,2.45536 0.7323,0.8823 1.9513,1.60418 2.7089,1.60418 0.7577,0 1.2762,0.3375 1.1523,0.75 -0.268,0.89233 4.6242,6.25 5.707,6.25 1.2158,0 15.9991,16.39846 17.9157,19.87309 1.408,2.55265 13.9607,14.08818 15.3526,14.10858 0.6875,0.0101 1.25,0.69333 1.25,1.51833 0,0.825 0.3393,1.5 0.7541,1.5 1.1268,0 12.107,10.79927 17.2459,16.96158 5.908,7.08467 13.7796,14.92966 23.5599,23.48023 10.1217,8.84912 14.1053,12.84478 19.0007,19.05819 4.6872,5.94916 20.4925,21.91329 25.4394,25.69499 1.925,1.4716 8.9,7.91835 15.5,14.32611 6.6,6.40777 13.8,12.92192 16,14.47588 2.2,1.55396 4.6978,3.65286 5.5507,4.6642 0.8529,1.01135 3.1029,3.20677 5,4.87871 2.9772,2.6238 9.8892,10.14753 21.4493,23.3476 1.65,1.88407 6.597,6.84265 10.9934,11.01905 14.1795,13.47011 19.299,18.80546 21.8194,22.73939 3.383,5.28043 7.1205,9.20996 14.1872,14.91645 7.5503,6.09695 12.9725,10.89921 17.6942,15.67108 4.661,4.71055 14.8058,17.38464 14.8058,18.49723 0,2.19175 15.5871,18.26931 17.712,18.26931 0.7084,0 1.288,0.34015 1.288,0.75589 0,0.6959 2.9418,2.15504 7.25,3.59601 0.9625,0.32193 1.75,1.27445 1.75,2.11672 0,0.84226 0.3709,1.53138 0.8242,1.53138 1.878,0 17.1758,17.53738 17.1758,19.69023 0,0.72037 0.343,1.30977 0.7622,1.30977 0.4192,0 3.8498,2.925 7.6236,6.5 3.7738,3.575 7.2558,6.5 7.7378,6.5 0.482,0 0.8764,0.45 0.8764,1 0,0.55 0.5027,1 1.117,1 0.6144,0 2.8639,1.8 4.9989,4 2.135,2.2 4.2401,4 4.678,4 0.7346,0 8.0945,7.48385 19.2506,19.57472 2.4995,2.7089 5.6003,7.11066 6.8907,9.78168 1.2904,2.67102 4.2678,6.83352 6.6163,9.25 4.0943,4.21266 5.1138,4.62316 11.9485,4.81111 l 3,0.0825 0.2566,71.5367 0.2565,71.5367 -2.1196,0.15967 c -2.5864,0.19483 -3.8554,1.37585 -2.1373,1.98924 0.691,0.24668 0.9998,0.86353 0.6863,1.37077 -0.3135,0.50724 -1.2485,0.24381 -2.0777,-0.58541 -2.1244,-2.12441 -5.4515,-1.89198 -6.057,0.42313 -0.2777,1.06195 -1.0775,1.71107 -1.7774,1.44249 -1.6467,-0.63189 -4.5304,2.25776 -4.5304,4.53973 0,0.97359 -0.9008,2.85395 -2.0018,4.17857 -1.1009,1.32463 -4.06,4.88341 -6.5756,7.90841 -7.8496,9.43889 -14.8309,17.31734 -17.1726,19.37937 -1.2375,1.08971 -2.25,2.51784 -2.25,3.17361 0,1.36997 -8.4731,9.44702 -9.9103,9.44702 -0.5252,0 -1.2338,0.8785 -1.5745,1.95222 -0.7932,2.49917 -7.0303,8.75909 -9.5118,9.54671 -1.0456,0.33186 -2.1464,1.37622 -2.4462,2.32082 C 1373.676,711.59621 1351.0104,734 1349.0827,734 c -0.5672,0 -1.6888,1.27132 -2.4923,2.82515 -0.8035,1.55383 -3.4026,4.50266 -5.7757,6.55294 -2.3731,2.05028 -5.4854,4.94147 -6.9163,6.42485 -18.5503,19.23063 -23.5745,24.18088 -24.5496,24.1883 -0.6332,0.005 -2.0701,1.56613 -3.1932,3.46959 -1.1231,1.90346 -4.205,5.04459 -6.8488,6.98029 -2.6437,1.9357 -8.401,7.46582 -12.7938,12.28917 -6.9175,7.59543 -42.5252,43.52855 -46.5761,47.00173 -0.7903,0.67761 -3.0119,3.2224 -4.9369,5.65508 -1.925,2.43268 -4.4825,4.69182 -5.6833,5.0203 -1.2009,0.32849 -2.4362,1.39386 -2.7453,2.36749 -0.7118,2.24276 -23.8112,25.22511 -25.3536,25.22511 -0.6311,0 -1.6665,1.0125 -2.3008,2.25 -1.51,2.9454 -8.029,9.74393 -9.3699,9.77161 -0.5759,0.0119 -2.3971,1.684 -4.0471,3.71581 -1.65,2.0318 -5.25,5.90172 -8,8.59981 -2.75,2.6981 -5.45,5.3474 -6,5.88734 -0.55,0.53995 -9.1703,9.2603 -19.1563,19.37857 C 1142.3578,941.72141 1133.7096,950 1133.1256,950 c -0.5839,0 -1.6386,1.06686 -2.3437,2.37079 -1.6244,3.00424 -7.4689,9.62757 -8.5013,9.63429 -0.4294,0.003 -2.1702,1.46529 -3.8686,3.25 -1.6985,1.7847 -8.786,9.03888 -15.75,16.12038 -6.9641,7.08151 -12.662,13.26901 -12.662,13.75 0,0.481 -0.6447,0.87454 -1.4326,0.87454 -0.7879,0 -1.7183,0.9 -2.0674,2 -0.3491,1.1 -1.2162,2 -1.9267,2 -0.7106,0 -3.0241,2.1375 -5.1412,4.75 -5.326,6.5723 -24.6614,25.2315 -26.1564,25.2417 -0.6734,0 -1.8675,1.2458 -2.6535,2.7583 -1.6433,3.1621 -11.9311,13.25 -13.5125,13.25 -0.5821,0 -1.7287,1.2964 -2.5481,2.8809 -0.8194,1.5845 -2.8852,4.0551 -4.5908,5.4902 -1.7055,1.4351 -2.846,3.0217 -2.5345,3.5258 0.3116,0.5041 -0.2956,0.6911 -1.3493,0.4156 -1.3101,-0.3426 -2.2964,0.2402 -3.1196,1.8433 -1.5522,3.0226 -8.0596,9.8377 -9.4203,9.8658 -0.5759,0.012 -2.3971,1.6521 -4.0471,3.645 -7.1959,8.6911 -10.07186,11.6003 -12.30807,12.4505 -1.31201,0.4989 -2.61126,1.7704 -2.88724,2.8258 -0.27598,1.0553 -1.12484,2.1578 -1.88637,2.4501 -0.80894,0.3104 -1.14451,1.2746 -0.80713,2.3191 0.37628,1.165 0.27435,1.3712 -0.29255,0.5918 -0.62276,-0.8561 -2.15577,0 -5.39399,3 -2.48818,2.3079 -5.17662,5.1085 -5.97431,6.2237 -0.79769,1.1152 -2.80034,3.0352 -4.45034,4.2665 -1.65,1.2314 -4.03994,3.019 -5.31097,3.9724 -1.27103,0.9534 -4.68273,3.7585 -7.58156,6.2335 -2.89882,2.475 -6.13388,5.0542 -7.18902,5.7317 -1.05515,0.6774 -3.71845,2.4474 -5.91845,3.9333 -3.61664,2.4427 -5.24591,2.7796 -17,3.5151 -7.15,0.4474 -17.7542,0.7369 -23.56489,0.6433 -5.81069,-0.094 -10.98569,0.073 -11.5,0.3709 -1.03084,0.5965 -302.01145,0.896 -302.60636,0.3011 z M 799.99976,971.24037 c -2.3e-4,-1.5968 1.52596,-1.72738 18.5,-1.58288 10.17513,0.0866 18.50024,-0.13837 18.50024,-0.5 0,-0.36162 2.3625,-0.7067 5.25,-0.76685 5.06411,-0.10549 16.25,-1.0586 16.25,-1.38461 0,-0.23351 2.38805,-0.8343 7.8119,-1.96533 13.55853,-2.82735 21.47475,-6.91008 30.41367,-15.68561 2.32406,-2.28158 6.14906,-5.64572 8.5,-7.47587 2.35093,-1.83015 4.49943,-3.59387 4.77443,-3.91938 0.275,-0.32551 2.54255,-1.98093 5.039,-3.67871 7.30873,-4.97049 32.97972,-29.17507 56.3697,-53.14964 C 1003.0449,848.70461 1052.827,800 1054.3351,800 c 1.0154,0 28.5125,-27.66679 34.2196,-34.43083 1.6199,-1.91994 16.8953,-17.59613 33.9453,-34.836 17.05,-17.23986 32.2902,-32.895 33.8671,-34.78919 3.6752,-4.4146 14.5589,-15.59601 28.2977,-29.07177 15.7857,-15.48356 22.6972,-22.99683 26.7002,-29.02514 1.9528,-2.94089 5.851,-8.49707 8.6625,-12.34707 2.8116,-3.85 6.0191,-9.025 7.1278,-11.5 1.1087,-2.475 2.8404,-6.13067 3.8484,-8.12372 5.9315,-11.7289 9.0395,-39.66447 6.6058,-59.37628 -0.3396,-2.75 -0.8972,-7.25 -1.2393,-10 -0.6787,-5.45639 -5.0298,-19.64877 -6.2792,-20.48144 -0.428,-0.28521 -2.8654,-4.11856 -5.4165,-8.51856 -2.5511,-4.4 -4.6465,-7.5828 -4.6564,-7.07289 -0.01,0.50991 -2.7826,-2.86509 -6.1614,-7.5 -3.3788,-4.63491 -10.2413,-12.55101 -15.25,-17.59134 -5.0087,-5.04032 -10.9067,-11.28573 -13.1067,-13.87869 -5.0588,-5.96235 -6.6882,-7.588 -14.9921,-14.95708 C 1160.8958,437.97005 1141,418.23397 1141,417.22907 c 0,-0.46498 -1.7516,-2.16296 -3.8924,-3.7733 -2.1408,-1.61034 -4.8347,-4.30307 -5.9864,-5.98384 -1.8032,-2.63156 -51.3637,-52.98407 -65.6731,-66.72257 -2.7215,-2.61284 -5.3981,-5.20722 -5.9481,-5.76526 -0.55,-0.55805 -7.5805,-7.53143 -15.6233,-15.4964 -8.0428,-7.96498 -16.3678,-16.57339 -18.5,-19.12982 -5.717,-6.85445 -27.78927,-28.84704 -33.41309,-33.29241 -2.67907,-2.11768 -8.37936,-7.6057 -12.66732,-12.19559 -9.75913,-10.44632 -16.10863,-16.71731 -24.67497,-24.36988 -3.69405,-3.3 -7.71404,-6.9 -8.93333,-8 -1.21929,-1.1 -4.01038,-3.52216 -6.20244,-5.38257 C 932.07639,210.82921 923,201.97419 923,201.03395 c 0,-0.51401 -0.59059,-1.29443 -1.31242,-1.73426 -0.72183,-0.43983 -4.8311,-4.96219 -9.13171,-10.04969 C 908.25526,184.1625 904.12085,180 903.36829,180 902.61573,180 902,179.63679 902,179.19287 c 0,-1.15127 -12.17285,-9.93689 -17.77647,-12.82998 -8.96331,-4.62765 -19.00633,-5.87279 -56.72353,-7.03262 -33.4591,-1.02889 -147.85878,-1.05024 -167.5,-0.0313 -14.21514,0.73748 -53.04264,1.9244 -56,1.71186 -4.97361,-0.35744 -16.64531,0.2626 -17.95197,0.95366 -0.85141,0.4503 -3.76579,1.11602 -6.47638,1.47937 -2.7106,0.36335 -7.33643,1.76212 -10.27964,3.10837 -2.9432,1.34625 -5.58764,2.44773 -5.87651,2.44773 -2.17018,0 -13.39639,9.3541 -20.4155,17.01095 -4.675,5.09976 -10.06361,10.67106 -11.9747,12.38067 -6.02772,5.39226 -53.96296,52.49141 -56.86713,55.87526 -1.68941,1.96844 -17.46723,16.83737 -19.06072,17.96271 -0.98939,0.69873 -6.45196,6.67041 -12.13903,13.27041 -5.68706,6.6 -11.72857,13.125 -13.42558,14.5 -3.13614,2.54107 -10.97569,10.38838 -24.58454,24.60889 -4.15343,4.34011 -9.10343,9.14267 -11,10.67236 C 390.34225,338.18973 373,354.99819 373,355.58477 c 0,0.18587 -1.8,2.12005 -4,4.29817 -2.2,2.17812 -4,4.21999 -4,4.5375 0,0.3175 -1.6875,2.35941 -3.75,4.53757 -8.26645,8.73004 -14.85034,16.26322 -19.75,22.59765 -1.65,2.13316 -3.7875,4.6808 -4.75,5.66141 -0.9625,0.98061 -1.75,2.04545 -1.75,2.3663 0,0.56119 -2.69629,3.22858 -10.27679,10.16663 -1.95302,1.7875 -4.0022,3.25 -4.55374,3.25 -0.55154,0 -1.1528,0.40006 -1.33614,0.88902 -0.18333,0.48896 -2.35833,2.5629 -4.83333,4.60874 -2.475,2.04584 -7.88298,6.93328 -12.01774,10.86097 -4.13476,3.9277 -9.75976,8.93033 -12.5,11.11696 C 283.957,444.88468 251,477.8153 251,478.92714 c 0,0.38657 -2.26094,2.9236 -5.02431,5.63786 -4.23625,4.16094 -6.8336,7.24827 -14.24402,16.93106 -2.41761,3.15896 -6.70248,10.14966 -6.74474,11.00394 -0.0272,0.55 -1.13641,3.21928 -2.4649,5.93174 -1.32848,2.71246 -2.17566,5.31967 -1.88263,5.79381 0.29303,0.47413 0.0707,1.41883 -0.49405,2.09932 -0.56476,0.68049 -1.26719,2.34827 -1.56095,3.70619 -0.29377,1.35792 -1.508,5.61894 -2.69829,9.46894 -2.72776,8.82291 -3.50244,34.76038 -1.22862,41.13573 0.75803,2.12535 2.23699,6.78927 3.28659,10.36427 8.49736,28.94266 8.66087,29.36353 13.98578,36 1.98586,2.475 4.44387,6.15773 5.46224,8.18384 1.01837,2.02611 4.73009,6.52611 8.24826,10 3.51817,3.47389 9.65084,9.67849 13.62816,13.788 3.97731,4.10952 9.65799,9.73452 12.62372,12.5 11.18131,10.42636 20.69318,20.46374 25.77481,27.19884 1.55812,2.0651 10.14545,11.08066 19.08295,20.03457 8.9375,8.9539 16.25,16.69568 16.25,17.20395 0,0.50828 0.43938,1.07413 0.9764,1.25747 1.01422,0.34624 23.13161,21.83333 22.47379,21.83333 -0.2051,0 1.50035,1.8 3.78989,4 2.28955,2.2 4.44612,4 4.79239,4 0.34626,0 1.23165,1.125 1.96753,2.5 0.73588,1.375 1.9153,2.5 2.62094,2.5 0.70564,0 2.61605,1.9125 4.24537,4.25 1.62931,2.3375 7.59475,8.525 13.25653,13.75 10.3468,9.54859 24.89132,23.97068 38.94287,38.61508 4.16115,4.33671 8.8109,9.00992 10.3328,10.38492 1.52189,1.375 8.24232,8.16322 14.93428,15.08493 6.69197,6.92171 15.54221,15.45619 19.66721,18.96552 4.125,3.50932 8.12036,7.22978 8.87858,8.26768 1.71984,2.35424 16.98592,17.69609 36.62142,36.80318 8.25,8.02798 17.66231,17.47236 20.91624,20.98751 3.25393,3.51515 6.69025,6.84118 7.63627,7.39118 0.94602,0.55 4.35872,3.37444 7.58377,6.27653 3.22504,2.9021 6.3791,5.68832 7.00901,6.19162 2.93509,2.34512 27.34296,8.83 32.15663,8.54363 1.75894,-0.10464 3.19808,0.0932 3.19808,0.43961 0,0.34642 3.4875,0.69138 7.75,0.76658 21.15729,0.37323 41.34591,1.22327 42.24463,1.77871 C 645.54758,970.83842 646,970.61492 646,970 c 0,-0.61492 0.40176,-0.86974 0.89279,-0.56626 0.49103,0.30348 14.32853,0.75927 30.75,1.01288 32.36628,0.49985 84.74575,1.69018 85.03847,1.93251 0.0997,0.0825 8.5372,0.25166 18.75,0.37584 17.06528,0.20749 18.56872,0.0849 18.5685,-1.5146 z M 849.5,946.89045 c -6.05,-0.33526 -65.45,-0.47934 -132,-0.32019 -66.68359,0.15946 -123.70252,-0.10768 -127.02037,-0.59511 -9.86642,-1.44949 -17.87306,-5.61409 -28.38979,-14.76672 C 557.21773,926.96826 506.33546,877.02957 496.5,866.8349 488.57938,858.62501 471.2157,841.38853 465.43755,836 c -5.74805,-5.36046 -8.77236,-8.63129 -20.32685,-21.98379 -3.08588,-3.56609 -7.23037,-8.1637 -9.20996,-10.21691 -2.10316,-2.18138 -3.14234,-3.95471 -2.5,-4.26621 0.78564,-0.381 0.77341,-0.68926 -0.0429,-1.08047 -0.62818,-0.30106 -3.80981,-3.11356 -7.07029,-6.25 C 409.66564,776.21305 390.84475,759 389.98354,759 c -0.3139,0 -6.40112,-5.9276 -13.52714,-13.17244 C 355.97498,725.00462 351.20701,720.29978 337.1078,707 c -7.28824,-6.875 -15.13754,-14.3 -17.44288,-16.5 -2.30534,-2.2 -7.78554,-7.31628 -12.17822,-11.36952 -4.39269,-4.05324 -11.90728,-11.14074 -16.69911,-15.75 -4.79183,-4.60926 -9.149,-8.38048 -9.68261,-8.38048 -0.53361,0 -1.25167,-0.88682 -1.59569,-1.97072 -0.34401,-1.08389 -2.49294,-3.67139 -4.7754,-5.75 -2.28246,-2.0786 -6.3142,-6.02928 -8.95943,-8.77928 -2.64524,-2.75 -6.37663,-6.58887 -8.29199,-8.53081 C 255.56711,628.02724 254,626.11977 254,625.73035 c 0,-0.38941 -1.96417,-3.30054 -4.36483,-6.46918 -2.40065,-3.16864 -4.66778,-6.7321 -5.03806,-7.91879 -0.37029,-1.18669 -1.29823,-2.39745 -2.06209,-2.69057 -2.42249,-0.9296 -9.6512,-20.86896 -8.12062,-22.39955 0.31254,-0.31253 0.0239,-1.22419 -0.6415,-2.0259 -1.24326,-1.49803 -1.37652,-16.87649 -0.31076,-35.86196 0.52911,-9.42559 0.79176,-10.77766 3.08172,-15.8644 0.7428,-1.65 2.4939,-5.5482 3.89132,-8.66266 1.39743,-3.11446 2.88368,-5.81446 3.3028,-6 0.41911,-0.18554 2.45871,-2.81234 4.53245,-5.83734 3.83878,-5.59972 26.78871,-29.34598 43.81806,-45.33849 12.88629,-12.1017 39.82537,-38.75958 41.38337,-40.95137 2.29437,-3.22774 10.05605,-11.03257 21.59013,-21.71014 6.23824,-5.775 16.68887,-15.7875 23.22361,-22.25 6.53474,-6.4625 12.11324,-11.75 12.39666,-11.75 0.28343,0 1.73097,-1.2375 3.21676,-2.75 1.4858,-1.5125 3.57884,-3.48303 4.65121,-4.37895 1.07238,-0.89593 3.5605,-3.37093 5.52917,-5.5 1.96868,-2.12908 6.01868,-6.15505 9,-8.94661 C 419.83152,342.10211 431,330.00097 431,329.00733 c 0,-0.40785 1.84129,-1.96007 4.09176,-3.44935 2.25046,-1.48929 3.86641,-2.93314 3.59099,-3.20856 -0.27541,-0.27542 2.1565,-2.94366 5.40427,-5.92942 3.24776,-2.98576 5.88358,-5.68379 5.85736,-5.99561 -0.0262,-0.31183 1.66308,-1.81571 3.75398,-3.34196 2.0909,-1.52625 8.46827,-7.34418 14.17193,-12.92872 C 473.57396,288.56917 478.63646,284 479.12029,284 479.60413,284 480,283.50949 480,282.90998 c 0,-0.59952 3.825,-4.84675 8.5,-9.4383 4.675,-4.59154 8.5,-8.81448 8.5,-9.38429 0,-0.56982 1.2375,-1.69748 2.75,-2.50591 2.89624,-1.54805 5.51585,-3.96086 16.48875,-15.18713 3.70631,-3.79189 7.30631,-7.39124 8,-7.99856 0.69369,-0.60731 4.86125,-5.0713 9.26125,-9.91998 16.34106,-18.00739 24.47174,-26.42381 27.92889,-28.91041 1.47933,-1.06403 3.90052,-3.00037 5.3804,-4.30298 7.19072,-6.32932 23.11329,-10.0361 41.19071,-9.58922 4.675,0.11557 64.075,0.48697 132,0.82532 83.27694,0.41483 125.12846,0.97067 128.5,1.70663 2.75,0.60029 7.475,2.78819 10.5,4.862 4.85724,3.32992 29.56354,27.15378 46.5,44.83915 3.3,3.44592 7.25221,6.92086 8.7827,7.72209 1.53048,0.80123 2.55834,1.8198 2.28413,2.26348 -0.27422,0.44369 0.49857,1.35534 1.7173,2.0259 1.21873,0.67057 3.79087,3.23441 5.71587,5.69743 1.925,2.46302 4.85,5.52042 6.5,6.79422 4.41902,3.41147 12.6026,11.60082 25,25.01764 6.05,6.54749 11.86974,12.61741 12.93277,13.48873 1.06302,0.87131 3.36615,3.04671 5.11807,4.83421 1.75192,1.7875 3.42569,3.25 3.71949,3.25 0.29379,0 8.11567,7.7498 17.38187,17.22178 9.2663,9.47198 23.1478,23.43561 30.8478,31.03029 7.7,7.59468 24.125,23.88345 36.5,36.19727 12.375,12.31381 24.525,24.06645 27,26.11697 2.475,2.05052 4.3875,4.11195 4.25,4.58096 -0.1375,0.469 0.2022,0.85273 0.755,0.85273 0.5527,0 7.5271,6.4125 15.4987,14.25 7.9715,7.8375 20.3881,19.875 27.5923,26.75 7.2043,6.875 15.8674,15.4192 19.2514,18.9871 16.9775,17.90044 25.413,26.59827 27.9556,28.82505 2.8958,2.53608 7.6074,11.05562 9.5055,17.18785 1.0564,3.41288 1.7356,6.87317 2.748,14 0.2734,1.925 0.729,4.25155 1.0123,5.17011 1.1728,3.80161 1.4458,6.75411 1.3713,14.82989 -0.1104,11.95929 -1.3191,20.49819 -3.0535,21.57006 -0.4876,0.30139 -0.8934,1.53392 -0.9017,2.73896 -0.017,2.54677 -2.0892,8.84218 -3.5622,10.82481 -0.5583,0.75139 -2.3119,3.84117 -3.897,6.86617 -6.531,12.46391 -7.1965,13.40297 -15.2757,21.55425 -1.7875,1.80345 -3.25,3.61436 -3.25,4.02424 0,0.40987 -4.8375,5.55174 -10.75,11.42638 -9.7448,9.68238 -26.1206,27.02605 -25.4971,27.00405 0.1391,-0.005 -1.6578,1.67858 -3.9931,3.74108 -2.3353,2.0625 -5.7036,5.2125 -7.4852,7 -1.7816,1.7875 -3.3881,3.25 -3.57,3.25 -0.1818,0 -4.0989,3.6 -8.7046,8 -4.6057,4.4 -8.536,8 -8.734,8 -0.5654,0 -15.5277,14.51756 -40.1947,39 -12.4683,12.375 -25.5725,25.22516 -29.1205,28.5559 -3.5479,3.33075 -14.3951,14.13075 -24.1048,24 -9.7097,9.86926 -22.7597,22.98676 -29.00003,29.15001 -6.24028,6.16325 -12.97954,12.91325 -14.97613,15 -1.99659,2.08675 -5.03409,5.06973 -6.75,6.62886 -1.71591,1.55912 -3.11984,3.24662 -3.11984,3.75 0,0.50337 -0.6375,0.91523 -1.41667,0.91523 -0.77916,0 -1.56666,0.42133 -1.75,0.93629 -0.18333,0.51495 -6.14261,6.92745 -13.24285,14.25 -7.10023,7.32254 -15.48372,16.01371 -18.62997,19.31371 -3.14625,3.3 -7.68697,7.64734 -10.09048,9.66076 -4.02349,3.37047 -7.89995,7.21535 -26.29578,26.08162 -3.61584,3.7083 -6.57425,7.11944 -6.57425,7.58031 0,0.46087 -1.7673,2.81018 -3.92734,5.22069 -2.16003,2.41051 -3.6655,4.8064 -3.34549,5.32419 0.32002,0.5178 0.12246,0.65753 -0.43901,0.31052 -0.56148,-0.34701 -1.8571,0.2931 -2.87917,1.42248 -1.02207,1.12937 -4.11971,3.12296 -6.88365,4.43019 -8.1781,3.86793 -15.72193,5.04147 -28.02534,4.35969 z M 799.81396,887.5232 799.5,885.09752 759,884.38053 c -22.275,-0.39434 -56.1375,-0.68041 -75.25,-0.6357 -20.35345,0.0476 -34.75,-0.29698 -34.75,-0.83177 0,-1.07481 8.70692,-1.16566 89.15718,-0.93028 57.99349,0.16967 60.68196,0.0971 61.22136,-1.65266 0.3103,-1.00656 1.02465,-6.78012 1.58746,-12.83012 0.92277,-9.91948 5.67548,-46.76865 7.9966,-62 1.37825,-9.04422 2.15042,-11.82989 3.80629,-13.73158 3.43938,-3.94998 28.75422,-19.35289 49.23111,-29.95487 6.81864,-3.53037 16.29483,-4.60597 25.17955,-2.85801 14.2736,2.80816 40.66191,12.05681 52.82045,18.51267 1.375,0.73009 7.675,4.0763 14,7.43603 9.42753,5.00773 11.68021,5.85444 12.5,4.69836 2.71687,-3.8314 3.93531,-5.84202 9.15217,-15.1026 5.23103,-9.28574 27.19153,-44.89028 33.30653,-54 1.4768,-2.2 5.2822,-9.175 8.4565,-15.5 3.1742,-6.325 7.6813,-14.2 10.0158,-17.5 6.6198,-9.3579 12.569,-19.90197 12.569,-22.27662 0,-1.44401 -1.7407,-3.4538 -5.25,-6.06148 -2.8875,-2.14566 -9.975,-8.79673 -15.75,-14.78017 C 1008.2309,633.22393 1005.7564,630.93787 990.44414,618 973.39439,603.59409 969.07949,599.00901 965.42816,591.41758 963.54267,587.49749 962,583.59823 962,582.75256 c 0,-1.29694 -2.73183,-1.65139 -17.45518,-2.26477 -17.22796,-0.71772 -23.21124,-0.33757 -26.44192,1.68002 -3.19661,1.99632 -10.04589,-1.15605 -25.91413,-11.92693 -8.62883,-5.85698 -18.52585,-12.12799 -21.99339,-13.93557 -5.88206,-3.06623 -6.5188,-3.19576 -9.5,-1.93262 -1.75746,0.74463 -6.095,2.58277 -9.63897,4.08476 -3.54397,1.50198 -9.57332,3.38344 -13.39854,4.18103 -9.82754,2.0491 -10.31502,2.43092 -10.95284,8.57899 -1.52109,14.66204 -10.89287,39.61724 -19.42477,51.72429 -6.5872,9.34746 -16.28594,20.05129 -22.46906,24.79755 -7.96065,6.11072 -28.53081,16.08706 -37.02869,17.95859 -11.0199,2.42696 -28.23428,2.26923 -39.78251,-0.36452 -24.33113,-5.54908 -38,-7.25357 -38,-4.73855 0,0.77284 0.72318,1.40517 1.60707,1.40517 3.14307,0 33.94384,4.15985 36.89293,4.98263 5.73217,1.59926 -0.88771,1.06819 -18.99669,-1.52398 -9.76467,-1.39774 -17.84881,-2.41024 -17.96475,-2.25 -0.11595,0.16024 -1.20424,14.46635 -2.41843,31.79135 -1.21419,17.325 -2.65559,34.62503 -3.20312,38.44451 -1.79224,12.50241 -5.47588,17.75724 -19.91701,28.41225 -4.125,3.04352 -9.4077,7.58333 -11.73933,10.08846 -3.67645,3.95001 -4.24076,5.15233 -4.25,9.05515 -0.006,2.47521 0.67077,7.65021 1.50364,11.5 1.57313,7.27149 5.4579,31.97067 8.01836,50.98037 0.81346,6.0394 1.67747,11.6644 1.92002,12.5 0.24254,0.83559 0.95375,6.89805 1.58046,13.47213 0.85943,9.01529 1.54834,12.26384 2.80316,13.2182 1.54148,1.17237 1.53514,1.26766 -0.0863,1.29713 -1.93116,0.0351 -2.16417,0.82965 -0.85113,2.90241 0.66542,1.05044 5.1586,1.47837 19.23469,1.83191 10.10154,0.25372 29.39144,0.76195 42.86644,1.12939 13.475,0.36745 39.94128,0.54409 58.81396,0.39253 l 34.31395,-0.27557 z M 503.5,779.76816 c 9.35,-3.84992 18.8,-7.91922 21,-9.0429 7.57454,-3.86877 29.01179,-10.81409 35.22092,-11.411 7.3641,-0.70794 18.68629,0.89354 29.80709,4.21609 4.4154,1.31918 8.95271,2.1567 10.08292,1.86114 1.1302,-0.29555 3.57408,-3.09204 5.43086,-6.21443 1.85677,-3.12238 6.904,-9.69948 11.21607,-14.61577 10.19481,-11.62335 18.72769,-23.8629 20.31642,-29.14184 2.13067,-7.07968 6.26467,-71.28399 5.19875,-80.74079 -0.35165,-3.11979 -1.92768,-6.84937 -4.82034,-11.407 C 624.97291,604.39648 624.14453,602.40356 621.87597,587 c -1.5663,-10.63521 -1.58547,-43.50086 -0.03,-51.46302 3.55904,-18.21831 22.25185,-42.21708 46.02809,-59.09318 11.95054,-8.48237 11.70171,-8.01087 12.47139,-23.63127 0.78751,-15.98232 -0.17874,-22.69723 -4.54118,-31.55858 -6.29827,-12.79361 -25.1327,-28.86822 -46.25096,-39.47379 -4.42931,-2.22439 -12.45827,-6.9839 -17.84214,-10.57669 -9.84734,-6.57136 -13.86478,-7.99846 -22.92597,-8.14386 -2.76419,-0.0444 -3.99662,0.46696 -4.81606,1.9981 -1.04125,1.94558 -0.89331,2.02669 2.71481,1.48857 3.44293,-0.51348 -3.94381,2.12867 -16.9645,6.06801 -6.26132,1.89433 -9.1475,1.08647 -26.53489,-7.42727 -29.66412,-14.52505 -30.59176,-14.87829 -47.48333,-18.08114 -8.98145,-1.703 -10.29578,-1.73278 -15.75724,-0.35703 -6.64853,1.67477 -13.19374,7.12585 -14.41931,12.00892 -0.37728,1.5032 -2.22467,4.61088 -4.10531,6.90596 C 459.53871,367.9588 458,370.32336 458,370.9183 c 0,0.59493 -0.33827,1.0817 -0.75172,1.0817 -0.41344,0 -1.8484,2.1375 -3.18879,4.75 -1.34039,2.6125 -2.97177,5.425 -3.6253,6.25 -0.65353,0.825 -1.78397,3.1875 -2.5121,5.25 -0.72813,2.0625 -1.64599,3.75 -2.03969,3.75 -0.3937,0 -2.1342,2.9115 -3.86778,6.47 -1.73359,3.55849 -5.17925,9.49319 -7.65703,13.18821 -2.47778,3.69503 -6.76552,11.02103 -9.52831,16.28001 -2.76279,5.25898 -5.36836,10.01178 -5.79016,10.56178 -2.51994,3.28586 -11.27133,21.57397 -12.10598,25.29834 -0.96331,4.2985 -0.88429,4.54706 2.4864,7.82063 1.91473,1.85957 4.51613,3.39534 5.78089,3.41283 1.26477,0.0175 3.01637,0.58 3.89247,1.25 2.9852,2.28299 13.21225,11.20131 22.31899,19.46288 4.99846,4.53458 12.68811,10.83458 17.08811,14 12.60664,9.06941 18.09712,15.06164 20.09386,21.93019 1.52339,5.24027 1.5981,8.89656 0.75242,36.82156 -0.67544,22.30365 -1.30222,31.56479 -2.23363,33.00357 -0.7121,1.1 -3.39126,3.44323 -5.95369,5.20719 -2.56243,1.76395 -7.35896,5.50103 -10.65896,8.30461 -3.3,2.80359 -11.85,9.55439 -19,15.00179 -12.09476,9.21467 -16.61152,13.56672 -20.84244,20.08233 -0.98971,1.52415 -3.38423,3.10483 -5.7997,3.82852 -3.96947,1.18928 -9.85786,6.34625 -9.85786,8.63336 0,1.08999 9.42973,19.97474 10.9564,21.9422 0.42678,0.55 1.9057,3.025 3.28648,5.5 5.99249,10.74132 9.86448,17.32827 13.07409,22.24142 3.0608,4.68535 10.21636,16.86983 17.47627,29.75858 1.39411,2.475 3.28698,5.625 4.20638,7 6.91943,10.34831 17.00492,26.1068 18.26912,28.54532 0.84248,1.62507 3.17578,4.6447 5.1851,6.71028 4.4779,4.60328 3.60155,4.75426 26.04616,-4.48744 z m 451,-219.58353 c 10.02018,-3.36256 10.67311,-4.50453 11.43993,-20.00828 L 966.5,528.8527 976,519.90845 c 5.225,-4.91934 13.325,-11.95877 18,-15.64319 4.675,-3.68441 14.1435,-11.43885 21.0412,-17.2321 6.8976,-5.79324 15.5396,-12.78316 19.2043,-15.53316 4.1048,-3.08022 6.6807,-5.74402 6.7089,-6.93776 0.025,-1.06578 -1.9061,-4.44078 -4.2915,-7.5 -5.0515,-6.47847 -10.4123,-15.55856 -17.4532,-29.56224 -2.7653,-5.5 -8.9538,-16.75 -13.7522,-25 -4.7983,-8.25 -10.85767,-18.85679 -13.46513,-23.57064 -2.60746,-4.71385 -5.80993,-10.33885 -7.1166,-12.5 -1.30667,-2.16115 -3.27231,-5.68776 -4.36809,-7.83691 -2.81916,-5.52926 -9.20877,-11.76874 -14.68313,-14.33816 l -4.67545,-2.19445 -6.83067,3.41724 c -4.71362,2.35813 -8.92082,3.63139 -13.57455,4.10818 -3.70913,0.38001 -6.74388,1.02537 -6.74388,1.43412 0,0.40875 -2.1375,1.26696 -4.75,1.90712 -2.6125,0.64016 -7,2.24303 -9.75,3.56192 -19.0146,9.11937 -31.88534,13.03958 -42.18475,12.84877 -9.0266,-0.16724 -15.01269,-2.14517 -25.41698,-8.39833 C 847.37865,358.22249 843.56309,356 843.41925,356 c -0.14383,0 -4.00951,-2.14147 -8.59038,-4.75883 -4.58088,-2.61735 -10.72162,-5.85844 -13.64609,-7.20242 C 814.26588,340.86 812.3078,336.7717 810.98847,322.75388 810.45768,317.11425 809.7981,310.7 809.52274,308.5 c -0.27536,-2.2 -1.21058,-9.85 -2.07827,-17 -1.76736,-14.56358 -6.20034,-44.11296 -6.99931,-46.65602 -0.3693,-1.17548 -2.03282,-1.78962 -5.73272,-2.11641 -2.86684,-0.25321 -37.72494,-0.52606 -77.46244,-0.60633 L 645,241.9753 v 2.84557 c 0,1.56506 -0.43862,5.28312 -0.97471,8.26235 -2.57564,14.31369 -5.1865,32.37926 -7.57532,52.41678 -1.44254,12.1 -3.24671,24.925 -4.00928,28.5 -1.61924,7.59113 -2.76151,6.07983 12.70446,16.80893 12.64763,8.77396 31.48867,24.94347 42.28872,36.29248 17.07305,17.94085 23.22395,29.51028 25.99702,48.89859 0.90465,6.325 2.07885,13.12704 2.60933,15.11564 1.40617,5.2713 6.64958,8.53498 15.95978,9.93394 13.13401,1.97352 20.80621,3.99234 32.10228,8.44718 21.10708,8.32402 32.57322,17.12659 43.64102,33.50324 3.53121,5.225 8.52105,12.43487 11.08854,16.02194 2.56749,3.58706 5.44814,7.61396 6.40146,8.94866 3.47184,4.86079 13.80291,1.50183 23.47372,-7.63206 4.13063,-3.90129 5.45773,-6.00078 6.85112,-10.83854 0.95048,-3.3 3.46373,-10.32657 5.585,-15.61459 5.92948,-14.78133 5.39128,-20.54893 -5.3046,-56.8466 -2.06397,-7.00429 -3.57532,-8.78104 -5.37539,-6.3193 -0.80443,1.10012 -1.95314,1.37433 -3.80756,0.9089 -3.23541,-0.81204 -3.51388,-2.62421 -0.40559,-2.63942 1.2375,-0.006 3.91051,-0.28555 5.94003,-0.62111 3.34597,-0.55321 4.02485,-0.24916 7.28091,3.26101 4.02841,4.34278 19.00831,25.68974 27.83911,39.67186 5.69141,9.01139 5.79772,9.31157 5.20598,14.69925 -0.69091,6.29072 -4.13904,17.31086 -6.57075,21 -1.53497,2.3287 -2.89074,5.84389 -5.90922,15.32126 -1.06885,3.35594 -0.99293,4.07783 0.62344,5.9282 5.19671,5.94899 8.06427,8.10994 27.8405,20.98009 22.24635,14.47767 30.00018,16.32428 46,10.95508 z M 961.5,1123 c 0.33992,-0.55 0.81648,-1 1.05902,-1 0.24254,0 0.44098,0.45 0.44098,1 0,0.55 -0.47656,1 -1.05902,1 -0.58246,0 -0.7809,-0.45 -0.44098,-1 z m 14.5,-11.7132 c 0.825,-0.3054 2.175,-1.0574 3,-1.6711 1.30346,-0.9695 1.32017,-0.8864 0.12756,0.6343 -0.75485,0.9625 -2.10485,1.7145 -3,1.6711 -1.36145,-0.066 -1.38231,-0.1698 -0.12756,-0.6343 z M 1071.5,1019 c 0.3399,-0.55 0.8165,-1 1.059,-1 0.2426,0 0.441,0.45 0.441,1 0,0.55 -0.4766,1 -1.059,1 -0.5825,0 -0.7809,-0.45 -0.441,-1 z M 1277,811.59106 c 0,-0.19039 0.675,-0.90637 1.5,-1.59106 0.8646,-0.71755 1.5,-0.81474 1.5,-0.22943 0,0.5585 -0.675,1.27447 -1.5,1.59106 -0.825,0.31658 -1.5,0.41982 -1.5,0.22943 z m 8,-11.97443 c 0,-0.89093 3.6867,-1.24656 5.516,-0.53209 1.5112,0.59024 1.0904,0.79164 -1.766,0.84517 -2.0625,0.0387 -3.75,-0.10223 -3.75,-0.31308 z M 53,715.60699 c 0,-0.21616 0.698372,-0.661 1.551938,-0.98855 0.889925,-0.34149 1.291322,-0.17385 0.940983,0.39301 C 54.905663,715.96166 53,716.4169 53,715.60699 Z m 1368,-52.01593 c 0,-0.19039 0.675,-0.90637 1.5,-1.59106 0.8646,-0.71755 1.5,-0.81474 1.5,-0.22943 0,0.5585 -0.675,1.27447 -1.5,1.59106 -0.825,0.31658 -1.5,0.41982 -1.5,0.22943 z M 20,661.94098 c 0,-0.58246 0.45,-0.7809 1,-0.44098 0.55,0.33992 1,0.81648 1,1.05902 C 22,662.80156 21.55,663 21,663 c -0.55,0 -1,-0.47656 -1,-1.05902 z m -8,-12 c 0,-0.58246 0.45,-0.7809 1,-0.44098 0.55,0.33992 1,0.81648 1,1.05902 C 14,650.80156 13.55,651 13,651 c -0.55,0 -1,-0.47656 -1,-1.05902 z M 8,641.5 c 0,-0.825 0.176855,-1.5 0.3930112,-1.5 0.2161562,0 0.652033,0.675 0.9686152,1.5 0.3165822,0.825 0.1397272,1.5 -0.3930112,1.5 C 8.4358768,643 8,642.325 8,641.5 Z M 1307.0789,351.41667 c 0.048,-1.16495 0.285,-1.4019 0.6042,-0.60417 0.2889,0.72187 0.2534,1.58438 -0.079,1.91667 -0.3323,0.33229 -0.5687,-0.25834 -0.5253,-1.3125 z m -108,-108 c 0.048,-1.16495 0.285,-1.4019 0.6042,-0.60417 0.2889,0.72187 0.2534,1.58437 -0.079,1.91667 -0.3323,0.33229 -0.5687,-0.25834 -0.5253,-1.3125 z m -28.8683,-30.01753 c -0.7092,-0.76953 -0.8483,-1.39914 -0.309,-1.39914 1.0384,0 2.5417,1.90221 1.9485,2.46567 -0.1925,0.18294 -0.9303,-0.297 -1.6395,-1.06653 z M 994.5,42 c -0.33992,-0.55 -0.14148,-1 0.44098,-1 0.58246,0 1.05902,0.45 1.05902,1 0,0.55 -0.19844,1 -0.44098,1 -0.24254,0 -0.7191,-0.45 -1.05902,-1 z"
       id="path1" />
  </g>
</svg>
