<?xml version="1.0" encoding="UTF-8" standalone="no"?>
<!-- Created with Inkscape (http://www.inkscape.org/) -->

<svg
   version="1.1"
   id="svg1"
   width="1062"
   height="269"
   viewBox="0 0 1062 269"
   sodipodi:docname="maxresdefault-1558731124.jpg"
   xmlns:inkscape="http://www.inkscape.org/namespaces/inkscape"
   xmlns:sodipodi="http://sodipodi.sourceforge.net/DTD/sodipodi-0.dtd"
   xmlns="http://www.w3.org/2000/svg"
   xmlns:svg="http://www.w3.org/2000/svg">
  <defs
     id="defs1" />
  <sodipodi:namedview
     id="namedview1"
     pagecolor="#ffffff"
     bordercolor="#000000"
     borderopacity="0.25"
     inkscape:showpageshadow="2"
     inkscape:pageopacity="0.0"
     inkscape:pagecheckerboard="0"
     inkscape:deskcolor="#d1d1d1">
    <inkscape:page
       x="0"
       y="0"
       width="1062"
       height="269"
       id="page2"
       margin="0"
       bleed="0" />
  </sodipodi:namedview>
  <g
     inkscape:groupmode="layer"
     inkscape:label="Image"
     id="g1">
    <path
       style="fill:#000000"
       d="M 649,258.57721 C 619.05542,253.18187 599.0678,243.04028 578.91555,223.01681 556.65817,200.90166 544.97823,176.25837 542.01548,145.16198 536.70308,89.404427 569.19019,37.028255 622,16.209783 c 15.45681,-6.093321 24.61061,-7.6563391 45,-7.6837853 17.1299,-0.023059 19.3046,0.1847606 29.36419,2.8061023 25.0159,6.518676 43.56515,17.37504 61.01187,35.708562 16.13566,16.955814 25.96487,34.932493 31.72143,58.015418 2.06355,8.27448 2.35331,11.79668 2.34006,28.44392 -0.0171,21.48205 -1.49504,30.07225 -8.00736,46.5408 -11.39482,28.81563 -33.40168,52.79632 -61.43019,66.93997 -7.34565,3.70675 -21.65985,8.5013 -31.5,10.55096 -10.73648,2.23636 -31.9276,2.77021 -41.5,1.04548 z m 34.87166,-8.1416 c 50.63961,-7.45369 91.5019,-47.93641 99.04721,-98.12716 1.53493,-10.21022 1.33837,-29.57137 -0.40152,-39.54864 C 776.34175,77.346318 752.62617,45.288882 720.41461,28.812698 687.23173,11.839687 647.88086,11.549785 614.74009,28.034184 567.18991,51.685903 541.5004,103.9728 551.5086,156.73176 c 5.55849,29.30199 24.7535,58.35614 49.3076,74.63347 25.43459,16.86103 53.80663,23.37554 83.05546,19.07038 z M 643.5,238.88002 c -7.41755,-1.70434 -16.95895,-5.14067 -23.89208,-8.60472 C 612.05544,226.50179 602,220.0978 602,219.06137 602,218.14549 609.41196,211 610.36199,211 c 0.42771,0 2.78044,1.37795 5.22828,3.06211 6.86371,4.72235 16.96774,9.1157 27.40973,11.91806 l 9.5,2.54955 0.2999,5.73514 c 0.2984,5.70632 0.28584,5.73464 -2.5,5.63469 -1.53994,-0.0553 -4.5999,-0.51404 -6.7999,-1.01953 z m 37.5,-4.69718 v -5.81715 l 7.66175,-1.80626 c 9.75724,-2.30028 18.99574,-6.12569 27.72279,-11.47927 l 6.88455,-4.2233 3.86545,3.77452 c 2.126,2.07598 3.86546,4.14862 3.86546,4.60586 0,1.4371 -15.17665,10.63937 -22.76625,13.80419 -7.57084,3.15699 -21.09942,6.91671 -24.98375,6.94322 -2.07723,0.0142 -2.25,-0.43132 -2.25,-5.80181 z m -22,-40.21422 c 0,-19.1374 -0.1576,-21.08477 -1.75,-21.62418 -0.9625,-0.32603 -4.20299,-1.67844 -7.20109,-3.00535 l -5.45109,-2.41257 -14.78801,14.76335 -14.788,14.76335 -5.52218,-5.45359 -5.52218,-5.45358 15.01776,-15.04126 c 13.90781,-13.92955 14.91722,-15.18772 13.65733,-17.02302 C 631.90431,152.3918 630.62669,149.475 629.81339,147 l -1.47871,-4.5 -21.16734,-0.26989 L 586,141.96022 V 133.98011 126 h 20.92245 20.92245 l 1.18736,-3.75 c 0.65305,-2.0625 2.06811,-5.28934 3.14458,-7.17076 l 1.95721,-3.42075 -14.7417,-14.766318 C 602.93385,80.406184 603.69764,82.520327 611.38769,74.735515 l 3.88768,-3.935593 14.77558,14.750939 14.77557,14.750939 4.47639,-2.104151 c 2.46201,-1.157284 5.65105,-2.398972 7.08674,-2.759309 L 659,94.783184 V 73.891592 53 h 8 8 v 20.866009 20.86601 l 5.96667,2.175558 c 3.28167,1.196557 6.26401,2.656658 6.62742,3.244673 0.37868,0.6127 7.12646,-5.386503 15.80635,-14.052849 l 15.14561,-15.121956 5.45358,5.522183 5.45359,5.522182 -14.77047,14.795134 -14.77047,14.795136 2.53409,5.44396 c 1.39375,2.99418 2.53849,6.23146 2.54386,7.19396 0.009,1.61221 1.70597,1.75 21.55183,1.75 h 21.54207 l -0.29207,7.75 -0.29206,7.75 -21.25,0.26989 c -19.62381,0.24923 -21.25,0.40639 -21.25,2.05365 0,0.98108 -1.16308,4.11777 -2.58463,6.97044 l -2.58462,5.18667 13.65559,13.74272 c 7.51057,7.55849 14.11738,14.29914 14.68179,14.97922 0.74901,0.90249 -0.26033,2.59532 -3.73663,6.26695 -2.61956,2.76675 -5.2972,5.03046 -5.9503,5.03046 -0.6531,0 -7.57288,-6.55562 -15.37729,-14.56804 l -14.18985,-14.56803 -5.15337,2.56803 C 680.92633,170.84438 677.79567,172 676.80366,172 675.12138,172 675,173.44682 675,193.5 V 215 h -8 -8 z m -81.23628,-0.26928 C 569.80907,181.71877 562.9577,164.7002 561.41874,153.09897 L 560.74234,148 h 5.94599 5.94598 l 1.79435,7.75 c 2.31133,9.98291 6.69263,20.58039 11.73193,28.37717 l 3.99888,6.18704 -4.40014,4.40015 -4.40015,4.40014 z m 169.57144,1.11113 -4.16484,-4.31047 2.52283,-3.5 c 1.38755,-1.925 4.46559,-7.55 6.84007,-12.5 3.78817,-7.89705 5.36377,-12.64499 7.88142,-23.75 0.59489,-2.62398 0.89755,-2.75 6.60441,-2.75 3.28952,0 5.98095,0.42058 5.98095,0.93462 0,2.29113 -3.08149,15.08722 -4.88277,20.27605 -2.63839,7.60019 -10.38983,22.49884 -13.84528,26.61128 L 751.5,199.12093 Z M 561.44383,114.71189 c 0.9659,-7.28129 5.23627,-20.186037 9.56641,-28.909002 C 575.1047,77.554704 580.62095,69 581.84509,69 c 0.41196,0 2.4594,1.751595 4.54987,3.892434 l 3.80086,3.892434 -4.04779,6.711326 c -5.08961,8.43869 -9.50168,18.978946 -11.72513,28.010846 -0.94683,3.84613 -1.90001,7.20115 -2.11819,7.45561 -0.21817,0.25446 -2.89767,0.50684 -5.95443,0.56086 l -5.55776,0.0982 z m 200.59456,4.31184 c -0.6315,-0.39029 -1.98243,-4.04803 -3.00207,-8.12832 C 756.49709,100.73427 752.51117,91.100953 747.88368,83.941318 745.74765,80.636478 744,77.589027 744,77.169206 c 0,-0.419821 1.82396,-2.542137 4.05325,-4.716258 L 752.10649,68.5 754.00795,71 c 7.246,9.52694 16.86153,32.52631 18.4442,44.11667 l 0.63041,4.61666 h -4.948 c -2.7214,0 -5.46468,-0.31932 -6.09617,-0.7096 z m -155.97043,-66.454482 -4.17287,-4.251849 3.30245,-2.506141 C 610.15625,42.048234 622.65491,35.450625 630.0829,32.675138 635.17947,30.770791 650.14537,27 652.60696,27 652.82313,27 653,29.691427 653,32.980948 c 0,5.707334 -0.12581,6.009381 -2.75,6.602461 -13.20223,2.983769 -25.1376,7.724463 -34.45786,13.686562 l -5.5513,3.551126 z M 714.60944,51.466679 C 706.74749,46.739131 693.70778,41.706151 683.75,39.555761 681.12272,38.988398 681,38.694985 681,32.980948 681,29.691427 681.17687,27 681.39304,27 c 2.63538,0 17.00471,3.723494 22.99864,5.959589 7.89447,2.945116 20.16292,9.510878 25.00515,13.382129 L 732.09645,48.5 727.79823,52.656376 723.5,56.812752 Z M 113,255.48582 C 69.69975,248.15153 33.136355,217.63721 18.021037,176.22025 11.356052,157.95776 9.07927,131.61443 12.545025,112.86047 22.025278,61.560731 62.974214,21.025175 113.5,12.924634 c 10.25934,-1.644827 29.74066,-1.644827 40,0 9.71923,1.558235 25.90726,6.748796 34.59609,11.092955 52.65649,26.326714 79.49057,85.411091 64.40019,141.798971 -12.58589,47.02936 -51.08159,81.94431 -98.89923,89.69993 -10.81772,1.75455 -30.1437,1.73994 -40.59705,-0.0307 z m 15.79569,-17.19665 -0.29569,-6.71082 -7.58511,-1.16945 c -12.38864,-1.91005 -11.95322,-1.58562 -10.32684,-7.69457 1.78057,-6.68808 1.75776,-7.71433 -0.17146,-7.71433 -5.44813,0 -24.057331,-9.79657 -31.778434,-16.72934 l -3.861844,-3.46754 -4.283076,4.20352 c -4.178636,4.10102 -4.328311,4.158 -6.138156,2.33658 -1.501725,-1.51132 -9.135702,-10.81494 -10.011592,-12.20125 -0.124414,-0.19691 -2.955772,1.3001 -6.291907,3.3267 l -6.0657,3.68471 3.257059,4.57953 c 17.060293,23.98728 51.093423,42.51162 81.05275,44.11726 L 129.09138,245 Z M 158,241.89247 c 14.09328,-3.24229 25.67779,-8.24803 37.5,-16.20399 7.11923,-4.79101 19.95337,-16.99902 25.69555,-24.44195 3.92611,-5.08896 4.01834,-5.37062 2.20113,-6.72166 -2.44371,-1.81684 -9.32974,-4.96076 -9.7058,-4.43134 -2.35217,3.31139 -10.32807,12.89995 -10.73267,12.90274 -0.29799,0.002 -2.50949,-2.00121 -4.91446,-4.45169 l -4.37267,-4.45543 -4.58554,3.82637 c -7.35848,6.14023 -16.63472,11.73564 -24.38214,14.70726 -3.96187,1.51963 -7.32849,2.83876 -7.48138,2.9314 -0.15289,0.0926 0.12163,1.24335 0.61004,2.55713 0.48841,1.31378 1.18746,4.02856 1.55344,6.03284 l 0.66541,3.64415 -4.77545,1.11126 c -2.6265,0.61119 -7.25046,1.45103 -10.27546,1.86632 l -5.5,0.75506 -0.29798,6.83997 -0.29798,6.83996 5.29798,-0.67644 C 147.11591,244.15238 153.325,242.968 158,241.89247 Z M 148.47866,204.75 c -1.13225,-3.08639 -6.37617,-34.10681 -5.89679,-34.88247 0.29489,-0.47714 1.19957,-0.86753 2.01039,-0.86753 2.42264,0 10.73034,-4.61185 13.33205,-7.40101 1.33338,-1.42945 2.73465,-2.59899 3.11395,-2.59899 0.3793,0 7.28879,5.175 15.35442,11.5 8.06563,6.325 14.84228,11.5 15.05922,11.5 0.94039,0 13.69935,-24.18352 13.08832,-24.80779 -0.37265,-0.38072 -8.33729,-3.39221 -17.6992,-6.69221 l -17.02166,-6 -0.15968,-10.71402 L 169.5,123.07195 186,116.45252 c 9.075,-3.64069 16.8319,-6.93628 17.23755,-7.32353 0.74231,-0.70864 -10.14752,-20.430854 -12.70819,-23.015399 -1.46417,-1.477813 -1.56246,-1.404943 -21.76718,16.136409 -4.27618,3.7125 -8.01666,6.75 -8.31217,6.75 -0.29551,0 -1.75516,-1.17074 -3.24365,-2.60164 -2.75049,-2.64406 -11.67884,-7.370792 -13.95636,-7.388591 -1.82107,-0.01423 -1.55066,-2.711171 2.08443,-20.789169 1.80039,-8.95367 3.06167,-16.49117 2.80284,-16.75 C 147.87844,61.21177 141.44167,61 133.83333,61 c -16.33318,0 -14.95755,-2.365177 -11.34153,19.5 1.36436,8.25 2.48686,15.704694 2.49443,16.565986 0.009,0.967224 -2.16191,2.467756 -5.67644,3.924444 -3.12962,1.29716 -7.32581,3.83612 -9.32486,5.64215 l -3.63466,3.28369 L 92.032793,97.958136 C 84.158179,91.381161 77.441867,86.003847 77.107656,86.008549 c -1.09246,0.01537 -14.334045,24.098391 -13.634608,24.797831 0.374484,0.37449 8.183746,3.46183 17.353916,6.86076 L 97.5,123.84701 l 0.02651,8.3265 c 0.01458,4.57957 0.376871,9.4684 0.805092,10.86406 0.768223,2.50381 0.545079,2.62357 -16.768475,9 -9.650883,3.55434 -17.550674,6.68884 -17.555092,6.96556 -0.0044,0.27673 2.912968,5.45173 6.483081,11.5 3.570113,6.04828 6.495113,11.33437 6.5,11.74687 0.02368,1.99841 3.141915,-0.0646 14.359429,-9.5 6.702265,-5.6375 12.956195,-10.8601 13.897625,-11.60578 1.48466,-1.17597 2.12994,-1.00385 4.86529,1.29779 3.74594,3.152 10.17468,6.55799 12.37809,6.55799 0.86417,0 1.81585,0.6375 2.11484,1.41666 0.299,0.77916 -0.61583,8.31666 -2.03295,16.75 -1.41711,8.43334 -2.57587,16.12084 -2.57501,17.08334 0.001,1.58596 1.35781,1.75 14.47019,1.75 11.15279,0 14.36352,-0.28647 14.01004,-1.25 z M 42.878273,182.83667 c 7.002206,-3.94013 6.588108,-3.55352 5.422517,-5.0625 -1.173321,-1.51899 -4.057987,-8.62961 -5.870943,-14.47171 l -1.302606,-4.19753 5.372012,-1.56169 5.372013,-1.56169 -0.685633,-3.74077 c -0.902737,-4.92529 -0.883766,-31.85462 0.0253,-35.92047 0.699561,-3.1288 0.624197,-3.20881 -4.709512,-5 L 41.080975,109.5 43.94448,101 c 1.574927,-4.675 2.794208,-8.557017 2.709512,-8.626705 C 44.668814,90.739893 34.823118,85.991285 34.20881,86.370948 32.917928,87.168757 28.367892,99.435586 25.815198,109 c -1.93753,7.25952 -2.267724,10.98095 -2.262561,25.5 0.0055,15.39024 0.262268,17.92641 2.711896,26.78349 C 28.931918,170.9279 35.212035,186 36.563205,186 c 0.381338,0 3.223119,-1.4235 6.315068,-3.16333 z m 192.481457,-5.65659 c 7.18518,-18.31381 9.70192,-35.53155 7.82528,-53.53496 -1.18318,-11.35076 -4.44155,-24.44951 -8.1897,-32.922814 l -2.07823,-4.698195 -4.96705,2.597196 c -2.73187,1.428457 -5.20094,2.975653 -5.48682,3.438213 -0.28587,0.46256 0.54129,3.452304 1.83814,6.643876 4.46114,10.978934 4.50669,10.735294 -2.39768,12.825774 l -6.05787,1.83417 0.8271,6.06833 c 1.05474,7.73852 1.05963,21.18093 0.0108,29.69436 l -0.81632,6.62602 5.81632,1.44643 c 6.93891,1.7256 6.96973,1.95547 1.94136,14.47877 l -3.33095,8.29585 5.10295,2.90291 c 3.13993,1.7862 5.5211,2.56569 6.18993,2.02631 0.59783,-0.48213 2.29557,-3.95714 3.77276,-7.72224 z M 54.424666,80.237357 c 0.307693,-0.969454 3.222349,-4.681954 6.477013,-8.25 L 66.819252,65.5 l 4.39114,4.262674 4.39114,4.262675 2.949234,-3.112529 C 84.21253,64.937574 98.32624,56.734907 107.75,53.942683 c 2.3375,-0.692592 4.24466,-1.300529 4.23813,-1.350971 C 111.9816,52.541271 111.31194,50.025 110.5,47 c -0.81194,-3.025 -1.4816,-5.554018 -1.48813,-5.620039 -0.0453,-0.458659 9.70052,-2.685425 14.10706,-3.223224 L 128.5,37.5 l 0.29569,-6.75 0.29569,-6.75 -4.79569,0.02164 c -6.61503,0.02985 -20.33138,3.195957 -30.001539,6.925167 -8.31457,3.206437 -21.726369,10.768899 -27.514886,15.514718 -10.136988,8.310989 -25.816077,26.059492 -25.764873,29.165464 0.01899,1.151678 9.012384,6.2349 11.16822,6.312468 0.925437,0.0333 1.934361,-0.732649 2.242054,-1.702102 z M 222.1016,79.25 c 2.693,-1.5125 4.89682,-3.118921 4.89738,-3.569825 0.002,-1.568246 -6.20967,-9.832228 -12.21887,-16.256084 C 197.94275,41.424898 175.45122,29.427793 151.38067,25.606488 145.81504,24.72292 140.73198,24 140.08498,24 c -0.81483,0 -1.08549,2.074449 -0.88067,6.75 0.29339,6.697469 0.31904,6.752134 3.29569,7.024213 1.65,0.150817 6.27655,0.972137 10.28121,1.825155 l 7.28122,1.550942 -0.67118,3.674845 c -0.36914,2.021165 -1.05315,4.7034 -1.52002,5.960522 -0.65481,1.763181 -0.45137,2.425753 0.88996,2.898442 11.27019,3.971659 20.88988,9.373699 29.55209,16.595298 l 4.81328,4.012785 4.43672,-4.354309 4.43672,-4.354309 4.31713,4.23694 c 2.37442,2.330317 5.41192,6.011906 6.75,8.18131 1.33808,2.169404 2.81655,3.956475 3.28549,3.971269 0.46894,0.01479 3.05598,-1.210603 5.74898,-2.723103 z M 378.92173,253.51386 C 320.52287,242.43266 279,192.77456 279,134.01531 279,101.4166 291.20044,72.100119 314.51905,48.666496 321.73673,41.413221 337,29.305039 337,30.832615 c 0,0.507372 -0.72834,1.526964 -1.61853,2.265758 -2.67647,2.221268 -10.85221,14.889883 -15.10747,23.40957 -12.36405,24.754772 -13.54035,46.627707 -3.62073,67.326397 3.53293,7.37195 5.98426,10.85891 11.66006,16.58611 C 337.98305,150.17775 344.76156,153.5 355,153.5 c 6.39567,0 8.19442,-0.4082 12.21611,-2.7723 9.63509,-5.66383 14.74718,-16.43782 15.5361,-32.74312 0.41376,-8.55151 0.12094,-12.04912 -1.56783,-18.727291 -2.31582,-9.157848 -7.09247,-19.476925 -11.47927,-24.798872 -2.81996,-3.421102 -12.36767,-10.440677 -16.02541,-11.782057 -1.5442,-0.566293 -0.72613,-1.86372 5.39335,-8.553648 l 7.21366,-7.886101 3.60664,2.069001 c 1.98366,1.13795 6.89016,5.409247 10.90333,9.491773 5.48017,5.57487 7.17493,6.83523 6.80762,5.062694 -0.26899,-1.298044 -0.78137,-4.159447 -1.13863,-6.358674 -0.79967,-4.922596 -4.88288,-14.794124 -7.68971,-18.590565 l -2.08601,-2.821478 10.85091,-12.294681 c 5.968,-6.762075 10.96927,-12.463687 11.11393,-12.670249 0.14466,-0.2065626 1.48822,1.080505 2.98569,2.860151 1.49747,1.779646 3.20347,3.754438 3.7911,4.388428 C 411.01303,23.394793 420,33.93455 420,34.458601 c 0,0.362718 -1.75946,4.345418 -3.90991,8.850444 C 412.67515,50.463079 410,59.292187 410,63.408886 c 0,0.720744 3.2661,-1.888905 7.25801,-5.799221 3.9919,-3.910316 8.93437,-7.995441 10.98326,-9.078057 l 3.72526,-1.968392 5.26674,5.885121 c 8.65502,9.67125 8.53281,8.794537 1.8048,12.947301 C 424.81734,74.173174 416.58124,90.017443 415.3322,111 c -0.68761,11.55117 0.65046,19.42269 4.71004,27.70803 12.893,26.31375 45.93851,17.58772 61.57718,-16.26013 5.21545,-11.28815 6.66861,-18.99686 6.11675,-32.4479 -0.72833,-17.75201 -6.52276,-32.599474 -19.41477,-49.747804 -7.40514,-9.849961 -8.28068,-11.197111 -6.26336,-9.637163 0.79308,0.613267 4.36696,3.311742 7.94196,5.99661 20.38086,15.30627 34.40121,33.40456 41.99332,54.207435 17.20026,47.129842 3.54003,104.127372 -32.47301,135.494142 -14.52094,12.6475 -29.65148,20.46796 -49.02031,25.33691 -12.7365,3.20171 -39.44158,4.16668 -51.57827,1.86373 z M 870.88845,249.75 C 869.70474,247.4125 866.3828,241 863.50635,235.5 860.6299,230 850.04841,209.3 839.99193,189.5 829.93544,169.7 819.74824,149.78406 817.3537,145.24235 814.95917,140.70064 813,135.86717 813,134.50131 c 0,-1.36585 3.98692,-10.24991 8.85983,-19.74234 C 826.73274,105.26654 836.91726,85.35 844.49211,70.5 852.06695,55.65 861.4377,37.309124 865.31599,29.742498 l 7.05144,-13.757503 61.89309,0.257503 61.89308,0.257502 6.7604,13 c 3.7182,7.15 15.4584,30.1 26.0893,51 10.6308,20.9 20.8291,40.90725 22.6628,44.46055 1.8336,3.55331 3.3339,7.76779 3.3339,9.36551 0,2.8809 -3.7351,10.57405 -29.9429,61.67394 -7.1931,14.025 -16.786,32.81163 -21.3177,41.74806 l -8.2394,16.24807 -61.22968,0.002 L 873.04065,254 Z M 971.972,226.25 c -0.0154,-0.4125 -6.65547,-13.79127 -14.75572,-29.7306 l -14.72773,-28.98059 -7.6961,0.14181 c -4.23286,0.078 -8.16182,0.42963 -8.73101,0.78141 -0.5692,0.35178 -6.27274,11.07924 -12.67454,23.83879 -6.40179,12.75955 -12.91465,25.5048 -14.473,28.32277 -1.55836,2.81798 -2.5515,5.40548 -2.20697,5.75 0.89893,0.89894 75.29868,0.77676 75.26507,-0.12359 z m -86.61206,-13 c 0.86741,-2.0625 6.99127,-14.27693 13.60858,-27.14318 C 905.58584,173.24057 911,162.14125 911,161.44167 c 0,-0.69959 -2.16125,-5.02265 -4.80278,-9.60682 L 901.39445,143.5 873.19722,143.23443 C 857.68875,143.08836 845,143.2694 845,143.63674 c 0,0.36733 6.92294,14.21184 15.3843,30.76557 8.46137,16.55373 16.79284,32.91019 18.5144,36.34769 1.72155,3.4375 3.52475,6.25 4.00712,6.25 0.48236,0 1.58672,-1.6875 2.45412,-3.75 z m 102.18125,1.4922 c 0.57265,-1.23321 9.02254,-17.8797 18.77751,-36.9922 L 1024.0551,143 h -27.336 -27.33599 l -5.86463,10.13861 -5.86463,10.1386 3.71336,7.1114 c 2.04234,3.91126 8.19737,15.99889 13.67784,26.86139 5.48046,10.8625 10.29984,19.74649 10.70972,19.7422 0.40987,-0.004 1.21376,-1.01679 1.78642,-2.25 z m -82.47827,-99.17951 5.7195,-9.93732 -13.53253,-26.562685 C 889.807,64.453208 883.43951,52.181055 883.09991,51.791233 c -0.33959,-0.389821 -3.86439,5.685179 -7.83289,13.5 C 871.29853,73.106055 862.87296,89.625 856.54353,102 c -6.32942,12.375 -11.51603,22.84473 -11.52579,23.26607 -0.01,0.42134 12.20953,0.64634 27.15397,0.5 L 899.34342,125.5 Z M 1005.4313,89.25 C 995.14829,69.0375 986.45708,52.186353 986.11747,51.803006 985.77786,51.41966 979.45563,62.90368 972.06807,77.323051 l -13.43192,26.217039 6.41209,11.22995 6.4121,11.22996 h 26.33363 26.33363 z M 958.11727,70.5 C 965.73303,55.65 971.97218,43.1625 971.98205,42.75 971.99192,42.3375 954.9,42 934,42 c -20.9,0 -38,0.349872 -38,0.777494 0,0.427621 0.60677,1.665121 1.34839,2.75 0.74161,1.084878 7.10867,13.350008 14.14903,27.255844 l 12.80065,25.283337 9.98618,-0.283337 L 944.27043,97.5 Z"
       id="path1" />
  </g>
</svg>
