<?xml version="1.0" encoding="UTF-8" standalone="no"?>
<!-- Created with Inkscape (http://www.inkscape.org/) -->

<svg
   version="1.1"
   id="svg1"
   width="583"
   height="590"
   viewBox="0 0 583 590"
   sodipodi:docname="immobilize.svg"
   inkscape:version="1.4.3 (0d15f75042, 2025-12-25)"
   xmlns:inkscape="http://www.inkscape.org/namespaces/inkscape"
   xmlns:sodipodi="http://sodipodi.sourceforge.net/DTD/sodipodi-0.dtd"
   xmlns="http://www.w3.org/2000/svg"
   xmlns:svg="http://www.w3.org/2000/svg">
  <defs
     id="defs1">
    <inkscape:path-effect
       effect="powerclip"
       message=""
       id="path-effect15"
       is_visible="true"
       lpeversion="1"
       inverse="true"
       flatten="false"
       hide_clip="false" />
    <filter
       id="mask-powermask-path-effect13_inverse"
       inkscape:label="filtermask-powermask-path-effect13"
       style="color-interpolation-filters:sRGB"
       height="100"
       width="100"
       x="-50"
       y="-50">
      <feColorMatrix
         id="mask-powermask-path-effect13_primitive1"
         values="1"
         type="saturate"
         result="fbSourceGraphic" />
      <feColorMatrix
         id="mask-powermask-path-effect13_primitive2"
         values="-1 0 0 0 1 0 -1 0 0 1 0 0 -1 0 1 0 0 0 1 0 "
         in="fbSourceGraphic" />
    </filter>
  </defs>
  <sodipodi:namedview
     id="namedview1"
     pagecolor="#ffffff"
     bordercolor="#000000"
     borderopacity="0.25"
     inkscape:showpageshadow="2"
     inkscape:pageopacity="0.0"
     inkscape:pagecheckerboard="0"
     inkscape:deskcolor="#d1d1d1"
     inkscape:zoom="1.7820858"
     inkscape:cx="313.3968"
     inkscape:cy="175.35631"
     inkscape:window-width="1920"
     inkscape:window-height="1008"
     inkscape:window-x="0"
     inkscape:window-y="0"
     inkscape:window-maximized="1"
     inkscape:current-layer="svg1" />
  <g
     inkscape:groupmode="layer"
     inkscape:label="Image"
     id="g1">
    <path
       id="path1"
       clip-path="none"
       style="display:inline;fill:#000000"
       d="M 289.96289 10.808594 C 285.40684 10.846757 280.50556 13.77619 276.77734 20.324219 C 272.74259 58.869584 271.67282 97.961208 266.63086 136.54102 C 274.46463 165.60028 243.1379 179.55151 224.71875 158.14648 C 212.99924 144.99192 175.17612 128.24989 170.87109 160.13086 C 153.13429 183.9185 181.92166 196.73161 200.87891 203.375 C 220.04366 214.27823 238.9167 227.3844 259.29883 233.88672 C 270.32475 236.40434 276.46401 234.81788 285 238.07422 C 287.07487 242.94965 290.56628 230.11038 289.90039 235.83008 C 292.80405 236.43476 295.54357 236.84265 298.125 237.04883 C 297.79014 237.38421 297.41449 237.84344 297 238.45508 C 299.00723 239.20513 299.97401 238.05955 300.05664 237.16602 C 306.30965 237.42358 311.58341 236.4046 315.96875 234 C 319.50391 236.53727 342.88554 221.57842 353.24219 212.62695 C 371.48243 206.74573 384.9059 193.61891 403.77539 187.24609 C 428.68585 168.66603 380.88451 121.44321 362.84766 156.88086 C 351.9403 170.11789 327.41967 175.23276 314.16016 168.45117 C 308.39604 123.06007 304.45993 77.126842 302.83203 31.339844 C 304.19008 18.711809 297.55631 10.744988 289.96289 10.808594 z M 470.81836 173.98242 C 468.26941 173.89877 465.56543 174.17838 462.68555 174.87695 C 443.2613 180.84932 431.81976 200.57653 411.08203 207.30664 C 385.71066 217.88656 366.94307 237.60245 344 251.19727 C 321.77566 263.11088 294.79826 260.69443 270.94141 258 C 247.21569 259.6622 217.70433 244.22644 201.93359 223.40039 C 178.27398 210.99297 156.0133 189.07609 128.46094 187.08203 C 109.08004 180.37088 85.725112 172.44117 77.818359 200.58203 C 61.317634 219.91177 57.713426 248.75108 58.150391 271.77344 C 90.961123 291.53577 125.37699 308.88477 158.45898 328.29883 C 186.95129 339.97492 211.08137 361.14866 222.70898 390.14062 C 242.85307 423.05469 237.04859 462.48928 237.44727 499.17969 C 238.3503 525.9207 234.49757 554.91482 240.38867 580.23047 C 272.12922 580.52619 303.89747 580.27721 335.62891 579.46094 C 341.25079 555.85368 338.57305 528.48221 340.4043 503.41992 C 343.20808 462.96205 335.27636 418.80427 358.32227 382.72461 C 371.60777 349.47092 405.6571 334.09997 434.32227 316.68555 C 454.23388 310.49959 475.13761 296.45679 497.25586 285.31836 C 523.97877 277.00655 530.44423 250.35692 516.95703 228 C 505.47046 209.5482 495.45824 174.79105 470.81836 173.98242 z M 420.26367 282.54297 C 420.35862 282.54368 420.49607 282.62445 420.68359 282.8125 C 421.45252 287.79159 419.49054 282.53716 420.26367 282.54297 z M 481.04883 316.35938 C 477.9345 316.48439 474.7592 317.71508 471.68359 320.38281 C 431.72864 342.9771 389.095 370.3258 370.3125 414.07812 C 361.00711 447.01237 366.56142 482.0494 364.97266 515.85742 C 357.88758 537.12386 395.73457 521.57493 404.77734 522.37695 C 406.61985 505.37216 406.32915 500.39187 409.46875 520 C 414.87997 500.71372 404.28443 478.91834 413.00195 458.7207 C 434.55988 438.02047 463.65742 473.39111 489.5 474.95898 C 515.045 484.81608 541.50943 497.47583 567.68945 502.36133 C 565.65675 479.29266 537.7539 468.91827 520.16211 456.73438 C 501.55535 442.3554 485.80646 423.23715 462.12695 414.99609 C 428.42097 388.68258 482.44223 371.83915 500.83789 358.80859 C 512.90249 347.24719 497.8662 315.68431 481.04883 316.35938 z M 101.01172 319.16797 C 81.994852 318.48295 64.959892 334.60369 73.753906 358.31836 C 88.387669 375.07464 141.06654 380.73726 119 409.16797 C 93.325509 425.03308 70.66249 444.8169 46.894531 463.39453 C 35.782748 474.2802 -2.8780559 486.22047 15.15625 503.97852 C 44.303293 494.13244 71.482742 478.3853 100.87695 468.53516 C 121.4321 464.69206 160.76379 433.49665 167.06641 468.66797 C 174.1805 483.95181 158.11801 519.2136 174.85938 525.20312 C 187.31801 525.58664 199.79038 524.981 212.25586 525 C 211.37686 490.34851 212.70377 455.51329 209.19336 421.0293 C 197.6506 380.00683 161.06759 352.1895 125.93359 331.38477 C 118.7103 323.26353 109.65575 319.47934 101.01172 319.16797 z M 326.81055 505.19531 C 327.41455 505.19967 328.15386 505.42126 329 506 C 324.12491 509.23745 324.1932 505.17643 326.81055 505.19531 z M 304.93164 507.15234 C 305.20716 507.15382 305.5035 507.30786 305.81055 507.67773 C 302.10241 514.59762 303.003 507.14201 304.93164 507.15234 z M 409.88086 522.88477 C 409.46332 522.90449 408.78253 523.03356 407.75 523.33789 C 408.56203 524.75995 411.6902 522.79928 409.88086 522.88477 z " />
    <path
       style="fill:#000000;stroke-width:3.5"
       d="m 409.28601,495.12293 2.34101,28.87242 h -12.87554 z"
       id="path2" />
    <path
       style="fill:#000000;stroke-width:3.5"
       d="m 290.28484,495.90326 v 37.84628 l 44.86929,-7.02302 1.17051,-40.18728 z"
       id="path3" />
    <path
       style="fill:#000000;stroke-width:3.5"
       d="m 223.17598,214.98245 c 0,0 55.79399,48.77098 101.83379,19.11823 46.0398,-29.65276 58.135,-39.40695 58.135,-39.40695 z"
       id="path4" />
    <path
       style="fill:#000000;stroke-width:3.5"
       d="m 216.93329,152.94577 c 0,0 14.04604,14.43621 34.72494,14.04605 20.67889,-0.39017 -27.31175,18.72805 -27.31175,18.72805 z"
       id="path5" />
    <path
       style="fill:#000000;stroke-width:3.5"
       d="m 104.1748,179.08702 c 0,0 27.31175,-2.73118 36.67577,8.97386 9.36403,11.70503 -33.55443,12.87553 -33.55443,12.87553 z"
       id="path6" />
    <path
       style="fill:#000000;stroke-width:3.5"
       d="m 426.84356,266.09443 -27.31174,24.97074 12.0952,7.02302 23.0199,-0.39016 -1.95084,-26.92158 z"
       id="path7" />
  </g>
</svg>
