<?xml version="1.0" encoding="UTF-8" standalone="no"?>
<!-- Created with Inkscape (http://www.inkscape.org/) -->

<svg
   version="1.1"
   id="svg1"
   width="703"
   height="623"
   viewBox="0 0 703 623"
   sodipodi:docname="poison.svg"
   inkscape:version="1.4.3 (0d15f75042, 2025-12-25)"
   xmlns:inkscape="http://www.inkscape.org/namespaces/inkscape"
   xmlns:sodipodi="http://sodipodi.sourceforge.net/DTD/sodipodi-0.dtd"
   xmlns="http://www.w3.org/2000/svg"
   xmlns:svg="http://www.w3.org/2000/svg">
  <defs
     id="defs1" />
  <sodipodi:namedview
     id="namedview1"
     pagecolor="#ffffff"
     bordercolor="#000000"
     borderopacity="0.25"
     inkscape:showpageshadow="2"
     inkscape:pageopacity="0.0"
     inkscape:pagecheckerboard="0"
     inkscape:deskcolor="#d1d1d1"
     inkscape:zoom="1.282504"
     inkscape:cx="351.65582"
     inkscape:cy="311.5"
     inkscape:window-width="1920"
     inkscape:window-height="1008"
     inkscape:window-x="0"
     inkscape:window-y="0"
     inkscape:window-maximized="1"
     inkscape:current-layer="g1" />
  <g
     inkscape:groupmode="layer"
     inkscape:label="Image"
     id="g1">
    <path
       style="fill:#000000"
       d="m 530.91667,609.59399 c -0.5824,-0.56751 -6.04776,-1.51707 -15.3456,-2.66618 -4.36092,-0.53896 -8.46596,-1.42561 -9.12232,-1.97034 -0.97972,-0.8131 -6.09721,-2.12366 -20.94875,-5.36485 -0.55,-0.12004 -3.025,-1.14425 -5.5,-2.27603 -2.475,-1.13179 -5.175,-2.3055 -6,-2.60824 -1.00307,-0.3681 -0.77416,-0.57661 0.69098,-0.6294 3.96193,-0.14276 3.40149,-1.87822 -1.1704,-3.62424 -2.47071,-0.94357 -4.97968,-2.30296 -5.57549,-3.02087 -0.59581,-0.71791 -2.51469,-1.61117 -4.26419,-1.98503 -1.74949,-0.37387 -3.7888,-1.17057 -4.53178,-1.77045 -0.74299,-0.59988 -2.08482,-1.19842 -2.98185,-1.33007 -0.89703,-0.13166 -1.77321,-0.66611 -1.94707,-1.18768 -0.17385,-0.52156 -1.19692,-0.71795 -2.27347,-0.43643 -1.07656,0.28153 -2.51749,0.0898 -3.20206,-0.42603 -0.68457,-0.51584 -3.15717,-1.54098 -5.49467,-2.27808 -2.3375,-0.73711 -4.25,-1.90646 -4.25,-2.59857 0,-0.69211 -1.62116,-2.26031 -3.60258,-3.4849 -1.98141,-1.22458 -5.24391,-3.75748 -7.25,-5.62867 -2.00608,-1.87119 -6.89675,-5.59694 -10.86814,-8.27943 -8.55894,-5.78117 -13.04726,-6.6459 -29.17328,-5.62058 -10.63402,0.67612 -12.06358,0.80238 -24.106,2.12903 -10.69274,1.17797 -27.29223,1.40599 -30.5,0.41898 -3.54028,-1.08933 -18.48612,-2.21637 -27,-2.03602 -6.5257,0.13823 -15.5,2.00119 -15.5,3.21762 0,1.50294 -4.78166,5.87638 -8.10633,7.41428 -1.86652,0.8634 -5.64367,2.89476 -8.39367,4.51412 -2.75,1.61937 -6.4625,3.70034 -8.25,4.6244 -1.7875,0.92405 -3.25,2.26138 -3.25,2.97183 0,2.02531 -3.95647,4.11976 -11.01363,5.83033 -3.56751,0.86471 -7.26776,2.00765 -8.2228,2.53986 -0.95504,0.53221 -2.84098,0.96765 -4.19098,0.96765 -1.35001,0 -2.74983,0.47776 -3.11071,1.06168 -0.36089,0.58393 -1.76766,1.48428 -3.12616,2.00078 -2.00557,0.76252 -2.32759,1.36201 -1.71263,3.18832 1.77863,5.2821 1.0962,7.14014 -3.12309,8.50322 -2.2,0.71072 -4.675,1.61029 -5.5,1.99904 -0.825,0.38876 -6.225,0.73151 -12,0.76168 -8.67423,0.0453 -11.80412,0.51187 -18,2.68311 -9.05527,3.17326 -24.33701,4.59633 -30.76652,2.86504 C 159.90507,607.43589 158,606.50438 158,605.99284 c 0,-0.51154 -0.58458,-0.70575 -1.29906,-0.43157 -2.25388,0.86489 -5.90721,-7.07905 -5.92457,-12.88259 -0.0288,-9.63561 1.28163,-20.89016 2.76678,-23.76213 1.93853,-3.74869 2.95222,-4.20466 16.20485,-7.28901 13.20053,-3.07224 28.8961,-8.85434 35.252,-12.98651 2.475,-1.60908 13.86064,-12.19907 25.30142,-23.53331 27.93422,-27.67409 34.85274,-37.92355 36.7342,-54.42 0.49986,-4.38272 0.63751,-8.40759 0.30589,-8.94415 -0.38421,-0.62168 -23.3188,-0.88399 -63.22222,-0.7231 -34.44061,0.13886 -63.6114,0.19106 -64.82398,0.116 -1.70887,-0.10578 -2.35974,-0.96298 -2.89415,-3.81164 -1.36875,-7.29608 2.38501,-16.83665 14.0488,-35.70647 3.54163,-5.72971 7.07091,-11.92531 7.84283,-13.768 0.77193,-1.8427 3.05414,-5.92766 5.07159,-9.0777 2.01745,-3.15003 5.23764,-8.85478 7.15598,-12.6772 1.91834,-3.82243 4.75162,-8.22013 6.29618,-9.77266 7.21186,-7.24913 17.35841,-26.44847 17.5745,-33.25456 0.0917,-2.88851 -0.42219,-3.74389 -3.24641,-5.40359 -3.05723,-1.79663 -5.23421,-1.96991 -24.5,-1.95013 -23.83744,0.0245 -38.65513,1.4834 -45.49682,4.47957 -2.5563,1.11947 -7.79781,3.05871 -11.64781,4.30941 -11.244448,3.65286 -17.651607,7.03027 -23.102263,12.17789 -2.806245,2.65024 -6.155121,5.49361 -7.441947,6.31861 -1.286826,0.825 -3.398762,2.5125 -4.693191,3.75 -1.29443,1.2375 -2.617419,2.25 -2.939976,2.25 -0.629872,0 -6.4437,5.98185 -8.546073,8.79305 -0.702103,0.93882 -2.028948,2.29542 -2.948545,3.01466 C 57.493983,382.6332 48.005153,386 45.194292,386 c -2.584533,0 -10.353011,-4.96082 -12.444511,-7.94685 -0.73657,-1.0516 -2.556594,-2.21754 -4.044499,-2.59098 C 27.217377,375.08873 26,374.43539 26,374.01031 c 0,-0.42509 -2.010709,-1.27918 -4.468242,-1.898 -2.613037,-0.65797 -4.911234,-1.95285 -5.535184,-3.11871 C 15.409756,367.89712 15.333063,367 15.826144,367 c 0.493082,0 0.702733,-1.01369 0.465892,-2.25265 -0.236842,-1.23895 0.0822,-3.60145 0.70897,-5.25 0.626776,-1.64854 1.157422,-3.22235 1.179214,-3.49735 0.02179,-0.275 0.890158,-1.69447 1.929701,-3.15437 C 21.149465,351.38573 22,349.69823 22,349.09563 22,348.49303 22.45,348 23,348 c 0.55,0 1,-0.675 1,-1.5 0,-0.825 0.525,-1.5 1.166667,-1.5 0.641666,0 0.884429,-0.28224 0.539471,-0.62719 -0.902786,-0.90279 4.161308,-7.92407 10.676877,-14.80331 C 39.472357,326.30772 42,323.37809 42,323.05921 c 0,-0.31888 3.2625,-3.04571 7.25,-6.05962 3.9875,-3.01391 7.7,-5.97538 8.25,-6.58104 0.55,-0.60566 3.25,-2.37545 6,-3.93286 2.75,-1.55742 6.575,-4.06713 8.5,-5.57715 4.05949,-3.18437 11.400606,-7.30992 14.986878,-8.4223 1.367782,-0.42426 4.067782,-1.80579 6,-3.07007 4.955799,-3.24265 13.259832,-6.05563 22.013122,-7.4569 10.57237,-1.69249 17.70019,-4.58638 23.54469,-9.55916 4.95785,-4.21836 5.10739,-4.51308 8.68715,-17.12065 2.09294,-7.37115 5.11941,-15.37041 7.11435,-18.80393 6.07084,-10.44862 9.97488,-16.38134 12.85449,-19.53411 1.53963,-1.68567 2.79932,-3.34501 2.79932,-3.68741 0,-0.34241 0.98292,-2.67714 2.18426,-5.18829 2.41672,-5.05164 5.28205,-8.05403 7.71875,-8.08796 2.34781,-0.0327 5.18044,-2.77191 9.40428,-9.09419 5.11482,-7.65589 5.2114,-10.97807 1.17398,-40.38357 -2.43016,-17.69947 -2.92025,-32.04255 -1.38452,-40.51931 0.7454,-4.11438 1.30357,-8.04319 1.24037,-8.73069 -0.0632,-0.6875 0.21287,-1.25 0.61348,-1.25 0.4006,0 1.25609,-1.158213 1.90108,-2.573807 0.64498,-1.415594 2.48893,-4.228094 4.09765,-6.25 1.60872,-2.021906 3.22702,-4.913693 3.59622,-6.426193 0.3692,-1.5125 0.97915,-2.75 1.35545,-2.75 0.37631,0 1.18123,-1.9125 1.78872,-4.25 1.11407,-4.286707 0.3369,-14.291328 -1.31619,-16.943526 C 201.5285,59.450727 200.93417,56.130424 200.84192,52.25 200.8125,51.0125 200.42585,50 199.9827,50 c -0.44315,0 -0.65498,-0.7875 -0.47073,-1.75 0.18426,-0.9625 0.40387,-1.75 0.48803,-1.75 0.0842,0 0.30488,-0.795016 0.49048,-1.766702 1.40937,-7.378562 13.95062,-22.055096 18.18948,-21.286443 3.16078,0.573159 11.32004,4.703516 11.32004,5.7304 0,0.45251 0.3375,0.727142 0.75,0.610293 4.55291,-1.2897 9.74527,11.536369 8.93574,22.07288 -0.28057,3.651765 -0.80612,7.764572 -1.1679,9.139572 -1.1848,4.503026 -2.28391,30.177442 -1.96924,46 0.42481,21.36076 3.1597,32.59286 10.24739,42.08559 8.56914,11.47686 17.01417,25.84496 19.05199,32.41441 2.67868,8.63542 5.86942,12.78673 9.7999,12.75018 8.54703,-0.0795 11.96382,-2.70261 15.73182,-12.07762 3.06243,-7.61951 11.36024,-22.10166 21.8703,-38.17019 4.2625,-6.51682 7.75,-12.09995 7.75,-12.40696 0,-0.30701 1.76106,-4.27907 3.91348,-8.8268 6.00467,-12.687 9.71947,-21.03433 10.5816,-23.777357 1.25322,-3.987317 7.44341,-13.252998 10.82689,-16.206034 2.25518,-1.968275 3.80723,-2.565583 5.64426,-2.172203 4.1247,0.883257 6.96152,2.58398 7.58459,4.547096 C 359.87199,86.17205 360.55445,87 361.06739,87 361.58032,87 362,87.56296 362,88.251022 c 0,0.688062 2.51435,5.075562 5.58745,9.75 3.0731,4.674438 6.91224,11.101638 8.53141,14.282678 1.61917,3.18103 4.79777,8.80603 7.06356,12.5 4.52722,7.38084 6.08532,10.16392 13.55753,24.2163 9.79296,18.41684 14.89761,28.56976 17.66634,35.13751 3.40046,8.0663 7.22213,11.46394 10.78685,9.58999 4.64927,-2.44409 8.80686,-5.89464 8.80686,-7.30916 0,-0.79501 0.42197,-2.22687 0.93771,-3.18191 0.51575,-0.95504 2.52044,-5.0188 4.45487,-9.03058 2.78099,-5.76743 4.51177,-7.97956 8.26908,-10.56886 11.01793,-7.59283 15.204,-22.1115 17.77138,-61.63699 0.26794,-4.125 0.0315,-14.25 -0.52534,-22.5 -2.00494,-29.702666 -2.03009,-37.466828 -0.1324,-40.870228 0.94859,-1.701229 2.34017,-3.749002 3.09242,-4.550607 2.05627,-2.19119 7.46342,-4.836361 8.88228,-4.345202 0.6875,0.237987 1.25,-0.006 1.25,-0.542222 0,-0.536209 1.12236,-1.25662 2.49414,-1.600914 1.37178,-0.344294 2.38428,-1.169894 2.25,-1.834667 -0.37146,-1.839029 3.79812,-2.071048 5.55979,-0.309377 C 489.1582,26.301052 490.30896,27 490.86118,27 c 0.55223,0 1.28969,0.9 1.63882,2 0.34913,1.1 0.99563,2 1.43668,2 0.44104,0 1.97285,2.7 3.40402,6 1.43117,3.3 2.97459,6 3.42983,6 1.05893,0 3.60518,6.957627 2.82995,7.732857 -0.32072,0.320719 -0.19943,1.074529 0.26954,1.675134 1.06529,1.364313 5.10424,14.752705 5.20307,17.247246 0.0402,1.01462 0.93352,3.194763 1.98515,4.844763 1.05164,1.65 2.34247,3.9 2.86853,5 0.52605,1.1 2.06417,3.017798 3.41803,4.261773 1.86802,1.716412 2.63128,3.724101 3.16544,8.326473 0.77977,6.718512 0.88265,29.438084 0.1581,34.911754 -0.25481,1.925 -0.77871,6.31331 -1.16421,9.75179 -0.38551,3.43849 -1.0644,6.47644 -1.50865,6.751 -0.44424,0.27456 -0.56511,1.42696 -0.26858,2.56088 0.36112,1.38092 -0.15199,2.54578 -1.55396,3.52775 -1.18418,0.82943 -2.36572,3.082 -2.72091,5.18732 -0.3453,2.04669 -1.26326,5.13927 -2.03992,6.87239 -0.77666,1.73312 -1.41211,4.08916 -1.41211,5.23565 0,1.14648 -0.49491,4.00348 -1.09981,6.34887 -0.9529,3.69474 -0.81386,4.89705 1.04092,9.00106 2.09868,4.64369 4.08541,6.45512 7.73332,7.05096 3.62363,0.59188 10.09734,8.20182 15.82557,18.6032 1.86988,3.39536 6.3858,11.04561 9.21401,15.60913 1.30742,2.10963 4.80754,9.32949 8.96862,18.5 1.37258,3.025 3.75417,8.2 5.29243,11.5 1.53826,3.3 3.34343,8.3641 4.01148,11.25356 0.96426,4.1706 2.10012,6.03299 5.51017,9.03463 4.24649,3.73791 12.75564,7.21181 17.66496,7.21181 1.36723,0 6.1409,1.094 10.60816,2.43111 11.51708,3.44721 42.37313,19.75512 44.79598,23.67537 0.33994,0.55003 3.03638,2.06955 5.9921,3.37671 6.21655,2.74925 19.96958,15.78598 21.00485,19.91085 0.35973,1.43328 1.05527,2.60596 1.54565,2.60596 0.49037,0 0.89159,0.59015 0.89159,1.31144 0,0.72129 0.9,2.27747 2,3.45819 1.1,1.18071 2,2.61556 2,3.18856 0,0.57299 0.34971,1.04181 0.77714,1.04181 0.42743,0 2.33993,1.36054 4.25,3.02342 1.91007,1.66287 3.92286,3.40768 4.47286,3.87735 0.55,0.46967 1.71884,1.69664 2.59742,2.72659 0.87859,1.02995 2.38305,2.32719 3.34325,2.88275 1.56689,0.90658 2.26661,5.98136 1.66753,12.09387 -0.11453,1.16853 -4.64323,6.39602 -5.54103,6.39602 -0.29059,0 -2.99046,1.575 -5.99972,3.5 -3.00926,1.925 -5.70466,3.5 -5.98978,3.5 -0.28512,0 -3.0545,1.16004 -6.15417,2.57786 -7.16413,3.27694 -7.81182,3.38289 -14.34785,2.34713 -4.28297,-0.67871 -6.22933,-1.64564 -9.25,-4.59524 C 640.72154,378.27515 639,376.27283 639,375.88017 c 0,-1.22607 -12.20118,-12.47368 -18.75,-17.28462 -3.4375,-2.52528 -6.25,-4.94527 -6.25,-5.37776 0,-0.43249 -2.8125,-2.07623 -6.25,-3.65277 -6.80474,-3.12083 -15.51549,-7.35056 -20.25,-9.8329 -1.65,-0.86511 -5.025,-2.35164 -7.5,-3.30341 -5.08137,-1.95404 -10.21042,-6.71679 -9.4283,-8.75496 0.28562,-0.74433 -0.17616,-1.93052 -1.02619,-2.63598 C 568.33271,324.03124 568,324.02311 568,325 c 0,0.95715 -0.40449,0.93529 -1.75,-0.0946 -0.9625,-0.73671 -1.43955,-0.96886 -1.06011,-0.51589 0.67499,0.80581 -0.36556,2.50175 -3.01157,4.90837 -0.72692,0.66116 -2.22463,2.02482 -3.32825,3.03037 -1.53214,1.39598 -4.05693,1.91911 -10.67833,2.21255 -16.48622,0.7306 -27.6772,1.67379 -29.09596,2.45224 -0.78332,0.4298 -2.70968,0.33333 -4.2808,-0.21436 C 511.42451,335.60373 506,337.39652 506,339.6854 c 0,2.68254 5.10712,12.62993 10.13596,19.7423 8.50262,12.02538 16.57492,25.48911 23.8163,39.72304 3.81957,7.50791 10.00537,18.65889 13.74621,24.77995 12.52704,20.49776 13.54869,22.80862 12.84578,29.05585 -0.33953,3.01759 -0.93838,5.78385 -1.33079,6.14724 -1.21843,1.12833 -31.70837,1.81797 -81.46346,1.84259 L 436,461 v 5.03155 c 0,9.15248 6.66762,24.73302 13.13141,30.68476 1.66275,1.53103 7.20315,7.95869 12.312,14.28369 8.66501,10.72768 11.89435,14.04542 22.36555,22.97775 4.53329,3.86707 5.76018,6.60436 3.52165,7.85711 -1.2508,0.69998 -1.11424,1.28758 0.87094,3.74764 4.96398,6.15144 7.79845,11.12585 7.79845,13.68607 0,4.00541 2.78824,4.94908 12.81134,4.33597 4.77876,-0.29232 12.96366,-0.80003 18.18866,-1.12825 5.225,-0.32821 12.1509,-0.23215 15.39088,0.21348 5.79543,0.7971 5.90969,0.87505 7.05131,4.81023 0.63824,2.2 1.26368,6.25 1.38988,9 0.12619,2.75 0.71089,8.35811 1.29933,12.46248 1.08516,7.56899 0.55525,15.88598 -1.22397,19.21049 -0.83931,1.56827 -2.29469,1.82703 -10.27595,1.82703 -5.11398,0 -9.48565,-0.18271 -9.71481,-0.40601 z M 368.5,457.00402 l 7,-0.002 -0.25626,-20.75097 c -0.25606,-20.73469 0.30933,-25.09789 2.91462,-22.4926 0.6829,0.6829 0.81414,1.2417 0.29164,1.24177 -0.5688,7e-5 -0.9209,7.52383 -0.87747,18.75 0.0916,23.67523 0.0517,23.24956 2.17747,23.25131 1.62839,0.001 1.71525,-1.51015 1.25,-21.75 -0.275,-11.96329 -0.19114,-22.1503 0.18636,-22.6378 0.37749,-0.48749 22.8106,-1.2456 49.85135,-1.68468 27.04075,-0.43909 49.39413,-1.02746 49.67418,-1.30751 1.23542,-1.23543 -5.27959,-19.90956 -10.71014,-30.6987 -6.48017,-12.87447 -12.04566,-21.94486 -20.38059,-33.21536 -5.51854,-7.46217 -12.3484,-20.14084 -14.62072,-27.14129 -1.23279,-3.79793 -1.17875,-4.01219 1.56347,-6.19876 1.56221,-1.24567 5.09614,-2.80599 7.85316,-3.46739 5.80851,-1.39344 13.22775,-4.51624 14.10601,-5.93729 0.33325,-0.53922 3.75373,-3.49199 7.60107,-6.56171 6.61163,-5.27532 6.95816,-5.75456 6.32055,-8.74113 -0.37103,-1.7379 -3.02956,-6.30982 -5.90784,-10.15982 -5.15534,-6.8958 -6.23961,-9.08777 -8.40918,-17 -2.16836,-7.90783 -8.3086,-14.48601 -13.53119,-14.49626 -5.26615,-0.0103 -19.52938,9.82247 -23.20375,15.99626 -1.15392,1.93884 -9.93513,9 -11.19235,9 -1.60049,0 -5.76012,-6.11908 -11.27402,-16.5848 -6.72459,-12.76369 -12.05124,-21.33605 -17.94212,-28.87484 -6.09603,-7.80134 -19.90973,-27.00924 -22.73735,-31.6162 C 355.1412,188.86412 351.36379,185 349.523,185 c -0.86488,0 -2.01068,1.0125 -2.54622,2.25 -0.53555,1.2375 -2.29979,4.5 -3.92054,7.25 -1.62074,2.75 -4.56622,8.06558 -6.54551,11.81239 -7.09181,13.42487 -15.82862,27.37024 -23.92464,38.18761 -4.52798,6.05 -10.82411,14.48358 -13.9914,18.74129 -7.30032,9.81365 -7.53247,9.7342 -17.87173,-6.11617 -5.1904,-7.95703 -10.0436,-11.29586 -14.83541,-10.20624 -5.71622,1.29983 -11.90327,4.99227 -12.94174,7.72366 -0.72821,1.91532 -1.41119,2.37505 -2.70971,1.82393 -0.95485,-0.40526 -2.6361,-0.7885 -3.7361,-0.85165 -1.61442,-0.0927 -1.96819,0.46356 -1.835,2.88518 0.0908,1.65 0.48072,4.2375 0.86658,5.75 0.54984,2.15524 0.35195,2.75 -0.915,2.75 -0.88912,0 -1.61658,0.79329 -1.61658,1.76287 0,0.96958 -1.0125,2.20708 -2.25,2.75 -2.38648,1.04701 -8.05842,11.08903 -8.97679,15.89317 -0.35641,1.86445 0.13548,4.01976 1.41065,6.18101 2.3842,4.04091 10.21065,9.40927 13.73758,9.42296 2.93065,0.0114 20.86559,11.27143 21.78998,13.68036 1.71831,4.47782 -4.97189,19.90599 -14.21107,32.77195 -9.9332,13.83241 -22.6135,34.60019 -25.00433,40.95203 -2.58679,6.87247 -5.07787,18.33713 -4.17955,19.23545 0.32379,0.32379 23.33504,0.51035 51.13612,0.41459 L 327,409.89028 v 24.21226 24.21226 l 17.25,-0.65434 c 9.4875,-0.35989 20.4,-0.65529 24.25,-0.65644 z M 266.34488,383.44129 c -1.97494,-0.93129 0.26674,-6.72126 11.71207,-30.25083 17.81621,-36.62693 26.44661,-51.936 32.54125,-57.72345 6.34896,-6.02894 14.83527,-20.18241 28.16105,-46.96701 8.52059,-17.12624 10.50467,-20.4346 12.285,-20.48469 0.29934,-0.008 3.27263,3.69719 6.6073,8.23469 5.4874,7.46672 9.88159,14.88558 16.43632,27.75 1.26108,2.475 7.99951,13.14634 14.97429,23.71409 10.29103,15.59231 15.7983,25.48835 29.21694,52.5 16.63992,33.49609 19.72174,40.08453 19.7199,42.15803 -7.3e-4,0.82644 -22.78478,1.19282 -85.25,1.37088 -46.88695,0.13364 -85.7688,-0.002 -86.40412,-0.30171 z"
       id="path1" />
    <path
       style="fill:#000000;stroke-width:3.5"
       d="m 214.42428,28.070088 c 0,0 -35.08761,26.510638 -21.83229,82.650812 13.25532,56.14018 13.25532,56.14018 13.25532,56.14018 z"
       id="path2" />
    <path
       style="fill:#000000;stroke-width:3.5"
       d="m 490.44681,27.290363 c 0,0 28.84981,10.916145 25.73091,63.157697 -3.1189,52.24155 -25.73091,-63.157697 -25.73091,-63.157697 z"
       id="path3" />
    <path
       style="fill:#000000;stroke-width:3.5"
       d="m 254.96996,246.39299 -25.73091,42.10513 -4.67835,-42.88485 z"
       id="path4" />
    <path
       style="fill:#000000;stroke-width:3.5"
       d="m 527.87359,565.30038 c 0,0 -15.59449,-0.77973 -59.25907,-44.44431 -43.66458,-43.66458 21.05256,71.73467 21.05256,71.73467 l 54.58073,-11.69587 z"
       id="path5" />
    <path
       style="fill:#000000;stroke-width:3.5"
       d="m 229.23905,598.82854 c 62.37797,-40.54569 34.30788,-17.93367 62.37797,-42.88486 28.07009,-24.95119 -59.25907,-12.47559 -59.25907,-12.47559 z"
       id="path6" />
    <path
       style="fill:#000000;stroke-width:3.5"
       d="m 587.13267,335.2816 c -78.75219,-9.35669 -150.48686,-4.67835 -81.09137,-21.83229 69.3955,-17.15394 81.09137,21.83229 81.09137,21.83229 z"
       id="path7" />
  </g>
</svg>
