<?xml version="1.0" encoding="UTF-8" standalone="no"?>
<!-- Created with Inkscape (http://www.inkscape.org/) -->

<svg
   width="210mm"
   height="297mm"
   viewBox="0 0 210 297"
   version="1.1"
   id="svg1"
   inkscape:version="1.4.3 (0d15f75042, 2025-12-25)"
   sodipodi:docname="shield.svg"
   inkscape:export-filename="shield_transparent.svg"
   inkscape:export-xdpi="96"
   inkscape:export-ydpi="96"
   xmlns:inkscape="http://www.inkscape.org/namespaces/inkscape"
   xmlns:sodipodi="http://sodipodi.sourceforge.net/DTD/sodipodi-0.dtd"
   xmlns="http://www.w3.org/2000/svg"
   xmlns:svg="http://www.w3.org/2000/svg">
  <sodipodi:namedview
     id="namedview1"
     pagecolor="#ffffff"
     bordercolor="#000000"
     borderopacity="0.25"
     inkscape:showpageshadow="2"
     inkscape:pageopacity="0.0"
     inkscape:pagecheckerboard="0"
     inkscape:deskcolor="#d1d1d1"
     inkscape:document-units="mm"
     inkscape:zoom="2.3655685"
     inkscape:cx="391.66061"
     inkscape:cy="537.92566"
     inkscape:window-width="1920"
     inkscape:window-height="1008"
     inkscape:window-x="0"
     inkscape:window-y="0"
     inkscape:window-maximized="1"
     inkscape:current-layer="layer1" />
  <defs
     id="defs1" />
  <g
     inkscape:label="Layer 1"
     inkscape:groupmode="layer"
     id="layer1">
    <circle
       style="fill:#000000;stroke-width:0.264583"
       id="circle2"
       cx="104.63766"
       cy="145.89799"
       r="42.933041" />
    <circle
       style="fill:#f9f9f9;stroke-width:0.24271"
       id="circle3"
       cx="104.63766"
       cy="145.89799"
       r="39.383892" />
    <circle
       style="fill:#000000;stroke-width:0.226933"
       id="circle4"
       cx="104.63766"
       cy="145.89799"
       r="36.823936" />
    <circle
       style="fill:#ffffff;stroke-width:0.20424"
       id="circle5"
       cx="104.63766"
       cy="145.89799"
       r="33.141544" />
    <circle
       style="fill:#000000;stroke-width:0.118623"
       id="circle6"
       cx="104.63766"
       cy="145.89799"
       r="19.248608" />
    <circle
       style="fill:#ffffff;stroke-width:0.106761"
       id="circle7"
       cx="104.63766"
       cy="145.89799"
       r="17.323748" />
    <path
       style="fill:#000000;stroke-width:0.926042;stroke-dasharray:none"
       d="m 104.91312,144.50719 -1.90141,43.28505 h 1.23032 l 1.67772,-43.50874 z"
       id="path7" />
    <path
       style="fill:#000000;stroke-width:0.926042;stroke-dasharray:none"
       d="m 105.74242,144.24286 -41.93217,-10.90431 -0.257088,1.20316 42.197668,10.7323 z"
       id="path8" />
    <path
       style="fill:#000000;stroke-width:0.926042;stroke-dasharray:none"
       d="m 128.23751,181.56409 -21.84032,-37.4194 -1.03432,0.66622 22.1495,37.48633 z"
       id="path9" />
    <path
       style="fill:#000000;stroke-width:0.926042;stroke-dasharray:none"
       d="m 128.23751,181.56409 -21.84032,-37.4194 -1.03432,0.66622 22.1495,37.48633 z"
       id="path10" />
    <path
       style="fill:#000000;stroke-width:0.908285;stroke-dasharray:none"
       d="m 105.87705,143.95969 -33.631332,-25.97774 -0.695039,0.98645 33.937041,25.92477 z"
       id="path11" />
    <path
       style="fill:#000000;stroke-width:0.884971;stroke-dasharray:none"
       d="m 129.41706,111.0965 -24.55998,33.33445 0.97627,0.65519 24.50161,-33.63106 z"
       id="path12" />
    <path
       style="fill:#000000;stroke-width:0.745111;stroke-dasharray:none"
       d="m 104.28455,144.53895 -20.678528,28.06628 0.821981,0.55165 20.629387,-28.31602 z"
       id="path13" />
    <path
       style="fill:#000000;stroke-width:0.820814;stroke-dasharray:none"
       d="m 145.70733,137.57256 -41.51035,6.72541 0.28327,0.96202 41.6711,-6.94275 z"
       id="path14" />
    <path
       style="fill:#000000;stroke-width:0.820814;stroke-dasharray:none"
       d="m 105.66586,143.94788 -41.510347,6.72541 0.28327,0.96202 41.671097,-6.94275 z"
       id="path15" />
    <path
       style="fill:#000000;stroke-width:0.820814;stroke-dasharray:none"
       d="m 105.5341,144.89735 -8.317541,-41.22085 -0.950409,0.32007 8.5409,41.37312 z"
       id="path16" />
    <path
       style="fill:#000000;stroke-width:0.820814;stroke-dasharray:none"
       d="m 139.85161,154.72913 -40.292276,-12.03629 -0.16427,0.9893 40.531666,11.91074 z"
       id="path17" />
    <path
       style="fill:#000000;stroke-width:0.525981;stroke-dasharray:none"
       d="m 120.89233,154.79045 -21.84036,-15.78391 -0.308123,0.56394 22.011693,15.75845 z"
       id="path18" />
    <path
       style="fill:#000000;stroke-width:0.419057;stroke-dasharray:none"
       d="m 104.76846,144.67441 -18.590582,6.22919 0.199883,0.51963 18.648719,-6.36001 z"
       id="path19" />
  </g>
</svg>
