<?xml version="1.0" encoding="UTF-8" standalone="no"?>
<!-- Created with Inkscape (http://www.inkscape.org/) -->

<svg
   version="1.1"
   id="svg1"
   width="400"
   height="400"
   viewBox="0 0 400 400"
   sodipodi:docname="standby_upscayl_4x_upscayl-standard-4x.png"
   inkscape:export-filename="../Documents/openSCAD/Star-Wars-Legion-Token-Holder/svgs/standby2.svg"
   inkscape:export-xdpi="96"
   inkscape:export-ydpi="96"
   xmlns:inkscape="http://www.inkscape.org/namespaces/inkscape"
   xmlns:sodipodi="http://sodipodi.sourceforge.net/DTD/sodipodi-0.dtd"
   xmlns="http://www.w3.org/2000/svg"
   xmlns:svg="http://www.w3.org/2000/svg">
  <defs
     id="defs1" />
  <sodipodi:namedview
     id="namedview1"
     pagecolor="#ffffff"
     bordercolor="#000000"
     borderopacity="0.25"
     inkscape:showpageshadow="2"
     inkscape:pageopacity="0.0"
     inkscape:pagecheckerboard="0"
     inkscape:deskcolor="#d1d1d1">
    <inkscape:page
       x="0"
       y="0"
       width="400"
       height="400"
       id="page2"
       margin="0"
       bleed="0" />
  </sodipodi:namedview>
  <g
     inkscape:groupmode="layer"
     inkscape:label="Image"
     id="g1">
    <path
       id="path1"
       style="fill:#000000"
       d="M 199.59375,2.0507812 C 172.31726,2.0507812 150,2.4066018 150,2.8398438 c 0,0.43324 -7.0875,0.6147238 -15.75,0.4042968 L 118.5,2.8613281 101.07422,19.707031 c -9.584086,9.264684 -35.320983,34.61875 -57.193361,56.34375 l -39.7675778,39.499999 -0.6503906,40.5 c -0.8869969,55.29424 -0.3753857,88.82074 1.3710938,89.89844 1.0558817,0.65155 0.9772987,0.95958 -0.375,1.47851 -1.5409446,0.59131 -1.6572504,2.17843 -1.1953125,16.19727 l 0.5117187,15.54102 13.3613284,13.60156 C 24.486008,300.24862 49.85,325.88545 73.5,349.73633 l 43,43.36523 16,0.11328 c 8.8,0.0631 27.25,0.43468 41,0.82618 13.75,0.3915 35.35,0.55694 48,0.36718 12.65,-0.18972 30.44069,-0.3017 39.53516,-0.25 l 16.53515,0.0937 3.9668,-3.34961 c 2.18101,-1.84264 10.18819,-9.42656 17.79492,-16.85156 11.89014,-11.60607 35.13634,-34.07826 38.94336,-37.64648 0.67303,-0.63082 13.48711,-13.48358 28.47461,-28.56055 l 27.25,-27.41211 0.19531,-11.43945 c 0.10762,-6.29221 0.37715,-15.04141 0.59766,-19.44141 0.2205,-4.4 0.42774,-35.53325 0.46094,-69.18555 0.0535,-54.25923 -0.11848,-61.44797 -1.52344,-63.5 -0.87137,-1.2727 -26.59602,-27.467415 -57.16406,-58.210933 L 280.98828,2.7558594 266.87891,3.3769531 c -7.76016,0.34118 -14.67654,1.0915348 -15.3711,1.6679688 -0.93454,0.775603 -1.40184,0.5230087 -1.79297,-0.9726563 -0.5214,-1.993825 -1.19609,-2.0214844 -50.12109,-2.0214844 z M 166,32.050781 h 33.60742 c 30.23433,0 33.54607,0.158986 33,1.582031 C 232.27357,34.502797 232,37.13186 232,39.474609 v 4.259766 l -33,0.193359 -33,0.195313 v -6.037109 z m 0,27 h 33.25 l 33.25,0.002 0.041,9.498047 0.041,9.5 -4.54101,0.01367 c -2.49738,0.0069 -16.46599,0.196472 -31.04099,0.42183 -14.575,0.225355 -27.79165,0.183472 -29.37109,-0.0918 l -2.87305,-0.5 0.60547,-6.671875 c 0.33227,-3.669508 0.61109,-7.909375 0.62109,-9.421875 z m 82.25,9 c 1.27155,2.83e-4 22.51455,12.866265 30.89062,18.708985 C 285.0068,90.851716 294,99.361633 294,100.82031 c 0,0.61478 -0.7875,1.70514 -1.75,2.42383 -2.02315,1.51065 -2.45947,7.80664 -0.54102,7.80664 0.68502,0 0.97191,-0.66879 0.64844,-1.51172 -1.06115,-2.76532 2.48521,-0.48059 4.62305,2.97852 2.66467,4.31158 2.59774,6.53691 -0.0937,3.11523 -3.2302,-4.10654 -3.38777,-2.32622 -0.20117,2.27735 3.29686,4.76287 4.56651,5.22588 3.81054,1.39062 -0.24602,-1.24814 -0.36178,-1.89146 -0.30664,-1.97266 l 0.002,-0.002 0.002,-0.002 0.002,-0.002 0.002,-0.002 h 0.002 0.002 0.002 0.002 0.002 c 0.0826,0.0238 0.32147,0.53812 0.74609,1.50391 0.54944,1.24969 1.68522,2.53382 2.52344,2.85547 0.83821,0.32166 1.52344,1.00317 1.52344,1.51367 0,0.52354 -0.87193,0.46115 -2,-0.14258 -1.35599,-0.72572 -2,-0.737 -2,-0.0352 0,0.56936 0.3375,1.03897 0.75,1.04297 0.87717,0.009 3.25,4.83496 3.25,6.60938 0,0.66952 0.5625,1.44329 1.25,1.7207 0.96692,0.39017 0.97075,0.52289 0.0195,0.58399 -0.67632,0.0434 -2.20023,-1.83438 -3.38672,-4.17188 -1.18649,-2.3375 -4.96598,-7.625 -8.39843,-11.75 -3.43246,-4.125 -6.26794,-7.95 -6.30274,-8.5 -0.0348,-0.55 -0.91341,-1.225 -1.95117,-1.5 -2.77326,-0.73489 -10.53327,-7.704904 -9.26563,-8.322264 0.27362,-0.133274 0.41133,-0.230535 0.41602,-0.285157 0,-9.31e-4 8e-5,-0.005 0,-0.0059 v -0.002 c -2.4e-4,-8.52e-4 -0.002,-0.005 -0.002,-0.0059 l -0.002,-0.002 v -0.002 l -0.002,-0.002 c -0.0402,-0.04445 -0.23679,-0.04005 -0.58203,0.0293 -1.21181,0.24339 -13.64504,-7.289449 -18.79297,-11.386719 -1.375,-1.09437 -4.60802,-2.69793 -7.18555,-3.5625 -5.2638,-1.76562 -5.86956,-2.666451 -4.66015,-6.945312 0.46534,-1.646369 0.8457,-4.233869 0.8457,-5.75 0,-1.538763 0.55224,-2.757968 1.25,-2.757813 z m -102.69531,1.683594 c 3.98406,0.196886 6.64821,3.332393 5.91015,8.257813 -0.28365,1.892927 -0.68509,3.612832 -0.89257,3.820312 -0.20747,0.20747 -2.53939,0.686503 -5.18165,1.064453 -3.98917,0.57063 -4.92179,1.108838 -5.49804,3.179688 -0.3352,1.204607 -0.50983,1.801826 -0.61328,1.816406 h -0.002 -0.002 c -7.7e-4,-9.4e-5 -0.005,1.63e-4 -0.006,0 l -0.002,-0.002 c -0.0896,-0.03603 -0.12353,-0.567108 -0.16797,-1.570313 -0.10923,-2.46547 -2.09961,-3.17645 -2.09961,-0.75 0,2.84452 -1.71858,1.48279 -5.36523,-4.25 -3.03035,-4.763943 -3.37599,-5.809009 -2.01563,-6.097656 0.90307,-0.191616 2.02611,0.258384 2.49609,1 0.46998,0.741616 0.87449,0.897656 0.90039,0.347656 0.0259,-0.55 0.68922,-0.153846 1.47266,0.88086 1.33491,1.763046 1.41203,1.705101 1.21875,-0.935547 -0.17084,-2.334103 0.47953,-3.209 3.79297,-5.09961 2.16041,-1.232702 4.24375,-1.751603 6.05469,-1.662109 z m -21.65821,10.316406 c 2.12321,0 9.15653,9.698831 8.42188,11.613281 -0.24559,0.64 -1.66861,1.406379 -3.16211,1.705079 -1.49351,0.2987 -3.96166,1.700261 -5.48633,3.113281 -1.52467,1.41301 -3.02768,2.568359 -3.33789,2.568359 -1.08782,0 -8.33203,-8.512875 -8.33203,-9.791015 0,-0.71047 2.25,-2.688948 5,-4.398438 2.75,-1.7095 5,-3.491194 5,-3.958984 0,-0.46779 0.85343,-0.851563 1.89648,-0.851563 z m 11.21094,2.521485 c -0.091,-0.0011 -0.18879,0.02862 -0.29101,0.0918 -0.4673,0.288811 -0.58988,0.945042 -0.27344,1.457032 0.80862,1.30839 1.12305,1.160769 1.12305,-0.525391 0,-0.625633 -0.23367,-1.019354 -0.5586,-1.023437 z m 97.39844,2.6875 c 0.13967,0.15989 0.47753,13.116016 0.75195,28.791014 0.49517,28.28312 0.51945,28.53936 3.10938,33.62305 1.43539,2.81747 4.30236,6.39923 6.37109,7.95898 2.06873,1.55975 3.91237,3.19168 4.0957,3.62696 0.61793,1.46711 3.01545,0.80557 3.47657,-0.95899 0.37478,-1.43411 0.47912,-1.37862 0.57422,0.3086 0.36319,6.44612 4.14865,7.22997 37.61523,7.78515 l 22,0.36524 -0.27344,3.29101 c -0.16254,1.95574 0.37733,4.01148 1.33203,5.06641 2.95185,3.26176 -0.92157,3.93359 -22.66015,3.93359 -11.12782,0 -20.01064,0.22179 -19.74024,0.49219 0.2704,0.2704 9.56975,0.54658 20.66602,0.61328 11.93115,0.0717 20.17578,0.50693 20.17578,1.06641 0,0.52034 0.40216,0.69687 0.89453,0.39257 0.49236,-0.3043 1.16736,0.15662 1.5,1.02344 0.83886,2.18604 0.77886,2.41216 -0.64453,2.41016 -1.57131,-0.003 -1.09908,13.16834 0.50781,14.16211 0.70377,0.43524 0.53083,1.19378 -0.50976,2.23437 -1.31337,1.31337 -1.51664,3.74713 -1.21875,14.5918 0.22715,8.26935 -0.008,13.01367 -0.64453,13.01367 -0.5514,0 -0.72469,-0.45 -0.38477,-1 0.33992,-0.55 -0.11008,-1 -1,-1 -0.88992,0 -1.33992,0.45 -1,1 0.40494,0.6552 -7.59173,1.02562 -23.19141,1.07422 -13.09496,0.0408 -25.83359,0.37827 -28.30859,0.75 -4.16239,0.62517 -4.52248,0.91501 -4.80859,3.87109 -0.21404,2.21141 -0.72906,3.03562 -1.67188,2.67383 -1.7001,-0.65239 -4.72462,0.92775 -7.95117,4.1543 -1.36215,1.36215 -2.89877,2.47656 -3.41406,2.47656 -1.10573,0 -4.48279,8.0055 -3.70508,8.7832 0.29324,0.29324 0.10663,1.04799 -0.41602,1.67774 -0.84054,1.01279 -1.74216,23.44815 -1.95898,48.78906 l -0.0742,8.75 -33.25,-0.004 -33.25,-0.004 -0.24219,-27.74609 c -0.19092,-21.87681 -0.52625,-27.95762 -1.58789,-28.7461 -0.74055,-0.55 -1.61187,-3.025 -1.93554,-5.5 -0.4878,-3.72991 -1.38728,-5.2273 -5.25782,-8.75 -2.56831,-2.3375 -5.63993,-4.25762 -6.82422,-4.26562 -1.51378,-0.0108 -1.76751,-0.25934 -0.85546,-0.83789 1.64892,-1.04599 0.0943,-2.45809 -5.0918,-4.625 -2.9491,-1.23221 -8.68787,-1.52149 -30.19141,-1.52149 H 86.964844 L 87.232422,204.8457 87.5,180.64062 90,179.94531 92.5,179.25 89.75,179.15039 C 87.06663,179.05313 87,178.9054 87,173.05078 v -6 l 24.75,-0.01 c 28.95662,-0.0129 32.24382,-0.35743 32.26562,-3.3711 0.0104,-1.44042 0.27044,-1.7171 0.8125,-0.86328 0.58815,0.92638 1.83081,0.3951 4.73438,-2.02344 2.16545,-1.80371 5.55187,-4.4738 7.52539,-5.93359 2.48199,-1.8359 3.53707,-3.36294 3.41992,-4.95313 -0.0932,-1.26441 0.71488,-3.01447 1.79688,-3.89062 1.68259,-1.36248 2.08649,-3.46409 2.78515,-14.52344 0.44927,-7.1118 0.83748,-20.21801 0.86328,-29.12304 0.0259,-8.905054 0.4658,-16.44875 0.97852,-16.76563 0.92103,-0.56923 65.08321,-0.896044 65.57422,-0.333984 z m -86.58984,0.914062 c 0.34739,0.0143 0.64635,0.107293 0.8125,0.273438 0.33229,0.33229 -0.25834,0.56879 -1.3125,0.52539 -1.16495,-0.04799 -1.40125,-0.286238 -0.60352,-0.605468 0.36094,-0.144461 0.75612,-0.207664 1.10352,-0.19336 z m -38.50391,6.695313 c 0.67209,-0.04859 2.5444,1.366454 4.87695,3.732421 4.7643,4.832568 5.65523,6.449218 3.5586,6.449218 -1.14021,0 -10.06286,8.64576 -12.90039,12.5 -2.16116,2.93551 -5.765168,4.67955 -8.25977,3.9961 -2.026438,-0.5552 -2.058056,-0.49551 -0.431641,0.8164 1.615572,1.30316 1.634197,1.70717 0.236329,5.05274 -0.835485,1.9996 -1.859725,3.63476 -2.275391,3.63476 -1.461942,0 -7.038731,11.57344 -8.648438,17.94727 -0.895398,3.54544 -1.773455,6.59181 -1.951171,6.76953 -0.177716,0.17771 -2.639692,0.57152 -5.470704,0.87695 C 72.002788,155.09158 71,154.90956 71,153.70898 c 0,-0.82025 -0.52038,-1.66499 -1.15625,-1.87695 -2.209828,-0.73661 14.627071,-34.78125 17.201172,-34.78125 0.52574,0 0.955078,-0.6144 0.955078,-1.36523 0,-0.75083 0.874745,-2.47547 1.943359,-3.83399 1.533941,-1.95013 2.608721,-2.37259 5.107422,-2.00586 3.104228,0.4556 3.152187,0.40223 2.458985,-2.7539 -0.644064,-2.93241 -0.266601,-3.64338 4.269534,-8.015628 2.73773,-2.63882 5.16155,-5.349881 5.38672,-6.025391 0.0375,-0.112595 0.12163,-0.172643 0.24609,-0.18164 z m -1.70117,4.435547 c -0.26142,-0.0047 -0.57283,0.207594 -0.98633,0.621093 -0.94515,0.94515 -0.88969,1.406503 0.25391,2.113279 1.86211,1.15085 2.44687,0.56609 1.61132,-1.611326 -0.28864,-0.752192 -0.54279,-1.116999 -0.8789,-1.123046 z m 191.13281,6.990232 c 0.62478,-0.026 1.33578,0.51659 2.64453,1.7461 1.59992,1.50304 2.32423,3.02646 1.96875,4.14648 -0.40884,1.28814 0.53204,2.46192 3.45117,4.30469 3.36901,2.12676 3.9796,3.01806 3.80274,5.54492 -0.11589,1.65565 -0.27151,3.01072 -0.34571,3.01172 -0.0742,0.001 -0.82627,-1.01055 -1.67187,-2.24805 -0.84561,-1.2375 -4.03074,-4.95 -7.07617,-8.25 -4.82053,-5.22348 -5.35041,-6.18652 -4.09766,-7.44336 0.50933,-0.51099 0.89674,-0.79473 1.32422,-0.8125 z m -98.79102,16.78711 c -0.0654,0.007 -0.12309,0.05 -0.17187,0.12695 -0.46773,0.73797 -0.85929,2.2418 -0.87109,3.3418 -0.0475,4.41785 -7.88489,24.63083 -12.25782,31.61328 -6.25436,9.98662 -10.76595,14.96557 -20.37109,22.48828 -10.21645,8.00148 -18.14383,11.764 -30.69531,14.56641 -9.42982,2.10543 -12.19369,3.72428 -10.04102,5.87695 0.50019,0.50019 5.92668,2.22521 12.05859,3.83399 6.13193,1.60877 13.76923,4.32371 16.97266,6.0332 7.94372,4.23913 17.94278,12.38007 24.72852,20.13477 6.44451,7.36474 14.66376,23.12023 17.08984,32.75586 0.87263,3.46579 2.33574,7.86989 3.25,9.7871 l 1.66211,3.48438 2.10742,-7.28711 c 5.22553,-18.06067 10.87664,-29.13107 20.50391,-40.17383 10.43322,-11.96721 23.0977,-20.01677 37.98242,-24.13867 12.57847,-3.48325 15,-4.45936 15,-6.05469 0,-1.38129 -2.18317,-2.11532 -15,-5.04297 -8.77867,-2.00524 -18.47121,-6.80706 -25.5,-12.63085 -17.78134,-14.73297 -23.81412,-23.74266 -31.5293,-47.09571 -2.58676,-7.82986 -4.22229,-11.69663 -4.91797,-11.61914 z m 107.1875,5.42578 c 0.29038,-0.0271 0.89904,0.3877 1.79883,1.35352 2.3524,2.52501 3.05447,2.66008 4.90821,0.93945 0.57399,-0.53257 0.87813,-0.77898 0.94921,-0.73828 l 0.002,0.002 c 8.3e-4,8.3e-4 0.005,0.005 0.006,0.006 0.0353,0.0589 -0.0739,0.30176 -0.3125,0.72461 -0.38632,0.68454 -1.55106,1.69902 -2.58789,2.25391 -1.4981,0.80176 -2.20626,0.55221 -3.44532,-1.2168 -1.40362,-2.00395 -1.80232,-3.27898 -1.31836,-3.32422 z m -160.29882,32.54297 c 0.58246,0 1.05859,0.45 1.05859,1 0,0.55 -0.19887,1 -0.44141,1 -0.24254,0 -0.71867,-0.45 -1.05859,-1 -0.33992,-0.55 -0.14105,-1 0.44141,-1 z m 174.14062,7 h 9.41602 9.41601 l -0.44726,29.25 c -0.24545,16.0875 -0.54035,30.2625 -0.65625,31.5 -0.20107,2.14692 -0.61295,2.25 -9.00977,2.25 H 319 l -0.17773,-13.75 c -0.0981,-7.5625 -0.12776,-14.65 -0.0645,-15.75 0.0633,-1.1 0.16331,-9.0875 0.22071,-17.75 z m 33.91797,0 h 6 6 l 0.21484,7.75 c 0.11845,4.2625 0.231,18.43632 0.25,31.4961 l 0.0352,23.74414 -3.39062,0.006 c -2.06023,0.003 -3.9094,-0.68248 -4.7168,-1.7461 -1.26515,-1.66667 -1.33103,-1.66667 -1.36133,0 -0.0175,0.9625 -0.70625,1.75 -1.53125,1.75 -1.16667,0 -1.5,-1.33333 -1.5,-6 0,-3.33333 0.44444,-6 1,-6 0.55,0 1,-0.47613 1,-1.05859 0,-0.58246 -0.45,-0.78133 -1,-0.44141 -1.43444,0.88651 -1.34788,-33.75173 0.0879,-35.1875 0.78285,-0.78285 0.78285,-1.27399 0,-1.75781 C 353.48997,178.23593 353,175.25973 353,171.99219 Z m -309,0.88477 v 31.05859 31.05664 l -2.75,-0.0996 c -1.5125,-0.0548 -3.65,-0.39232 -4.75,-0.75 -2.079824,-0.67628 -2.237628,-1.77978 -2.431641,-16.95898 -0.04179,-3.26955 -0.45251,-5.07203 -1.068359,-4.69141 -0.55,0.33992 -1,-0.11008 -1,-1 0,-0.88992 0.42274,-1.35646 0.939453,-1.03711 0.516714,0.31934 0.870869,-0.32951 0.787109,-1.4414 -0.08376,-1.11188 -0.506496,-2.02149 -0.939453,-2.02149 -1.184884,0 -0.946035,-7.78287 0.261719,-8.5293 0.716805,-0.44301 0.677462,-1.09403 -0.123047,-2.05859 -0.894671,-1.07801 -0.894671,-1.74425 0,-2.82227 0.800509,-0.96456 0.839852,-1.61558 0.123047,-2.05859 -1.814161,-1.12121 -1.139053,-4.36685 1.052734,-5.0625 1.528523,-0.48513 1.800885,-0.96669 1,-1.76758 C 34.496198,178.14659 34,176.4177 34,174.91016 c 0,-1.50754 -0.45,-3.01946 -1,-3.35938 -0.55,-0.33992 -0.999547,-1.37855 -0.998047,-2.30859 0.0022,-1.36544 1.157319,-1.7497 6,-1.99805 z m 16.125,0.11523 H 69.5625 79 v 15.91797 c 0,11.79616 0.323597,16.04793 1.25,16.42383 0.991489,0.40231 0.993278,0.68685 0.01172,1.38281 -0.86392,0.61254 -1.287919,4.96753 -1.40625,14.42578 l -0.169922,13.54883 -9.359375,-0.0469 -9.359375,-0.0488 0.07813,-30.80078 z m -26.783203,29.3457 c -0.139397,0.0151 -0.235184,0.38058 -0.263672,1.07227 -0.04342,1.05416 0.193099,1.64479 0.525391,1.3125 0.332294,-0.3323 0.368949,-1.1961 0.08008,-1.91797 -0.129686,-0.32408 -0.24642,-0.47709 -0.341797,-0.4668 z M 83,199.05078 c 0.55,0 1,0.45 1,1 0,0.55 -0.45,1 -1,1 -0.55,0 -1,-0.45 -1,-1 0,-0.55 0.45,-1 1,-1 z m 61.43359,33.45703 c 0.0688,-0.005 0.14616,0.0889 0.22852,0.29297 0.27741,0.6875 0.27741,1.8125 0,2.5 -0.27741,0.6875 -0.50391,0.125 -0.50391,-1.25 0,-0.9668 0.11233,-1.53163 0.27539,-1.54297 z M 115.5,290.74219 l 3,1.87304 c 1.65,1.03028 5.25,3.4835 8,5.45313 2.75,1.96962 7.1643,4.83313 9.81055,6.36133 2.64625,1.5282 5.04721,3.38941 5.33398,4.13672 0.28677,0.74731 1.0859,1.14228 1.77735,0.87695 1.74341,-0.66901 14.02855,5.93143 14.29687,7.68164 0.1202,0.784 0.51077,2.66328 0.86719,4.17578 0.46901,1.99028 0.27029,2.72898 -0.71875,2.67188 -2.40061,-0.13868 -4.33087,-1.187 -5.67383,-3.08008 -0.71869,-1.01308 -1.84369,-1.82805 -2.5,-1.81055 -0.65632,0.0175 -0.31957,0.6925 0.74805,1.5 3.11172,2.35359 0.79424,1.6911 -2.73243,-0.78125 -3.93922,-2.76156 -4.7649,-3.82141 -4.48046,-5.75 0.32743,-2.22004 -1.09701,-4 -3.20118,-4 -1.62105,0 -16.81327,-10.47257 -19.52734,-13.46094 -0.55,-0.60559 -1.9,-2.16909 -3,-3.47461 z m 164.13867,3.6289 c 0.36038,-0.009 -0.0989,0.6716 -0.64258,1.6875 -0.94266,1.76147 -0.93563,2.41146 0.0293,3.00782 0.67725,0.41856 0.91666,1.26821 0.5332,1.88867 -0.38347,0.62042 -1.11888,0.86766 -1.63476,0.54883 -0.51588,-0.31883 -1.20152,0.10639 -1.52344,0.94531 -0.32193,0.83892 -1.44279,1.79779 -2.49219,2.13086 -1.04939,0.33307 -3.43994,2.05025 -5.31054,3.81445 -1.8706,1.7642 -6.03331,4.28575 -9.25,5.60547 -3.2167,1.31971 -7.42266,3.37295 -9.34766,4.56055 -1.925,1.1876 -4.5125,2.41561 -5.75,2.73047 -1.93637,0.49268 -2.25,0.18041 -2.25,-2.24414 0,-2.53438 0.9464,-3.32456 9.43359,-7.85938 5.18896,-2.77252 13.17646,-7.44653 17.75,-10.38867 7.3363,-4.71941 9.89289,-6.41316 10.45508,-6.42774 z M 133.54883,310.5332 c 0.7016,-0.003 1.45117,0.4165 1.45117,1.07618 0,0.24253 -0.70113,0.4414 -1.55859,0.4414 -0.8575,0 -1.2771,-0.45665 -0.93164,-1.01562 0.21405,-0.34635 0.6181,-0.50027 1.03906,-0.50196 z m 65.51953,6.51758 H 232 v 9.5 9.5 l -17.25,0.0176 c -9.4875,0.009 -23.1,0.2006 -30.25,0.42578 -13.67991,0.43084 -17.55792,0.067 -18.6875,-1.75195 -0.81235,-1.30812 -0.96971,-13.41811 -0.20703,-15.94141 0.48981,-1.62053 2.96666,-1.75 33.46289,-1.75 z m -33.06836,35 h 33.05273 33.05274 l -0.2168,6 -0.21679,6 H 198.83594 166 v -6 z" />
    <path
       style="fill:#000000;stroke-width:3.5"
       d="M 155.90743,83.800244 85.261876,164.67722 51.157125,165.16443 98.416565,75.517661 154.4458,57.490865 156.39464,80.389769 Z"
       id="path2" />
    <path
       style="fill:#000000;stroke-width:3.5"
       d="m 243.60536,61.875761 -1.46163,36.540804 72.59439,45.310595 22.89891,-26.79659 c 0,0 -49.20828,-44.823384 -52.61876,-47.259437 -3.41047,-2.436054 -41.41291,-7.795372 -41.41291,-7.795372 z"
       id="path3" />
    <path
       style="fill:#000000;stroke-width:3.5"
       d="m 285.50548,273.81242 -50.66991,36.0536 5.35931,32.1559 52.61876,-29.71985 z"
       id="path4" />
    <path
       style="fill:#000000;stroke-width:3.5"
       d="m 162.24117,304.01949 -3.41048,57.00365 -42.38733,-23.38611 c 0,0 -24.847745,-44.82339 -24.847745,-50.18271 0,-5.35931 37.515225,-30.69427 37.515225,-30.69427 l 21.43727,37.02801 z"
       id="path5" />
  </g>
</svg>
