<?xml version="1.0" encoding="UTF-8" standalone="no"?>
<!-- Created with Inkscape (http://www.inkscape.org/) -->

<svg
   version="1.1"
   id="svg1"
   width="400"
   height="400"
   viewBox="0 0 400 400"
   sodipodi:docname="standby.svg"
   inkscape:export-filename="../Documents/openSCAD/Star-Wars-Legion-Token-Holder/svgs/standby2.svg"
   inkscape:export-xdpi="96"
   inkscape:export-ydpi="96"
   inkscape:version="1.4.3 (0d15f75042, 2025-12-25)"
   xmlns:inkscape="http://www.inkscape.org/namespaces/inkscape"
   xmlns:sodipodi="http://sodipodi.sourceforge.net/DTD/sodipodi-0.dtd"
   xmlns="http://www.w3.org/2000/svg"
   xmlns:svg="http://www.w3.org/2000/svg">
  <defs
     id="defs1" />
  <sodipodi:namedview
     id="namedview1"
     pagecolor="#ffffff"
     bordercolor="#000000"
     borderopacity="0.25"
     inkscape:showpageshadow="2"
     inkscape:pageopacity="0.0"
     inkscape:pagecheckerboard="0"
     inkscape:deskcolor="#d1d1d1"
     inkscape:zoom="3.3754004"
     inkscape:cx="194.64358"
     inkscape:cy="185.60761"
     inkscape:window-width="1920"
     inkscape:window-height="1008"
     inkscape:window-x="0"
     inkscape:window-y="0"
     inkscape:window-maximized="1"
     inkscape:current-layer="g1" />
  <g
     inkscape:groupmode="layer"
     inkscape:label="Image"
     id="g1">
    <path
       id="path1"
       style="fill:#000000"
       d="M 199.59375,2.0507812 C 172.50941,1.3234138 145.55179,4.0534585 118.5,2.8613281 79.926039,39.970104 42.115021,77.859098 4.1132812,115.55078 c -0.3588395,42.82318 -2.4671389,85.72593 0.1239776,128.49413 -0.8477213,7.75618 -1.4749916,19.60696 -0.644915,29.56193 -1.5525122,8.1679 7.7945372,11.667 11.8478082,17.43367 33.604912,34.10113 67.35904,68.05477 101.059848,102.06105 50.76843,0.77039 101.52577,1.75222 152.3029,1.10066 12.59151,2.9473 18.9127,-10.95241 27.67,-17.37119 33.06066,-31.57482 65.3752,-63.90389 97.5271,-96.39944 1.25756,-53.44868 2.01299,-106.96641 0.56875,-160.40904 C 384.79893,104.11208 368.15276,92.252513 355.72194,77.963422 330.84326,52.861929 305.89959,27.824959 280.98828,2.7558594 270.79736,3.5041707 260.34096,2.7970758 250.40755,5.4103192 237.43022,-2.0798985 215.07585,4.2478301 199.59375,2.0507812 Z M 166,32.050781 c 22.18093,0.414542 44.61028,-1.027463 66.58631,1.105484 3.01018,11.941636 -5.10995,11.253389 -13.90242,10.656134 -17.5613,0.102427 -35.1226,0.206716 -52.68389,0.310648 0,-4.024089 0,-8.048177 0,-12.072266 z m 0,27 c 22.16667,-3.76e-4 44.33333,2.91e-4 66.5,0.002 -0.7581,5.921285 1.59086,14.926964 -1.02769,19.001388 -22.22501,-0.283786 -44.5677,1.633244 -66.71645,-0.159641 0.53725,-6.270986 1.28638,-12.54074 1.24414,-18.843747 z m 82.25,9 c 16.18056,9.272045 33.94602,17.900246 45.75,32.769529 -11.78919,9.7379 8.47562,10.86203 2.88677,14.8125 -5.16628,-0.34727 4.42237,4.54382 4.06682,3.19122 7.71628,7.21238 -4.47919,1.14808 4.04688,11.84371 1.66171,4.38825 -13.39692,-19.40354 -18.76956,-23.61719 C 279.04728,97.680756 268.01601,94.745007 258.0003,87.06591 246.36147,83.196009 242.74495,79.573582 248.25,68.050781 Z m -103.38672,1.679688 c 13.72058,3.283388 3.33238,15.615743 -4.9707,16.326166 -0.6024,2.490753 -10.626,-3.074631 -10.27372,-10.853563 10.31886,6.480394 1.95621,-4.32798 15.24442,-5.472603 z m -20.9668,10.320312 c 19.84994,8.351747 -7.05317,28.874989 -11.89648,9.208985 3.32061,-3.449645 7.79112,-7.074593 11.89648,-9.208985 z m 11.21094,2.521485 c -2.35132,1.849313 2.31055,3.270881 0,0 z m 97.39844,2.6875 c 1.33423,19.627594 -0.318,39.503594 2.3525,58.993094 3.65502,14.12569 15.98123,12.32419 19.26351,19.50617 18.43556,3.95751 37.59873,2.13463 56.37813,3.00074 -0.18026,10.25032 2.94983,15.90778 0.33254,25.49873 1.70185,10.13807 -0.73311,30.59082 -1.37134,35.08603 -14.0016,3.22686 -31.48592,1.04104 -46.8693,2.14057 -12.40774,2.52983 -28.72033,12.10537 -29.18889,28.51362 -1.13959,17.65861 -1.24322,35.36295 -1.40298,53.05206 -22.16667,-0.003 -44.33333,-0.005 -66.5,-0.008 -0.67266,-18.80613 0.93312,-37.93877 -1.83008,-56.49219 -4.66931,-15.51059 -16.17493,-25.1124 -31.9313,-25.34349 -14.92277,-0.2721 -29.84927,-0.1138 -44.773806,-0.15651 0.178386,-16.13666 0.356772,-32.27331 0.535156,-48.40997 9.541964,-0.19462 -5.340288,-4.59398 -0.5,-13.58984 18.66717,-0.51141 37.58248,1.31846 56.03694,-1.58479 7.51179,-6.3038 23.45468,-15.19816 21.80165,-30.2404 3.66808,-15.47894 -3.85739,-39.272366 5.15499,-49.832915 20.82833,-0.370843 41.6895,-0.725646 62.51228,-0.132909 z m -86.58984,0.914062 c 3.09861,1.485114 -4.35191,0.393562 0,0 z m -38.50391,6.695313 c 22.48667,7.998239 -9.062718,25.062809 -13.156251,27.494139 -1.893829,9.9156 -10.171731,24.20234 -14.379037,33.79488 -22.63133,3.26748 2.052416,-28.60804 7.1681,-37.10738 3.754642,-8.83908 11.676246,-5.48761 12.063009,-15.28999 2.831649,-2.903634 5.883249,-5.637557 8.304179,-8.891649 z m -1.70117,4.435547 c -5.1,3.075732 4.65865,4.486042 0,0 z m 191.13281,6.990232 c 6.52595,4.97273 19.0374,27.11845 5.04497,10.76309 -1.12944,-2.75398 -10.72498,-8.06768 -5.04497,-10.76309 z m -98.77539,16.78516 c -5.96748,30.26463 -25.28399,59.7213 -55.72817,69.80566 -9.20323,1.31083 -29.98094,8.06825 -8.8952,11.43788 32.91263,6.39907 56.42428,35.83139 63.52838,67.46637 5.048,12.8606 6.44976,-18.05474 11.94054,-22.22579 11.16153,-24.7184 34.95034,-41.98352 61.35986,-47.06458 12.64326,-7.90043 -18.92735,-7.08262 -23.67995,-12.95531 -23.51983,-11.80134 -39.01253,-34.86105 -45.37273,-59.93851 l -1.39968,-3.63429 -1.75302,-2.89138 z m 107.19922,5.42578 c 3.08673,6.40892 13.30651,-1.8412 2.91676,4.89884 -1.21382,-1.20099 -3.50184,-2.92208 -2.91676,-4.89884 z m -160.32617,32.54492 c 3.62418,2.15161 -2.21372,2.78333 0,0 z m 174.14062,7 c 5.84107,0.79394 14.85584,-1.53767 18.81506,1.10957 -0.48322,20.29387 -0.18625,40.67237 -1.39834,60.89772 -6.81923,0.7283 -21.22558,4.95834 -17.59915,-6.77451 -0.38728,-18.41113 0.15965,-36.82044 0.18243,-55.23278 z m 33.91797,0 c 6.74209,-0.1622 15.03802,-1.92191 12.21484,7.75 0.31909,18.41151 0.23442,36.82672 0.2852,55.24024 -10.91088,-0.14951 -15.45223,-0.39362 -10.79375,-13.61529 -4.90719,-13.56756 1.3286,-31.19109 -1.70629,-45.65293 0,-1.24067 0,-2.48135 0,-3.72202 z m -309,0.88477 c 0,20.70508 0,41.41015 0,62.11523 -14.291448,3.17015 -9.908376,-19.97139 -10.441815,-24.72109 -0.899536,-8.86354 -2.546086,-19.22286 1.543377,-25.57773 C 30.421502,166.84046 31.310605,167.12887 44,166.93555 Z m 16.125,0.11523 c 5.870193,0.79137 14.858071,-1.53494 18.875,1.10969 0.807431,10.48567 -2.011451,22.27394 1.995753,31.8134 -4.873398,8.0051 0.165698,21.77206 -3.419886,28.77057 -5.207949,-1.42323 -16.065615,2.75754 -17.603439,-2.30952 0.04981,-19.79472 0.100813,-39.58943 0.152572,-59.38414 z m -26.783203,29.3457 c -1.394906,3.22341 1.845941,3.13976 0,0 z M 83,199.05078 c 4.029985,2.69252 -3.893393,2.35666 0,0 z m 61.42578,33.45703 c 1.30868,4.48054 -1.20622,3.16976 0,0 z M 115.5,290.74219 c 12.88487,7.79429 24.01528,17.97758 38.03691,23.00676 13.82656,11.14041 -2.75055,8.56966 -3.0955,6.83308 -3.71795,2.04929 -9.92904,-15.39731 -19.76786,-16.14108 -5.83033,-3.71171 -11.03607,-8.15148 -15.17355,-13.69876 z m 164.13867,3.6289 c 1.18717,11.24462 -15.85775,16.17447 -25.44923,21.95873 -7.66324,8.28862 -18.83532,2.49986 -5.59795,-3.60657 10.7337,-5.46366 20.709,-12.23013 31.04718,-18.35216 z M 133.54883,310.5332 c 5.15697,2.0333 -4.27486,1.69759 0,0 z m 65.51953,6.51758 c 10.97721,0 21.95443,0 32.93164,0 -0.78363,5.9204 1.52643,14.93134 -1.10969,19.00113 -21.19787,-0.50664 -42.5254,1.4635 -63.60508,-0.208 -12.71891,-26.194 16.34219,-17.24912 31.78313,-18.79313 z m -33.06836,35 c 22.03516,0 44.07031,0 66.10547,0 -0.0765,6.75502 1.37113,15.09032 -8.20145,12 -19.30134,0 -38.60268,0 -57.90402,0 0,-4 0,-8 0,-12 z" />
    <path
       style="fill:#000000;stroke-width:3.5"
       d="M 155.90743,83.800244 85.261876,164.67722 51.157125,165.16443 98.416565,75.517661 154.4458,57.490865 156.39464,80.389769 Z"
       id="path2" />
    <path
       style="fill:#000000;stroke-width:3.5"
       d="m 243.60536,61.875761 -1.46163,36.540804 72.59439,45.310595 22.89891,-26.79659 c 0,0 -49.20828,-44.823384 -52.61876,-47.259437 -3.41047,-2.436054 -41.41291,-7.795372 -41.41291,-7.795372 z"
       id="path3" />
    <path
       style="fill:#000000;stroke-width:3.5"
       d="m 285.50548,273.81242 -50.66991,36.0536 5.35931,32.1559 52.61876,-29.71985 z"
       id="path4" />
    <path
       style="fill:#000000;stroke-width:3.5"
       d="m 162.24117,304.01949 -3.41048,57.00365 -42.38733,-23.38611 c 0,0 -24.847745,-44.82339 -24.847745,-50.18271 0,-5.35931 37.515225,-30.69427 37.515225,-30.69427 l 21.43727,37.02801 z"
       id="path5" />
  </g>
</svg>
