<?xml version="1.0" encoding="UTF-8" standalone="no"?>
<!-- Created with Inkscape (http://www.inkscape.org/) -->

<svg
   version="1.1"
   id="svg1"
   width="280"
   height="265"
   viewBox="0 0 280 265"
   sodipodi:docname="Suppression.svg"
   inkscape:version="1.4.3 (0d15f75042, 2025-12-25)"
   xmlns:inkscape="http://www.inkscape.org/namespaces/inkscape"
   xmlns:sodipodi="http://sodipodi.sourceforge.net/DTD/sodipodi-0.dtd"
   xmlns="http://www.w3.org/2000/svg"
   xmlns:svg="http://www.w3.org/2000/svg">
  <defs
     id="defs1" />
  <sodipodi:namedview
     id="namedview1"
     pagecolor="#ffffff"
     bordercolor="#000000"
     borderopacity="0.25"
     inkscape:showpageshadow="2"
     inkscape:pageopacity="0.0"
     inkscape:pagecheckerboard="0"
     inkscape:deskcolor="#d1d1d1"
     inkscape:zoom="3.0981132"
     inkscape:cx="140.08526"
     inkscape:cy="132.5"
     inkscape:window-width="1920"
     inkscape:window-height="1008"
     inkscape:window-x="0"
     inkscape:window-y="0"
     inkscape:window-maximized="1"
     inkscape:current-layer="g1" />
  <g
     inkscape:groupmode="layer"
     inkscape:label="Image"
     id="g1">
    <path
       id="path1"
       style="fill:#000000"
       d="M 158.91992 9.6972656 C 158.61832 9.707668 158.28115 9.7932342 157.88672 9.9414062 C 156.78672 10.354629 150.64105 10.708222 144.23047 10.726562 C 137.81989 10.744903 132.8121 11.142003 133.10156 11.609375 C 133.39101 12.076748 132.66627 11.944755 131.49219 11.316406 C 130.17014 10.608863 127.93682 10.457797 125.62305 10.917969 C 123.56825 11.326632 121.27785 11.539552 120.53516 11.392578 C 119.79247 11.245603 119.48305 11.606574 119.8457 12.193359 C 120.20836 12.780143 119.81858 13.259766 118.98047 13.259766 C 118.75158 13.259766 118.49364 13.335713 118.22656 13.470703 L 118.22461 13.470703 L 111.94727 24.544922 C 112.02509 24.503405 112.0795 24.494815 112.10742 24.513672 C 112.20009 24.587914 111.99435 25.036385 111.57617 25.841797 C 111.11627 26.72758 110.45336 27.623262 109.78906 28.349609 L 105.54883 35.828125 L 102.99023 38.8125 C 102.98938 38.814103 102.98913 38.814802 102.98828 38.816406 C 102.10166 40.485152 101.15898 42.366808 100.36914 44.076172 C 98.763637 47.550779 96.323076 51.733717 94.945312 53.371094 C 93.567551 55.008471 91.55273 58.354171 90.46875 60.804688 C 89.38477 63.255204 88.06986 65.259766 87.546875 65.259766 C 87.02389 65.259766 84.687713 69.114202 82.353516 73.826172 C 80.019318 78.538143 77.463811 83.038142 76.675781 83.826172 C 75.61609 84.885862 72.539547 85.259766 64.861328 85.259766 C 54.201305 85.259766 50.006966 86.280059 48.955078 89.130859 C 48.128142 91.372009 46.379019 94.149771 43.136719 98.369141 C 40.781789 101.43373 40.386719 102.88732 40.386719 108.48828 C 40.386719 114.36144 40.641835 115.19707 42.886719 116.66797 C 44.261719 117.56891 45.386719 119.21168 45.386719 120.31836 C 45.386719 121.42503 46.078892 123.38718 46.925781 124.67969 C 49.370773 128.41122 47.639301 136.622 43.324219 141.75977 C 42.400357 142.85977 41.0243 144.97 40.265625 146.44922 C 39.506951 147.92844 37.208211 152.09118 35.15625 155.69922 C 33.104289 159.30726 31.146142 163.36607 30.806641 164.71875 C 30.467139 166.07143 29.558147 167.70189 28.787109 168.3418 C 28.016071 168.9817 27.386719 169.92651 27.386719 170.44141 C 27.386719 170.95632 26.073971 173.03811 24.470703 175.06836 C 22.867435 177.09861 19.903257 181.90977 17.882812 185.75977 C 15.862369 189.60977 13.685663 192.75977 13.046875 192.75977 C 11.510037 192.75977 9.6857228 197.07997 8.8398438 202.7207 C 8.1879111 207.0681 8.3298879 207.43658 11.900391 210.70703 C 14.844102 213.40336 15.537401 214.68297 15.152344 216.69727 C 14.883035 218.10607 14.93916 219.26067 15.275391 219.26367 C 15.840931 219.26828 22.651129 229.39969 24.904297 233.58789 C 25.815703 235.28202 28.141829 235.45424 56.386719 235.89844 C 73.160993 236.16225 88.461719 236.798 90.386719 237.3125 C 92.311719 237.82701 97.793299 238.25091 102.56836 238.25391 C 111.2346 238.25948 111.25357 238.26563 113.49023 241.50977 C 114.72261 243.29727 116.84735 245.69362 118.21094 246.83594 C 120.1231 248.43782 120.54214 249.49926 120.04688 251.47266 C 119.2104 254.80542 120.79418 256.04214 126.40625 256.44141 C 128.87046 256.61675 135.38672 256.70337 140.88672 256.63477 C 150.15925 256.51914 150.96981 256.34762 152.03125 254.2793 C 152.66084 253.05248 154.20788 251.53389 155.46875 250.9043 C 156.72961 250.27471 158.11438 248.39332 158.54688 246.72266 C 158.97938 245.052 160.58232 242.52072 162.10938 241.09961 C 166.3906 237.11544 171.44532 236.70412 221.66211 236.25 L 248.4375 236.00781 L 250.41211 233.5 C 251.49773 232.11987 252.38672 230.32675 252.38672 229.51758 C 252.38672 228.70841 253.51172 227.16166 254.88672 226.08008 C 256.26172 224.9985 257.3943 223.13508 257.4043 221.9375 C 257.4138 220.73992 258.43237 218.80099 259.66992 217.62891 C 260.90747 216.45683 262.56763 214.20683 263.35938 212.62891 C 264.15111 211.05099 265.42631 209.00012 266.19141 208.07227 C 266.95607 207.14443 267.29621 205.92397 266.94727 205.35938 C 266.59833 204.79478 267.27313 203.37141 268.44727 202.19727 C 270.54351 200.10103 270.55128 199.97785 268.84766 195.41016 C 267.89344 192.85173 265.37485 188.1197 263.25 184.89453 C 261.12514 181.66935 259.38672 178.65477 259.38672 178.19336 C 259.38672 177.73195 257.55283 175.88045 255.3125 174.08008 C 252.2545 171.6226 251.34629 170.25071 251.66602 168.57812 C 251.95491 167.06688 251.17327 165.47298 249.23828 163.61914 C 247.66936 162.11603 246.38672 160.25126 246.38672 159.47656 C 246.38672 158.70186 245.5462 156.87396 244.51953 155.41406 C 243.49286 153.95416 239.66786 146.99116 236.01953 139.94141 C 229.74934 127.82536 228.1885 123.25977 230.31836 123.25977 C 230.8313 123.25977 231.57243 122.24727 231.96484 121.00977 C 232.35726 119.77227 233.7366 117.08087 235.03125 115.0293 C 236.3259 112.97773 237.38672 110.47945 237.38672 109.47852 C 237.38672 108.47759 237.90184 107.14504 238.53125 106.51562 C 240.25722 104.78966 237.9506 100.10683 234.36523 98.056641 C 232.05925 96.738041 231.38672 95.646246 231.38672 93.228516 C 231.38672 91.152316 230.46208 89.180816 228.62891 87.347656 C 225.88617 84.604906 225.81005 84.593342 214.84961 85.044922 C 206.30092 85.397142 203.57995 85.191086 202.7207 84.128906 C 202.11146 83.375776 200.26745 79.384766 198.62305 75.259766 C 194.83277 65.751739 184.77088 47.20906 176.37305 34.259766 C 174.76797 31.784766 172.53019 28.072266 171.40039 26.009766 C 170.27059 23.947266 168.93535 22.259766 168.43359 22.259766 C 167.93184 22.259766 167.24253 21.382414 166.90234 20.310547 C 166.56214 19.238681 165.4078 18.084338 164.33594 17.744141 C 163.26407 17.403944 162.38672 16.568911 162.38672 15.890625 C 162.38672 15.212339 161.82422 13.427539 161.13672 11.923828 C 160.39715 10.306236 159.82474 9.6660584 158.91992 9.6972656 z M 139.99805 35.214844 C 140.70496 35.200241 141.44393 38.029242 141.85352 43.009766 C 142.86101 55.26085 144.36757 64.53271 145.5918 66.007812 C 146.21182 66.754887 147.04924 69.25427 147.45312 71.5625 C 148.27174 76.240982 150.46556 87.086185 150.97852 88.992188 C 151.16106 89.670395 151.93552 89.986419 152.69922 89.693359 C 154.07077 89.167039 164.92483 74.857792 167.25391 70.505859 C 167.91515 69.270329 169.16709 68.259766 170.03516 68.259766 C 171.27244 68.259766 171.48285 68.962018 171.01172 71.509766 C 169.03655 82.19098 168.22343 87.598614 167.5625 94.458984 C 167.15455 98.693364 166.48928 102.48924 166.08398 102.89453 C 165.67869 103.29982 162.09419 101.9735 158.11719 99.947266 C 152.66945 97.171696 149.1605 96.109538 143.88672 95.642578 C 135.95927 94.940658 122.89137 96.645976 119.88867 98.773438 C 118.78764 99.553537 116.67245 101.1264 115.18945 102.26953 L 112.49414 104.34766 L 111.86328 100.55469 C 111.51718 98.4678 110.83034 95.634766 110.33594 94.259766 C 109.62032 92.269516 107.38672 74.012118 107.38672 70.154297 C 107.38672 69.662572 108.23474 69.259766 109.27148 69.259766 C 111.42277 69.259766 112.4336 70.653329 118.3457 81.759766 C 120.68788 86.159763 123.18829 90.374373 123.90039 91.126953 C 125.81266 93.147923 127.38672 91.60898 127.38672 87.71875 C 127.38672 85.83673 129.47219 76.302315 132.02148 66.529297 C 136.2241 50.418025 137.73752 44.120499 138.99609 37.509766 C 139.29154 35.957876 139.64043 35.222231 139.99805 35.214844 z M 143.36914 61.257812 C 143.3529 61.259712 143.32915 61.267524 143.30078 61.28125 L 143.33789 61.429688 C 143.38277 61.35277 143.40288 61.298779 143.39844 61.273438 L 143.39844 61.271484 L 143.39844 61.269531 L 143.39648 61.267578 L 143.39648 61.265625 L 143.39453 61.263672 L 143.39258 61.263672 L 143.39258 61.261719 L 143.39062 61.261719 L 143.38867 61.259766 C 143.38778 61.25944 143.38387 61.258062 143.38281 61.257812 L 143.38086 61.257812 L 143.37891 61.257812 C 143.37756 61.25785 143.37624 61.257795 143.375 61.257812 L 143.37305 61.257812 L 143.37109 61.257812 L 143.36914 61.257812 z M 197.37695 101.25977 C 199.49719 101.25977 206.31229 109.59862 206.36719 112.25977 C 206.38421 113.08477 207.07097 115.04768 207.89258 116.62305 C 208.71419 118.19842 209.38672 120.11092 209.38672 120.87305 C 209.38672 121.63518 208.74274 122.25977 207.95703 122.25977 C 206.41757 122.25977 203.38672 119.63544 203.38672 118.30273 C 203.38672 117.85469 201.58672 114.79257 199.38672 111.49805 C 194.92973 104.82365 194.23016 101.25977 197.37695 101.25977 z M 80.363281 102.25977 C 81.475394 102.25977 82.386719 102.64431 82.386719 103.11523 C 82.386719 103.58615 80.100918 108.31115 77.308594 113.61523 C 72.272217 123.18194 70.868966 124.68445 69.732422 121.72266 C 68.309715 118.01515 76.915431 102.25977 80.363281 102.25977 z M 131.09375 104.75977 C 132.7424 104.75977 132.8853 106.25449 132.9668 124.46875 C 133.01531 135.30893 132.79196 144.53393 132.4707 144.96875 C 132.14945 145.40357 130.08672 146.64606 127.88672 147.73047 C 125.68672 148.81488 122.08672 150.82152 119.88672 152.18945 C 117.68672 153.55737 112.32684 156.83358 107.97656 159.46875 C 99.771171 164.43912 98.843588 164.8083 98 163.44336 C 97.117529 162.01549 99.844955 155.57918 101.14844 156.01367 C 103.39394 156.76217 102.46502 152.0595 99.4375 147.34766 C 97.816286 144.82451 94.44129 141.04885 91.9375 138.95898 C 86.923837 134.77415 86.42105 133.34358 89.326172 131.5293 C 91.33504 130.27474 95.595013 122.14501 95.929688 118.92773 C 96.034481 117.92032 96.878979 116.34532 97.806641 115.42773 C 99.219472 114.03026 99.416471 113.89827 98.955078 115.17383 L 100.39648 114.0918 C 100.62075 111.53402 104.87801 110.99644 110.70117 112.83203 C 118.61607 115.32698 124.16043 113.93892 127.08203 108.73047 C 128.37893 106.41844 130.05519 104.75977 131.09375 104.75977 z M 148.31055 105.23438 C 149.39396 105.18357 151.16993 106.50906 152.62695 108.7793 C 155.88023 113.84839 158.01694 114.17393 169.26172 111.30859 C 174.93446 109.86308 177.42089 111.40373 180.89453 118.51562 C 182.30338 121.4001 184.08533 124.88477 184.85547 126.25977 C 186.88834 129.88926 189.38672 135.88988 189.38672 137.14453 C 189.38672 137.73965 187.143 139.36121 184.40234 140.75 C 178.88933 143.54366 177.71667 145.90004 178.76562 152.07031 C 180.36623 161.48545 180.74292 162.80971 182.02148 163.55859 C 182.77241 163.99842 183.38672 164.78592 183.38672 165.30859 C 183.38672 167.15178 180.5074 166.22876 178.56836 163.76367 C 176.46147 161.0852 168.32914 155.90919 156.59375 149.77734 C 152.58245 147.6814 148.89537 145.21226 148.40234 144.29102 C 147.72193 143.01966 146.91389 114.68899 147.32422 106.50977 C 147.36658 105.66541 147.74304 105.26099 148.31055 105.23438 z M 184.45703 105.25977 C 188.31774 105.25977 196.69113 120.4732 196.81641 127.71484 C 196.86565 130.56137 196.43999 131.78849 195.32422 132.01562 C 193.31169 132.42534 191.20704 129.99118 188.18555 123.75977 C 186.85213 121.00977 184.57494 116.30338 183.125 113.30078 C 180.34569 107.54525 180.7237 105.25977 184.45703 105.25977 z M 92.539062 105.75195 C 94.431731 105.67975 98.386719 107.70714 98.386719 108.92383 C 98.386719 109.26409 95.966399 113.41582 93.007812 118.15039 C 90.049228 122.88496 87.108422 127.77227 86.472656 129.00977 C 85.781503 130.35508 84.391677 131.25977 83.017578 131.25977 C 78.581318 131.25977 78.305325 128.99261 81.863281 121.75977 C 83.216052 119.00977 84.338269 116.44352 84.355469 116.05859 C 84.424588 114.51171 90.490811 106.43262 92.025391 105.84375 C 92.170412 105.7881 92.343271 105.75942 92.539062 105.75195 z M 190.62891 146.70312 C 192.75518 146.64559 206.45778 151.76303 213.38477 155.25977 C 216.6538 156.90997 219.9906 158.25977 220.79883 158.25977 C 222.4214 158.25977 223.91119 160.06731 223.02148 160.95703 C 222.7106 161.26791 220.30356 161.68842 217.67188 161.89062 C 210.61401 162.43291 194.38498 166.48864 194.39648 167.70703 C 194.40193 168.28627 196.53943 170.22256 199.14648 172.01172 C 214.20779 182.34797 236.70901 202.2695 235.11914 203.85938 C 234.46558 204.51293 229.81371 203.14325 220.88672 199.66992 C 217.58672 198.38596 209.71172 195.68099 203.38672 193.6582 C 197.06172 191.63541 190.14152 189.10485 188.00977 188.03516 L 184.13477 186.08984 L 184.6543 188.92578 C 186.54208 199.22021 188.5911 205.94817 190.81836 209.16211 C 192.23018 211.19936 193.38672 213.40456 193.38672 214.0625 C 193.38672 216.37547 189.70098 215.22165 185.4375 211.57227 C 180.84799 207.64383 165.39385 197.25977 164.13672 197.25977 C 163.72366 197.25977 163.38672 196.41497 163.38672 195.38281 C 163.38672 194.28474 167.70643 189.50481 173.80078 183.86133 C 183.2208 175.13821 184.42232 173.6214 186.36133 167.98828 C 187.54049 164.56266 188.76878 158.48344 189.0918 154.47852 C 189.41483 150.4736 190.00515 146.99548 190.40234 146.75 C 190.44873 146.72133 190.52434 146.70595 190.62891 146.70312 z M 83.308594 148.00195 C 85.298042 148.0445 85.741862 149.67484 86.404297 152.92969 C 86.833065 155.03642 87.672232 159.14888 88.269531 162.06836 C 90.068572 170.86172 99.465839 183.09121 109.98438 190.32812 C 112.40488 191.99349 114.38672 193.93901 114.38672 194.65234 C 114.38672 196.14201 111.22415 199.25977 109.71289 199.25977 C 109.15394 199.25977 107.83876 200.2136 106.79102 201.38086 C 105.74327 202.54811 102.63672 204.80381 99.886719 206.39258 C 97.136719 207.98135 92.749219 210.89356 90.136719 212.86523 C 87.524219 214.83691 85.393044 216.29567 85.402344 216.10547 C 85.411596 215.91527 86.980223 211.93477 88.886719 207.25977 C 90.793215 202.58477 92.361737 197.85977 92.373047 196.75977 C 92.384355 195.65977 93.292677 193.28253 94.392578 191.47852 C 96.041888 188.77339 96.144333 188.10345 94.96875 187.65234 C 94.184771 187.3515 92.720321 187.53582 91.714844 188.0625 C 89.584722 189.17827 70.733539 195.4792 64.886719 197.0293 C 62.686719 197.61256 56.836719 199.67443 51.886719 201.61133 C 45.833284 203.97999 42.559323 204.80126 41.886719 204.12109 C 40.787647 203.00967 42.404006 201.49295 53.886719 192.85938 C 57.736719 189.96464 61.561719 186.76619 62.386719 185.75195 C 63.211719 184.73771 67.486719 181.25109 71.886719 178.00391 C 79.903787 172.08734 83.321721 168.71028 83.363281 166.66602 C 83.384853 165.60495 72.323336 163.06671 61.636719 161.68164 C 58.186785 161.2345 56.386719 160.5319 56.386719 159.63086 C 56.386719 158.87672 56.842676 158.25977 57.400391 158.25977 C 57.958106 158.25977 64.05084 155.71133 70.939453 152.59766 C 77.785129 149.50339 81.319145 147.9594 83.308594 148.00195 z M 139.19336 157.59766 C 141.62236 157.53816 144.5586 159.21379 158.58398 167.9043 C 163.15063 170.73391 167.74831 173.20891 168.80273 173.4043 C 172.52946 174.09486 171.61283 176.27321 166.72461 178.3418 C 164.06318 179.46806 160.93065 180.85417 159.76367 181.42383 C 157.46248 182.54715 155.38672 188.11063 155.38672 193.15039 C 155.38672 195.50783 154.81595 196.52441 153.13672 197.1582 C 150.39134 198.19437 124.06418 198.60324 123.08594 197.625 C 122.70116 197.24023 122.38672 195.45573 122.38672 193.6582 C 122.38672 186.24113 117.84693 180.20843 110.77539 178.22852 C 103.88567 176.29952 104.12467 175.03514 111.95703 171.99805 C 114.19633 171.12974 120.39245 167.66984 125.72461 164.31055 C 131.05677 160.95127 136.6488 157.98207 138.15234 157.71289 C 138.50953 157.64894 138.84636 157.60616 139.19336 157.59766 z M 123.17969 202.5625 L 138.5332 203.03516 C 146.97771 203.2951 154.0771 203.67937 154.31055 203.89062 C 154.544 204.10189 154.319 205.95937 153.81055 208.01758 L 152.88672 211.75977 L 139.21289 212.03711 C 131.69227 212.18986 125.29484 211.92162 124.99805 211.44141 C 124.70127 210.9612 124.17047 208.7664 123.81836 206.56445 L 123.17969 202.5625 z M 141.13281 217.47461 L 151.88672 217.75977 L 151.88672 220.75977 L 151.88672 223.75977 L 140.58203 223.88281 C 131.92959 223.97758 128.9382 223.66867 127.83203 222.5625 C 123.94173 218.6722 127.97639 217.12729 141.13281 217.47461 z " />
  </g>
</svg>
