<?xml version="1.0" encoding="UTF-8" standalone="no"?>
<!-- Created with Inkscape (http://www.inkscape.org/) -->

<svg
   version="1.1"
   id="svg1"
   width="500"
   height="495"
   viewBox="0 0 500 495"
   sodipodi:docname="surge.svg"
   inkscape:version="1.4.3 (0d15f75042, 2025-12-25)"
   xmlns:inkscape="http://www.inkscape.org/namespaces/inkscape"
   xmlns:sodipodi="http://sodipodi.sourceforge.net/DTD/sodipodi-0.dtd"
   xmlns="http://www.w3.org/2000/svg"
   xmlns:svg="http://www.w3.org/2000/svg">
  <defs
     id="defs1" />
  <sodipodi:namedview
     id="namedview1"
     pagecolor="#ffffff"
     bordercolor="#000000"
     borderopacity="0.25"
     inkscape:showpageshadow="2"
     inkscape:pageopacity="0.0"
     inkscape:pagecheckerboard="0"
     inkscape:deskcolor="#d1d1d1"
     inkscape:zoom="1.6585859"
     inkscape:cx="250.21315"
     inkscape:cy="247.5"
     inkscape:window-width="1920"
     inkscape:window-height="1008"
     inkscape:window-x="0"
     inkscape:window-y="0"
     inkscape:window-maximized="1"
     inkscape:current-layer="g1" />
  <g
     inkscape:groupmode="layer"
     inkscape:label="Image"
     id="g1">
    <path
       style="fill:#000000"
       d="m 236,452.31763 c -6.07577,-0.99646 -13.92301,-3.93837 -19,-7.12308 -3.29814,-2.06886 -20.91304,-18.79133 -44,-41.77083 C 151.825,382.34729 118.07367,348.76728 97.997041,328.80147 50.195181,281.26347 49.328082,280.24206 44.258582,265.5 c -2.36911,-6.88935 -2.744407,-9.52714 -2.703262,-19 0.08216,-18.91647 3.810922,-28.9587 15.877325,-42.76055 C 63.632784,196.64758 188.10207,72.147604 205,56.135708 217.96978,43.845989 226.7163,39.968079 243.08925,39.248232 263.66841,38.343457 276.80251,42.491256 288.5,53.589126 299.85778,64.364694 430.38957,194.50896 436.80979,201.45861 c 7.58047,8.20558 10.39835,12.47232 14.52494,21.99317 2.94546,6.79575 3.05686,7.58552 3.11008,22.04822 0.0526,14.29393 -0.0791,15.32176 -2.79767,21.83558 -1.56908,3.75957 -3.81908,8.40739 -5,10.32847 -2.78227,4.5261 -13.36606,17.18207 -16.82389,20.1178 -2.93319,2.4903 -109.01411,108.34236 -115.01447,114.76634 -3.98712,4.26859 -24.10107,23.27032 -29.80878,28.16047 -10.25979,8.7902 -20.99046,12.36567 -36.4799,12.15516 -5.51106,-0.0749 -11.1451,-0.32069 -12.5201,-0.54619 z m 12.76091,-78.47854 c 1.79582,-1.79582 10.00269,-40.49482 14.38658,-67.83909 0.57315,-3.575 1.65523,-8.75 2.40461,-11.5 0.74938,-2.75 2.06599,-8.15 2.9258,-12 0.8598,-3.85 2.75331,-10.15 4.2078,-14 2.44295,-6.46645 3.27981,-7.51876 10.97941,-13.80606 5.13755,-4.1952 8.33489,-7.53542 8.33489,-8.70737 0,-1.04572 -1.6323,-3.15799 -3.62733,-4.69394 -14.84054,-11.42551 -14.61208,-11.14339 -18.12669,-22.38475 -1.78971,-5.72433 -3.25221,-11.00922 -3.25,-11.7442 0.002,-0.73497 -0.8662,-4.55997 -1.9298,-8.5 -1.06361,-3.94002 -3.54338,-14.81368 -5.51061,-24.16368 -1.96723,-9.35 -4.71681,-22.175 -6.11018,-28.5 -1.39337,-6.325 -2.78968,-12.7375 -3.1029,-14.25 -0.748,-3.61203 -2.25261,-3.46968 -6.18248,0.58491 -2.96795,3.06214 -3.51315,4.71844 -6.66571,20.25 -1.88836,9.3033 -4.1013,19.16509 -4.91763,21.91509 -0.81633,2.75 -2.88512,11.89471 -4.5973,20.32158 -3.31468,16.31383 -6.94963,28.95789 -9.40002,32.69766 -0.82357,1.25693 -5.00334,5.12557 -9.28838,8.59697 -8.90945,7.21775 -9.25488,7.61063 -9.27566,10.54989 -0.0158,2.23257 10.39653,12.57846 14.66741,14.57384 1.2005,0.56088 3.12577,3.21196 4.27839,5.8913 2.18512,5.07944 7.5527,24.72831 9.11551,33.36876 0.49739,2.75 1.5277,7.925 2.28956,11.5 0.76186,3.575 3.24204,15.85132 5.51152,27.28071 2.26948,11.42939 5.02542,23.3388 6.12431,26.46534 1.0989,3.12655 1.99799,6.48773 1.99799,7.46929 0,2.02917 2.96679,2.41787 4.76091,0.62375 z"
       id="path1" />
  </g>
</svg>
