<?xml version="1.0" encoding="UTF-8" standalone="no"?>
<!-- Created with Inkscape (http://www.inkscape.org/) -->

<svg
   version="1.1"
   id="svg1"
   width="376.43576"
   height="339.3475"
   viewBox="0 0 376.43576 339.3475"
   sodipodi:docname="wound.svg"
   inkscape:version="1.4.3 (0d15f75042, 2025-12-25)"
   xmlns:inkscape="http://www.inkscape.org/namespaces/inkscape"
   xmlns:sodipodi="http://sodipodi.sourceforge.net/DTD/sodipodi-0.dtd"
   xmlns="http://www.w3.org/2000/svg"
   xmlns:svg="http://www.w3.org/2000/svg">
  <defs
     id="defs1" />
  <sodipodi:namedview
     id="namedview1"
     pagecolor="#ffffff"
     bordercolor="#000000"
     borderopacity="0.25"
     inkscape:showpageshadow="2"
     inkscape:pageopacity="0.0"
     inkscape:pagecheckerboard="0"
     inkscape:deskcolor="#d1d1d1"
     inkscape:zoom="1.33461"
     inkscape:cx="279.4824"
     inkscape:cy="228.15654"
     inkscape:window-width="1920"
     inkscape:window-height="1008"
     inkscape:window-x="0"
     inkscape:window-y="0"
     inkscape:window-maximized="1"
     inkscape:current-layer="g1" />
  <g
     inkscape:groupmode="layer"
     inkscape:label="Image"
     id="g1"
     transform="translate(-155.0935,-94.147541)">
    <path
       style="fill:#000000;stroke-width:3.5"
       d="m 170.1691,118.42177 c 0,0 -37.31779,-32.839651 5.47327,23.88338 42.79106,56.72303 42.79106,56.72303 42.79106,56.72303 0,0 12.93683,32.34208 -8.4587,54.73275 -21.39553,22.39067 -26.8688,10.44898 -5.47327,36.82022 21.39553,26.37123 42.29349,37.31778 6.96598,89.06511 -35.3275,51.74733 -54.73275,71.65014 -4.9757,35.3275 49.75705,-36.32264 49.75705,-36.32264 49.75705,-36.32264 0,0 57.71817,-19.40525 74.63556,10.44898 16.9174,29.85422 14.42955,43.7862 29.85423,15.42468 15.42469,-28.36151 33.83479,-57.71817 71.15258,-42.29349 37.31778,15.42469 135.33916,76.12828 86.07969,19.90282 -49.25948,-56.22546 -71.65015,-83.59184 -48.26434,-114.93877 23.38581,-31.34694 19.40525,-33.33723 19.40525,-33.33723 0,0 -72.14772,-13.93197 -33.33722,-76.12828 38.81049,-62.196302 44.28377,-80.108839 5.97084,-47.76676 -38.31292,32.34208 -86.57726,50.75219 -109.4655,21.8931 -22.88824,-28.85909 -18.90767,-29.85423 -28.36151,-14.42954 -9.45384,15.42468 -42.29349,61.20116 -99.01652,30.3518 -56.72304,-30.84937 -54.73275,-29.35666 -54.73275,-29.35666 z"
       id="path2"
       clip-path="none" />
  </g>
</svg>
